<svg width="152" height="112" viewBox="0 0 152 112" fill="none" xmlns="http://www.w3.org/2000/svg">
<g filter="url(#filter0_d_2_99)">
<g filter="url(#filter1_d_2_99)">
<mask id="path-3-inside-1_2_99" fill="white">
<path fill-rule="evenodd" clip-rule="evenodd" d="M28.4909 54.8238C28.5602 54.3341 28.6304 53.8444 28.7353 53.3547L30.4481 51.6412C31.4267 51.1515 31.4267 51.1515 31.9156 50.6618C32.2448 50.593 32.5713 50.5114 32.8942 50.4173V49.4379H33.8728V48.4586C34.1874 48.3884 34.5021 48.319 34.8514 48.2133C35.3403 47.7236 35.3403 47.7236 37.2636 46.745L38.7311 45.2759C39.7097 44.7862 40.1994 44.2965 41.178 43.8076L42.1566 42.8282C44.1138 41.8488 44.6035 41.3599 45.5821 40.8702L46.0718 40.3805C49.3231 38.7719 52.5735 37.1277 55.8595 35.4844C58.7961 34.505 62.2208 33.0714 63.6891 32.5817C64.0037 32.4421 64.3184 32.267 64.6677 32.092C68.0585 31.2868 71.484 30.4833 74.9095 29.6443C81.7613 28.6649 81.7613 28.6649 86.1647 28.1752H99.8675C103.783 29.1546 103.783 29.1546 105.25 29.6443C106.228 30.134 107.662 30.6237 108.64 31.1126C109.13 31.2529 109.62 31.4272 110.109 31.6023C110.597 32.092 110.597 32.092 111.577 32.5817C115.002 33.5264 115.98 34.0153 116.96 34.2605C117.029 34.5751 117.1 34.8898 117.205 35.2399L117.693 35.7296C118.183 37.1987 118.183 37.1987 119.162 39.1575L121.608 41.6052C122.098 42.5846 122.588 43.0735 123.077 44.0529L123.565 44.5426C124.055 46.0109 124.055 46.0109 124.545 46.9903V51.8856C124.055 53.3547 123.565 54.3341 123.32 54.5794C120.384 54.5794 120.384 54.5794 117.937 54.3341C117.868 54.0187 117.799 53.7041 117.692 53.3547L116.225 51.8856C116.084 51.571 115.911 51.2564 115.735 50.9063C115.328 50.4977 114.92 50.0898 114.512 49.6824C114.198 49.5428 113.883 49.3678 113.534 49.1927L112.067 47.7236C110.773 47.0943 109.479 46.4296 108.151 45.7648C107.662 45.2751 107.662 45.2751 106.718 44.7854C106.062 44.6348 105.41 44.4716 104.761 44.2957L104.271 43.806C103.127 43.6573 101.985 43.4941 100.845 43.3163C100.531 43.1768 100.217 43.0017 99.8675 42.8267C98.0838 42.6871 96.3024 42.512 94.4848 42.337H82.7392C81.621 42.4765 80.4673 42.6516 79.3137 42.8267H71.029C68.5821 43.3164 64.178 43.806 62.2208 44.2957C59.2842 44.7854 57.327 45.2751 54.3904 45.7648C53.4118 46.2545 45.5821 48.703 44.6035 49.1927C43.1352 49.6824 42.1566 50.1721 40.6883 50.661C39.7097 51.1507 39.7097 51.1507 38.2414 51.6404L37.7517 52.1301C36.3189 52.6198 36.3189 52.6198 33.3823 54.0889C32.753 54.2293 32.0891 54.4027 31.4251 54.5786C30.4489 54.648 29.4695 54.7189 28.4909 54.8238V54.8238ZM42.1582 34.9931C41.1768 34.8471 40.198 34.6839 39.2224 34.5034C38.7327 34.0137 38.7327 34.0137 37.7541 33.524L35.3419 31.1102C34.8475 30.963 34.3581 30.7997 33.8744 30.6205L33.3847 30.1308C32.895 29.9912 32.4061 29.8162 31.9164 29.6411L31.4267 29.1514C31.112 29.0812 30.7974 29.0111 30.4481 28.9062C30.3779 28.5915 30.3077 28.2769 30.2028 27.9268C29.9579 27.682 29.7132 27.437 29.4687 27.1918C29.1394 27.123 28.8129 27.0412 28.4901 26.9466C28.4199 26.632 28.3497 26.3173 28.2448 25.9672C27.7551 25.4775 27.7551 25.4775 27.2662 24.4981V21.5607L28.2448 20.5813C28.315 19.9521 28.3844 19.2873 28.4901 18.6233C28.8039 18.6935 29.1193 18.7637 29.4687 18.8686H32.8942C33.3839 19.3583 33.3839 19.3583 34.3625 19.848C35.8308 20.3377 35.8308 20.3377 36.8094 20.8274C37.2783 21.3257 37.7563 21.8155 38.243 22.2965C38.5568 22.436 38.8723 22.6111 39.2216 22.7862L40.6891 24.2552C41.0037 24.3254 41.3184 24.3948 41.6677 24.4997V25.4791H42.6463V26.4585C43.6249 26.7037 43.6249 26.7037 43.8694 26.9482C44.8488 28.907 45.3377 29.3967 45.8266 30.3753L46.3163 30.865V33.7684L45.0924 34.9923L42.1582 34.9931ZM125.28 34.5034C124.951 34.4346 124.624 34.3527 124.302 34.2581C124.237 33.9392 124.155 33.6238 124.057 33.3134L123.567 32.8237C123.079 28.4173 123.079 28.4173 123.079 26.4585C124.057 24.4997 124.057 24.4997 124.302 24.2552C124.792 24.1851 125.28 24.1149 125.769 24.01V23.0306C126.083 22.9612 126.399 22.891 126.749 22.7862C127.237 22.2965 128.216 21.8068 128.706 21.3171C129.02 21.1767 129.334 21.0024 129.684 20.8274L135.067 15.4415C135.38 15.3713 135.697 15.3019 136.046 15.1962V14.2169C136.36 14.1475 136.674 14.0773 137.024 13.9724L139.471 11.5239C139.785 11.3843 140.1 11.2093 140.449 11.0342L141.917 9.56513H145.308C146.042 10.2993 146.042 10.2993 146.531 11.2787V17.6439C146.672 17.9586 146.845 18.274 147.021 18.6233V21.5615C146.707 22.1908 146.391 22.8555 146.042 23.5195C145.635 23.9283 145.227 24.3362 144.819 24.7434C143.841 25.2331 143.351 25.7228 142.371 26.2124C141.903 26.711 141.425 27.2008 140.939 27.6815C139.96 28.1712 139.471 28.6609 138.491 29.1506L137.024 30.6197L134.088 32.0888C133.598 32.5785 132.619 33.0682 132.131 33.5224C131.326 33.662 130.523 33.8371 129.683 34.0121C129.369 34.1517 129.055 34.3268 128.705 34.5018C127.587 34.5034 126.433 34.5034 125.28 34.5034V34.5034ZM69.0734 23.2774C67.1162 22.7877 67.1162 22.7877 66.1376 22.298C65.8923 22.0528 65.4034 21.0742 64.9137 20.5845C64.7741 19.7802 64.5991 18.9758 64.424 18.1368L63.9343 17.6471C63.7875 17.1524 63.6244 16.6627 63.4454 16.1788C62.9557 15.6891 62.466 14.7097 61.9771 14.22L60.5096 11.2818V7.36504C60.6492 7.05041 60.8242 6.73577 60.9985 6.38565C61.0687 5.58132 61.1389 4.77698 61.2438 3.93796C63.8302 4.00735 66.4514 4.07753 69.0734 4.1832C70.052 4.6729 70.052 4.6729 71.0306 4.91735C71.1 5.23199 71.1702 5.54662 71.2751 5.89674L71.7648 6.38644C72.2198 7.85553 72.2198 7.85553 72.7087 8.83413C72.849 9.63847 73.0233 10.4436 73.1984 11.2818C73.3379 11.5965 73.5122 11.9111 73.6873 12.2612C73.8276 13.7303 74.0019 15.1994 74.177 16.6677V20.5845C74.0374 20.8991 73.8623 21.2145 73.6873 21.5639L72.4642 22.7877C70.052 23.2774 70.052 23.2774 69.0734 23.2774V23.2774ZM103.294 21.8083C102.489 21.5631 101.686 21.3186 100.846 21.0734C100.778 20.7437 100.696 20.417 100.601 20.094L100.113 19.6043V14.7081C100.427 13.5892 100.741 12.4347 101.091 11.281C101.58 10.7913 101.58 10.7913 102.558 8.83335L104.026 7.36425C104.515 6.38486 105.005 5.89516 105.495 4.91656C105.74 4.67132 105.74 4.67132 107.172 4.42686C107.243 4.11223 107.312 3.79759 107.417 3.44747L109.62 1.24423C110.597 0.754533 110.597 0.754532 111.087 0.264836C112.381 0.194654 113.673 0.124471 115.002 0.0195923C115.072 0.334228 115.143 0.648865 115.248 0.998986L116.225 1.97838V5.40626C115.107 7.67968 113.954 9.9531 112.8 12.2604L112.31 12.7501C112.171 13.2398 111.996 13.7295 111.822 14.2192C111.332 14.7089 110.843 15.6883 110.353 16.178C110.214 16.4926 110.039 16.8073 109.865 17.1566L107.908 19.1154C107.837 19.43 107.767 19.7447 107.662 20.0948C107.349 20.165 107.032 20.2352 106.719 20.34C106.229 20.8297 105.251 21.3194 104.761 21.8091L103.294 21.8083V21.8083ZM5.87964 90.4219H149.499V91.4919H5.87964V90.4219ZM7.27539 99.428C7.27539 98.5196 7.41024 97.7571 7.68229 97.1412C7.88475 96.6884 8.16559 96.2749 8.51186 95.9197C8.83729 95.5777 9.22867 95.3051 9.66237 95.1185C10.2183 94.8812 10.857 94.766 11.5825 94.766C12.8955 94.766 13.9443 95.1729 14.7328 95.9875C15.5206 96.8005 15.9149 97.9345 15.9149 99.3839C15.9149 100.824 15.523 101.948 14.7407 102.763C13.9592 103.573 12.9144 103.98 11.607 103.98C10.2822 103.98 9.22866 103.576 8.44719 102.769C7.66573 101.959 7.27539 100.845 7.27539 99.428V99.428ZM9.12772 99.3681C9.12772 100.375 9.36193 101.141 9.82639 101.663C10.2932 102.183 10.8838 102.442 11.6014 102.442C12.3167 102.442 12.9057 102.185 13.3662 101.666C13.8244 101.15 14.0547 100.375 14.0547 99.3421C14.0547 98.3225 13.8307 97.5599 13.3844 97.0568C12.9365 96.5545 12.3411 96.3037 11.6014 96.3037C10.8586 96.3037 10.2617 96.5577 9.80746 97.0663C9.35562 97.5757 9.12772 98.3414 9.12772 99.3681V99.3681ZM17.3209 103.829V94.9174H20.2054C21.2984 94.9174 22.012 94.964 22.3432 95.0515C22.8526 95.1856 23.2824 95.475 23.627 95.9229C23.9708 96.3708 24.1435 96.9504 24.1435 97.6585C24.1435 98.205 24.0442 98.6655 23.8446 99.0369C23.6669 99.3869 23.4075 99.6891 23.0884 99.9177C22.8089 100.118 22.4923 100.261 22.1571 100.338C21.7281 100.422 21.106 100.467 20.2906 100.467H19.1188V103.828H17.3209V103.829V103.829ZM19.1188 96.4252V98.9525H20.1021C20.8111 98.9525 21.2858 98.9076 21.5247 98.8137C21.7636 98.7199 21.9497 98.5748 22.0869 98.3761C22.2218 98.1758 22.2904 97.9463 22.2904 97.6829C22.2904 97.358 22.195 97.0915 22.0041 96.8786C21.8154 96.6686 21.5605 96.5295 21.2818 96.4843C21.0665 96.4425 20.6352 96.4244 19.9878 96.4244H19.1188V96.4252V96.4252ZM25.6197 103.829V94.9174H32.2231V96.4252H27.4176V98.4013H31.8888V99.9012H27.4176V102.327H32.3934V103.828H25.6197V103.829ZM33.9233 103.829V94.9174H37.7099C38.6617 94.9174 39.3525 94.9979 39.7838 95.158C40.2152 95.318 40.5614 95.6011 40.8208 96.0112C41.0795 96.422 41.208 96.8888 41.208 97.4156C41.208 98.0843 41.0108 98.6371 40.6189 99.0732C40.2262 99.5077 39.638 99.7829 38.8565 99.8956C39.246 100.124 39.5678 100.373 39.8209 100.644C40.074 100.917 40.4139 101.397 40.8429 102.09L41.9319 103.829H39.7807L38.4811 101.888C38.019 101.195 37.7036 100.761 37.5333 100.579C37.3848 100.414 37.1991 100.287 36.9915 100.208C36.8007 100.142 36.5003 100.108 36.0855 100.108H35.7228V103.829H33.9233V103.829ZM35.7235 98.6844H37.0531C37.9157 98.6844 38.4551 98.6489 38.6704 98.5764C38.8757 98.51 39.053 98.3771 39.1743 98.1987C39.2949 98.0196 39.3572 97.7981 39.3572 97.5299C39.3572 97.2295 39.276 96.989 39.1167 96.8045C38.9574 96.6199 38.7311 96.5025 38.4386 96.4536C38.2935 96.4354 37.8558 96.4244 37.1256 96.4244H35.7235V98.6844V98.6844ZM50.9341 103.829H48.9761L48.1986 101.804H44.6374L43.9033 103.829H41.9958L45.4646 94.9174H47.3667L50.9341 103.829V103.829ZM47.6221 100.303L46.3944 96.9969L45.1918 100.303H47.6221ZM52.9662 103.829V96.4252H50.3238V94.9174H57.4019V96.4252H54.7657V103.829H52.9662ZM57.9768 99.428C57.9768 98.5196 58.1116 97.7571 58.3836 97.1412C58.5858 96.6882 58.8667 96.2747 59.2132 95.9197C59.5386 95.5777 59.93 95.3051 60.3637 95.1185C60.9197 94.8812 61.5584 94.766 62.2839 94.766C63.5968 94.766 64.6464 95.1729 65.4342 95.9875C66.2227 96.8005 66.6162 97.9345 66.6162 99.3839C66.6162 100.824 66.2243 101.948 65.4428 102.763C64.6606 103.573 63.6158 103.98 62.3091 103.98C60.9843 103.98 59.9308 103.576 59.1486 102.769C58.3663 101.959 57.9768 100.845 57.9768 99.428V99.428ZM59.8291 99.3681C59.8291 100.375 60.0633 101.141 60.5277 101.663C60.9946 102.183 61.5852 102.442 62.3028 102.442C63.0188 102.442 63.6071 102.185 64.0676 101.666C64.5258 101.15 64.756 100.375 64.756 99.3421C64.756 98.3225 64.5321 97.5599 64.0857 97.0568C63.6378 96.5545 63.0425 96.3037 62.302 96.3037C61.56 96.3037 60.963 96.5577 60.5088 97.0663C60.057 97.5757 59.8291 98.3414 59.8291 99.3681V99.3681ZM68.0262 103.829V94.9174H71.8129C72.7646 94.9174 73.4554 94.9979 73.8868 95.158C74.3181 95.318 74.6643 95.6011 74.9237 96.0112C75.1832 96.422 75.3117 96.8888 75.3117 97.4156C75.3117 98.0843 75.1146 98.6371 74.7226 99.0732C74.3307 99.5077 73.7417 99.7829 72.9602 99.8956C73.3498 100.124 73.6715 100.373 73.9246 100.644C74.1777 100.917 74.5176 101.397 74.9474 102.09L76.0356 103.829H73.8852L72.5856 101.888C72.1228 101.195 71.8081 100.761 71.6378 100.579C71.4893 100.414 71.3036 100.287 71.096 100.208C70.9052 100.142 70.6048 100.108 70.19 100.108H69.8273V103.829H68.0262V103.829ZM69.8257 98.6844H71.1552C72.0179 98.6844 72.5565 98.6489 72.7725 98.5764C72.9862 98.5038 73.1534 98.3777 73.2764 98.1987C73.3971 98.0196 73.4586 97.7981 73.4586 97.5299C73.4586 97.2295 73.3774 96.989 73.2181 96.8045C73.058 96.6199 72.8325 96.5025 72.5399 96.4536C72.3948 96.4354 71.9572 96.4244 71.2277 96.4244H69.8257V98.6844V98.6844ZM80.409 103.829V94.9174H82.2061V103.829H80.409ZM83.9401 103.829V94.9174H85.69L89.3355 100.869V94.9174H91.0064V103.829H89.2014L85.6111 98.0181V103.829H83.9401ZM94.909 103.829V96.4252H92.2674V94.9174H99.3463V96.4252H96.7093V103.829H94.909V103.829ZM100.509 103.829V94.9174H107.112V96.4252H102.307V98.4013H106.778V99.9012H102.307V102.327H107.282V103.828H100.509V103.829V103.829ZM108.812 103.829V94.9174H112.6C113.551 94.9174 114.241 94.9979 114.673 95.158C115.104 95.318 115.45 95.6011 115.709 96.0112C115.969 96.422 116.097 96.8888 116.097 97.4156C116.097 98.0843 115.9 98.6371 115.509 99.0732C115.116 99.5077 114.528 99.7829 113.745 99.8956C114.135 100.124 114.457 100.373 114.71 100.644C114.964 100.917 115.303 101.397 115.733 102.09L116.822 103.829H114.671L113.372 101.888C112.908 101.195 112.594 100.761 112.423 100.579C112.275 100.414 112.089 100.287 111.882 100.208C111.691 100.142 111.391 100.108 110.975 100.108H110.613V103.829H108.812V103.829ZM110.612 98.6844H111.942C112.805 98.6844 113.343 98.6489 113.559 98.5764C113.765 98.51 113.942 98.3771 114.063 98.1987C114.183 98.0196 114.246 97.7981 114.246 97.5299C114.246 97.2295 114.164 96.989 114.006 96.8045C113.846 96.6199 113.619 96.5025 113.327 96.4536C113.182 96.4354 112.745 96.4244 112.015 96.4244H110.613V98.6844H110.612V98.6844ZM117.808 103.829V94.9174H119.558L123.203 100.869V94.9174H124.876V103.829H123.069L119.479 98.0181V103.829H117.808ZM126.776 103.829V94.9174H133.378V96.4252H128.573V98.4013H133.044V99.9012H128.573V102.327H133.549V103.828H126.776V103.829ZM137.077 103.829V96.4252H134.436V94.9174H141.513V96.4252H138.878V103.829H137.077ZM142.665 94.9174H144.462V99.7427C144.462 100.51 144.485 101.008 144.528 101.234C144.606 101.599 144.79 101.891 145.078 102.111C145.368 102.333 145.763 102.443 146.266 102.443C146.777 102.443 147.162 102.339 147.421 102.13C147.681 101.922 147.837 101.665 147.888 101.362C147.941 101.056 147.967 100.553 147.967 99.8475V94.9174H149.765V99.5983C149.765 100.668 149.717 101.425 149.619 101.867C149.536 102.279 149.351 102.663 149.082 102.985C148.821 103.287 148.471 103.53 148.035 103.711C147.598 103.891 147.025 103.98 146.319 103.98C145.469 103.98 144.825 103.883 144.385 103.686C143.946 103.489 143.6 103.234 143.344 102.921C143.103 102.634 142.93 102.297 142.84 101.933C142.722 101.422 142.664 100.668 142.664 99.6709V94.9174H142.665V94.9174ZM10.8484 66.3195V83.1797H17.1647V66.3195H25.242V62.2552H2.73328V66.3195H10.8484V66.3195ZM35.9112 83.753C41.9595 83.753 46.5536 81.1468 46.5536 75.5575C46.5536 70.0265 41.9981 67.4266 35.9112 67.4266C30.4757 67.4266 25.2696 69.5786 25.2696 75.5575C25.2696 81.1468 29.8637 83.753 35.9112 83.753ZM35.9112 80.6981C31.7768 80.6981 31.3178 77.4989 31.3178 75.5567C31.3178 70.7126 34.6101 70.4744 35.9112 70.4744C37.3661 70.4744 40.5054 70.7133 40.5054 75.5567C40.5054 77.4705 40.1221 80.6981 35.9112 80.6981ZM52.7439 67.9936V88.713H58.5626V81.6239C60.5151 83.6032 63.6922 83.7522 64.4579 83.7522C70.0086 83.7522 73.4152 80.4284 73.4152 75.6158C73.4152 70.5951 70.0473 67.4266 64.5723 67.4266C63.1947 67.4266 60.5143 67.6348 58.2945 69.8167H58.1802L58.2181 67.9936H52.7439V67.9936ZM58.2945 75.5575C58.2945 71.3126 61.0892 70.4752 62.8493 70.4752C64.5723 70.4752 67.3669 71.3126 67.3669 75.5575C67.3669 78.1865 66.1802 80.6989 62.8493 80.6989C59.4427 80.6981 58.2945 78.1865 58.2945 75.5575ZM86.5353 70.0864L97.1012 83.1797H103.531V62.2552H97.2148V75.257H97.1012L86.5353 62.2552H80.1424V83.1797H86.4588V70.0864H86.5353V70.0864ZM124.997 78.7858C124.499 80.1303 122.737 80.6989 121.054 80.6989C117.263 80.6989 116.421 78.1574 116.382 76.693H131.313L131.274 75.8563C131.197 74.0016 130.699 67.4274 121.245 67.4274C114.89 67.4274 110.334 70.297 110.334 75.5583C110.334 83.3035 118.22 83.7538 120.786 83.7538C124.383 83.7538 129.36 83.0898 130.89 78.7866H124.997V78.7858V78.7858ZM116.382 74.1515C116.497 72.5972 117.722 70.4752 121.167 70.4752C122.584 70.4752 125.187 70.8939 125.264 74.1515H116.382ZM135.665 71.043H139.188V79.1738C139.188 82.2815 140.489 83.6032 144.394 83.6032C145.657 83.6032 147.648 83.4226 149.141 83.1797V80.1303C148.544 80.3056 147.925 80.3964 147.303 80.4C144.816 80.4 145.007 79.2637 145.007 78.3379V71.0437H149.141V67.9944H145.007V63.4507H139.188V67.9944H135.666V71.043H135.665V71.043Z"/>
</mask>
<path fill-rule="evenodd" clip-rule="evenodd" d="M28.4909 54.8238C28.5602 54.3341 28.6304 53.8444 28.7353 53.3547L30.4481 51.6412C31.4267 51.1515 31.4267 51.1515 31.9156 50.6618C32.2448 50.593 32.5713 50.5114 32.8942 50.4173V49.4379H33.8728V48.4586C34.1874 48.3884 34.5021 48.319 34.8514 48.2133C35.3403 47.7236 35.3403 47.7236 37.2636 46.745L38.7311 45.2759C39.7097 44.7862 40.1994 44.2965 41.178 43.8076L42.1566 42.8282C44.1138 41.8488 44.6035 41.3599 45.5821 40.8702L46.0718 40.3805C49.3231 38.7719 52.5735 37.1277 55.8595 35.4844C58.7961 34.505 62.2208 33.0714 63.6891 32.5817C64.0037 32.4421 64.3184 32.267 64.6677 32.092C68.0585 31.2868 71.484 30.4833 74.9095 29.6443C81.7613 28.6649 81.7613 28.6649 86.1647 28.1752H99.8675C103.783 29.1546 103.783 29.1546 105.25 29.6443C106.228 30.134 107.662 30.6237 108.64 31.1126C109.13 31.2529 109.62 31.4272 110.109 31.6023C110.597 32.092 110.597 32.092 111.577 32.5817C115.002 33.5264 115.98 34.0153 116.96 34.2605C117.029 34.5751 117.1 34.8898 117.205 35.2399L117.693 35.7296C118.183 37.1987 118.183 37.1987 119.162 39.1575L121.608 41.6052C122.098 42.5846 122.588 43.0735 123.077 44.0529L123.565 44.5426C124.055 46.0109 124.055 46.0109 124.545 46.9903V51.8856C124.055 53.3547 123.565 54.3341 123.32 54.5794C120.384 54.5794 120.384 54.5794 117.937 54.3341C117.868 54.0187 117.799 53.7041 117.692 53.3547L116.225 51.8856C116.084 51.571 115.911 51.2564 115.735 50.9063C115.328 50.4977 114.92 50.0898 114.512 49.6824C114.198 49.5428 113.883 49.3678 113.534 49.1927L112.067 47.7236C110.773 47.0943 109.479 46.4296 108.151 45.7648C107.662 45.2751 107.662 45.2751 106.718 44.7854C106.062 44.6348 105.41 44.4716 104.761 44.2957L104.271 43.806C103.127 43.6573 101.985 43.4941 100.845 43.3163C100.531 43.1768 100.217 43.0017 99.8675 42.8267C98.0838 42.6871 96.3024 42.512 94.4848 42.337H82.7392C81.621 42.4765 80.4673 42.6516 79.3137 42.8267H71.029C68.5821 43.3164 64.178 43.806 62.2208 44.2957C59.2842 44.7854 57.327 45.2751 54.3904 45.7648C53.4118 46.2545 45.5821 48.703 44.6035 49.1927C43.1352 49.6824 42.1566 50.1721 40.6883 50.661C39.7097 51.1507 39.7097 51.1507 38.2414 51.6404L37.7517 52.1301C36.3189 52.6198 36.3189 52.6198 33.3823 54.0889C32.753 54.2293 32.0891 54.4027 31.4251 54.5786C30.4489 54.648 29.4695 54.7189 28.4909 54.8238V54.8238ZM42.1582 34.9931C41.1768 34.8471 40.198 34.6839 39.2224 34.5034C38.7327 34.0137 38.7327 34.0137 37.7541 33.524L35.3419 31.1102C34.8475 30.963 34.3581 30.7997 33.8744 30.6205L33.3847 30.1308C32.895 29.9912 32.4061 29.8162 31.9164 29.6411L31.4267 29.1514C31.112 29.0812 30.7974 29.0111 30.4481 28.9062C30.3779 28.5915 30.3077 28.2769 30.2028 27.9268C29.9579 27.682 29.7132 27.437 29.4687 27.1918C29.1394 27.123 28.8129 27.0412 28.4901 26.9466C28.4199 26.632 28.3497 26.3173 28.2448 25.9672C27.7551 25.4775 27.7551 25.4775 27.2662 24.4981V21.5607L28.2448 20.5813C28.315 19.9521 28.3844 19.2873 28.4901 18.6233C28.8039 18.6935 29.1193 18.7637 29.4687 18.8686H32.8942C33.3839 19.3583 33.3839 19.3583 34.3625 19.848C35.8308 20.3377 35.8308 20.3377 36.8094 20.8274C37.2783 21.3257 37.7563 21.8155 38.243 22.2965C38.5568 22.436 38.8723 22.6111 39.2216 22.7862L40.6891 24.2552C41.0037 24.3254 41.3184 24.3948 41.6677 24.4997V25.4791H42.6463V26.4585C43.6249 26.7037 43.6249 26.7037 43.8694 26.9482C44.8488 28.907 45.3377 29.3967 45.8266 30.3753L46.3163 30.865V33.7684L45.0924 34.9923L42.1582 34.9931ZM125.28 34.5034C124.951 34.4346 124.624 34.3527 124.302 34.2581C124.237 33.9392 124.155 33.6238 124.057 33.3134L123.567 32.8237C123.079 28.4173 123.079 28.4173 123.079 26.4585C124.057 24.4997 124.057 24.4997 124.302 24.2552C124.792 24.1851 125.28 24.1149 125.769 24.01V23.0306C126.083 22.9612 126.399 22.891 126.749 22.7862C127.237 22.2965 128.216 21.8068 128.706 21.3171C129.02 21.1767 129.334 21.0024 129.684 20.8274L135.067 15.4415C135.38 15.3713 135.697 15.3019 136.046 15.1962V14.2169C136.36 14.1475 136.674 14.0773 137.024 13.9724L139.471 11.5239C139.785 11.3843 140.1 11.2093 140.449 11.0342L141.917 9.56513H145.308C146.042 10.2993 146.042 10.2993 146.531 11.2787V17.6439C146.672 17.9586 146.845 18.274 147.021 18.6233V21.5615C146.707 22.1908 146.391 22.8555 146.042 23.5195C145.635 23.9283 145.227 24.3362 144.819 24.7434C143.841 25.2331 143.351 25.7228 142.371 26.2124C141.903 26.711 141.425 27.2008 140.939 27.6815C139.96 28.1712 139.471 28.6609 138.491 29.1506L137.024 30.6197L134.088 32.0888C133.598 32.5785 132.619 33.0682 132.131 33.5224C131.326 33.662 130.523 33.8371 129.683 34.0121C129.369 34.1517 129.055 34.3268 128.705 34.5018C127.587 34.5034 126.433 34.5034 125.28 34.5034V34.5034ZM69.0734 23.2774C67.1162 22.7877 67.1162 22.7877 66.1376 22.298C65.8923 22.0528 65.4034 21.0742 64.9137 20.5845C64.7741 19.7802 64.5991 18.9758 64.424 18.1368L63.9343 17.6471C63.7875 17.1524 63.6244 16.6627 63.4454 16.1788C62.9557 15.6891 62.466 14.7097 61.9771 14.22L60.5096 11.2818V7.36504C60.6492 7.05041 60.8242 6.73577 60.9985 6.38565C61.0687 5.58132 61.1389 4.77698 61.2438 3.93796C63.8302 4.00735 66.4514 4.07753 69.0734 4.1832C70.052 4.6729 70.052 4.6729 71.0306 4.91735C71.1 5.23199 71.1702 5.54662 71.2751 5.89674L71.7648 6.38644C72.2198 7.85553 72.2198 7.85553 72.7087 8.83413C72.849 9.63847 73.0233 10.4436 73.1984 11.2818C73.3379 11.5965 73.5122 11.9111 73.6873 12.2612C73.8276 13.7303 74.0019 15.1994 74.177 16.6677V20.5845C74.0374 20.8991 73.8623 21.2145 73.6873 21.5639L72.4642 22.7877C70.052 23.2774 70.052 23.2774 69.0734 23.2774V23.2774ZM103.294 21.8083C102.489 21.5631 101.686 21.3186 100.846 21.0734C100.778 20.7437 100.696 20.417 100.601 20.094L100.113 19.6043V14.7081C100.427 13.5892 100.741 12.4347 101.091 11.281C101.58 10.7913 101.58 10.7913 102.558 8.83335L104.026 7.36425C104.515 6.38486 105.005 5.89516 105.495 4.91656C105.74 4.67132 105.74 4.67132 107.172 4.42686C107.243 4.11223 107.312 3.79759 107.417 3.44747L109.62 1.24423C110.597 0.754533 110.597 0.754532 111.087 0.264836C112.381 0.194654 113.673 0.124471 115.002 0.0195923C115.072 0.334228 115.143 0.648865 115.248 0.998986L116.225 1.97838V5.40626C115.107 7.67968 113.954 9.9531 112.8 12.2604L112.31 12.7501C112.171 13.2398 111.996 13.7295 111.822 14.2192C111.332 14.7089 110.843 15.6883 110.353 16.178C110.214 16.4926 110.039 16.8073 109.865 17.1566L107.908 19.1154C107.837 19.43 107.767 19.7447 107.662 20.0948C107.349 20.165 107.032 20.2352 106.719 20.34C106.229 20.8297 105.251 21.3194 104.761 21.8091L103.294 21.8083V21.8083ZM5.87964 90.4219H149.499V91.4919H5.87964V90.4219ZM7.27539 99.428C7.27539 98.5196 7.41024 97.7571 7.68229 97.1412C7.88475 96.6884 8.16559 96.2749 8.51186 95.9197C8.83729 95.5777 9.22867 95.3051 9.66237 95.1185C10.2183 94.8812 10.857 94.766 11.5825 94.766C12.8955 94.766 13.9443 95.1729 14.7328 95.9875C15.5206 96.8005 15.9149 97.9345 15.9149 99.3839C15.9149 100.824 15.523 101.948 14.7407 102.763C13.9592 103.573 12.9144 103.98 11.607 103.98C10.2822 103.98 9.22866 103.576 8.44719 102.769C7.66573 101.959 7.27539 100.845 7.27539 99.428V99.428ZM9.12772 99.3681C9.12772 100.375 9.36193 101.141 9.82639 101.663C10.2932 102.183 10.8838 102.442 11.6014 102.442C12.3167 102.442 12.9057 102.185 13.3662 101.666C13.8244 101.15 14.0547 100.375 14.0547 99.3421C14.0547 98.3225 13.8307 97.5599 13.3844 97.0568C12.9365 96.5545 12.3411 96.3037 11.6014 96.3037C10.8586 96.3037 10.2617 96.5577 9.80746 97.0663C9.35562 97.5757 9.12772 98.3414 9.12772 99.3681V99.3681ZM17.3209 103.829V94.9174H20.2054C21.2984 94.9174 22.012 94.964 22.3432 95.0515C22.8526 95.1856 23.2824 95.475 23.627 95.9229C23.9708 96.3708 24.1435 96.9504 24.1435 97.6585C24.1435 98.205 24.0442 98.6655 23.8446 99.0369C23.6669 99.3869 23.4075 99.6891 23.0884 99.9177C22.8089 100.118 22.4923 100.261 22.1571 100.338C21.7281 100.422 21.106 100.467 20.2906 100.467H19.1188V103.828H17.3209V103.829V103.829ZM19.1188 96.4252V98.9525H20.1021C20.8111 98.9525 21.2858 98.9076 21.5247 98.8137C21.7636 98.7199 21.9497 98.5748 22.0869 98.3761C22.2218 98.1758 22.2904 97.9463 22.2904 97.6829C22.2904 97.358 22.195 97.0915 22.0041 96.8786C21.8154 96.6686 21.5605 96.5295 21.2818 96.4843C21.0665 96.4425 20.6352 96.4244 19.9878 96.4244H19.1188V96.4252V96.4252ZM25.6197 103.829V94.9174H32.2231V96.4252H27.4176V98.4013H31.8888V99.9012H27.4176V102.327H32.3934V103.828H25.6197V103.829ZM33.9233 103.829V94.9174H37.7099C38.6617 94.9174 39.3525 94.9979 39.7838 95.158C40.2152 95.318 40.5614 95.6011 40.8208 96.0112C41.0795 96.422 41.208 96.8888 41.208 97.4156C41.208 98.0843 41.0108 98.6371 40.6189 99.0732C40.2262 99.5077 39.638 99.7829 38.8565 99.8956C39.246 100.124 39.5678 100.373 39.8209 100.644C40.074 100.917 40.4139 101.397 40.8429 102.09L41.9319 103.829H39.7807L38.4811 101.888C38.019 101.195 37.7036 100.761 37.5333 100.579C37.3848 100.414 37.1991 100.287 36.9915 100.208C36.8007 100.142 36.5003 100.108 36.0855 100.108H35.7228V103.829H33.9233V103.829ZM35.7235 98.6844H37.0531C37.9157 98.6844 38.4551 98.6489 38.6704 98.5764C38.8757 98.51 39.053 98.3771 39.1743 98.1987C39.2949 98.0196 39.3572 97.7981 39.3572 97.5299C39.3572 97.2295 39.276 96.989 39.1167 96.8045C38.9574 96.6199 38.7311 96.5025 38.4386 96.4536C38.2935 96.4354 37.8558 96.4244 37.1256 96.4244H35.7235V98.6844V98.6844ZM50.9341 103.829H48.9761L48.1986 101.804H44.6374L43.9033 103.829H41.9958L45.4646 94.9174H47.3667L50.9341 103.829V103.829ZM47.6221 100.303L46.3944 96.9969L45.1918 100.303H47.6221ZM52.9662 103.829V96.4252H50.3238V94.9174H57.4019V96.4252H54.7657V103.829H52.9662ZM57.9768 99.428C57.9768 98.5196 58.1116 97.7571 58.3836 97.1412C58.5858 96.6882 58.8667 96.2747 59.2132 95.9197C59.5386 95.5777 59.93 95.3051 60.3637 95.1185C60.9197 94.8812 61.5584 94.766 62.2839 94.766C63.5968 94.766 64.6464 95.1729 65.4342 95.9875C66.2227 96.8005 66.6162 97.9345 66.6162 99.3839C66.6162 100.824 66.2243 101.948 65.4428 102.763C64.6606 103.573 63.6158 103.98 62.3091 103.98C60.9843 103.98 59.9308 103.576 59.1486 102.769C58.3663 101.959 57.9768 100.845 57.9768 99.428V99.428ZM59.8291 99.3681C59.8291 100.375 60.0633 101.141 60.5277 101.663C60.9946 102.183 61.5852 102.442 62.3028 102.442C63.0188 102.442 63.6071 102.185 64.0676 101.666C64.5258 101.15 64.756 100.375 64.756 99.3421C64.756 98.3225 64.5321 97.5599 64.0857 97.0568C63.6378 96.5545 63.0425 96.3037 62.302 96.3037C61.56 96.3037 60.963 96.5577 60.5088 97.0663C60.057 97.5757 59.8291 98.3414 59.8291 99.3681V99.3681ZM68.0262 103.829V94.9174H71.8129C72.7646 94.9174 73.4554 94.9979 73.8868 95.158C74.3181 95.318 74.6643 95.6011 74.9237 96.0112C75.1832 96.422 75.3117 96.8888 75.3117 97.4156C75.3117 98.0843 75.1146 98.6371 74.7226 99.0732C74.3307 99.5077 73.7417 99.7829 72.9602 99.8956C73.3498 100.124 73.6715 100.373 73.9246 100.644C74.1777 100.917 74.5176 101.397 74.9474 102.09L76.0356 103.829H73.8852L72.5856 101.888C72.1228 101.195 71.8081 100.761 71.6378 100.579C71.4893 100.414 71.3036 100.287 71.096 100.208C70.9052 100.142 70.6048 100.108 70.19 100.108H69.8273V103.829H68.0262V103.829ZM69.8257 98.6844H71.1552C72.0179 98.6844 72.5565 98.6489 72.7725 98.5764C72.9862 98.5038 73.1534 98.3777 73.2764 98.1987C73.3971 98.0196 73.4586 97.7981 73.4586 97.5299C73.4586 97.2295 73.3774 96.989 73.2181 96.8045C73.058 96.6199 72.8325 96.5025 72.5399 96.4536C72.3948 96.4354 71.9572 96.4244 71.2277 96.4244H69.8257V98.6844V98.6844ZM80.409 103.829V94.9174H82.2061V103.829H80.409ZM83.9401 103.829V94.9174H85.69L89.3355 100.869V94.9174H91.0064V103.829H89.2014L85.6111 98.0181V103.829H83.9401ZM94.909 103.829V96.4252H92.2674V94.9174H99.3463V96.4252H96.7093V103.829H94.909V103.829ZM100.509 103.829V94.9174H107.112V96.4252H102.307V98.4013H106.778V99.9012H102.307V102.327H107.282V103.828H100.509V103.829V103.829ZM108.812 103.829V94.9174H112.6C113.551 94.9174 114.241 94.9979 114.673 95.158C115.104 95.318 115.45 95.6011 115.709 96.0112C115.969 96.422 116.097 96.8888 116.097 97.4156C116.097 98.0843 115.9 98.6371 115.509 99.0732C115.116 99.5077 114.528 99.7829 113.745 99.8956C114.135 100.124 114.457 100.373 114.71 100.644C114.964 100.917 115.303 101.397 115.733 102.09L116.822 103.829H114.671L113.372 101.888C112.908 101.195 112.594 100.761 112.423 100.579C112.275 100.414 112.089 100.287 111.882 100.208C111.691 100.142 111.391 100.108 110.975 100.108H110.613V103.829H108.812V103.829ZM110.612 98.6844H111.942C112.805 98.6844 113.343 98.6489 113.559 98.5764C113.765 98.51 113.942 98.3771 114.063 98.1987C114.183 98.0196 114.246 97.7981 114.246 97.5299C114.246 97.2295 114.164 96.989 114.006 96.8045C113.846 96.6199 113.619 96.5025 113.327 96.4536C113.182 96.4354 112.745 96.4244 112.015 96.4244H110.613V98.6844H110.612V98.6844ZM117.808 103.829V94.9174H119.558L123.203 100.869V94.9174H124.876V103.829H123.069L119.479 98.0181V103.829H117.808ZM126.776 103.829V94.9174H133.378V96.4252H128.573V98.4013H133.044V99.9012H128.573V102.327H133.549V103.828H126.776V103.829ZM137.077 103.829V96.4252H134.436V94.9174H141.513V96.4252H138.878V103.829H137.077ZM142.665 94.9174H144.462V99.7427C144.462 100.51 144.485 101.008 144.528 101.234C144.606 101.599 144.79 101.891 145.078 102.111C145.368 102.333 145.763 102.443 146.266 102.443C146.777 102.443 147.162 102.339 147.421 102.13C147.681 101.922 147.837 101.665 147.888 101.362C147.941 101.056 147.967 100.553 147.967 99.8475V94.9174H149.765V99.5983C149.765 100.668 149.717 101.425 149.619 101.867C149.536 102.279 149.351 102.663 149.082 102.985C148.821 103.287 148.471 103.53 148.035 103.711C147.598 103.891 147.025 103.98 146.319 103.98C145.469 103.98 144.825 103.883 144.385 103.686C143.946 103.489 143.6 103.234 143.344 102.921C143.103 102.634 142.93 102.297 142.84 101.933C142.722 101.422 142.664 100.668 142.664 99.6709V94.9174H142.665V94.9174ZM10.8484 66.3195V83.1797H17.1647V66.3195H25.242V62.2552H2.73328V66.3195H10.8484V66.3195ZM35.9112 83.753C41.9595 83.753 46.5536 81.1468 46.5536 75.5575C46.5536 70.0265 41.9981 67.4266 35.9112 67.4266C30.4757 67.4266 25.2696 69.5786 25.2696 75.5575C25.2696 81.1468 29.8637 83.753 35.9112 83.753ZM35.9112 80.6981C31.7768 80.6981 31.3178 77.4989 31.3178 75.5567C31.3178 70.7126 34.6101 70.4744 35.9112 70.4744C37.3661 70.4744 40.5054 70.7133 40.5054 75.5567C40.5054 77.4705 40.1221 80.6981 35.9112 80.6981ZM52.7439 67.9936V88.713H58.5626V81.6239C60.5151 83.6032 63.6922 83.7522 64.4579 83.7522C70.0086 83.7522 73.4152 80.4284 73.4152 75.6158C73.4152 70.5951 70.0473 67.4266 64.5723 67.4266C63.1947 67.4266 60.5143 67.6348 58.2945 69.8167H58.1802L58.2181 67.9936H52.7439V67.9936ZM58.2945 75.5575C58.2945 71.3126 61.0892 70.4752 62.8493 70.4752C64.5723 70.4752 67.3669 71.3126 67.3669 75.5575C67.3669 78.1865 66.1802 80.6989 62.8493 80.6989C59.4427 80.6981 58.2945 78.1865 58.2945 75.5575ZM86.5353 70.0864L97.1012 83.1797H103.531V62.2552H97.2148V75.257H97.1012L86.5353 62.2552H80.1424V83.1797H86.4588V70.0864H86.5353V70.0864ZM124.997 78.7858C124.499 80.1303 122.737 80.6989 121.054 80.6989C117.263 80.6989 116.421 78.1574 116.382 76.693H131.313L131.274 75.8563C131.197 74.0016 130.699 67.4274 121.245 67.4274C114.89 67.4274 110.334 70.297 110.334 75.5583C110.334 83.3035 118.22 83.7538 120.786 83.7538C124.383 83.7538 129.36 83.0898 130.89 78.7866H124.997V78.7858V78.7858ZM116.382 74.1515C116.497 72.5972 117.722 70.4752 121.167 70.4752C122.584 70.4752 125.187 70.8939 125.264 74.1515H116.382ZM135.665 71.043H139.188V79.1738C139.188 82.2815 140.489 83.6032 144.394 83.6032C145.657 83.6032 147.648 83.4226 149.141 83.1797V80.1303C148.544 80.3056 147.925 80.3964 147.303 80.4C144.816 80.4 145.007 79.2637 145.007 78.3379V71.0437H149.141V67.9944H145.007V63.4507H139.188V67.9944H135.666V71.043H135.665V71.043Z" fill="black"/>
<path fill-rule="evenodd" clip-rule="evenodd" d="M28.4909 54.8238C28.5602 54.3341 28.6304 53.8444 28.7353 53.3547L30.4481 51.6412C31.4267 51.1515 31.4267 51.1515 31.9156 50.6618C32.2448 50.593 32.5713 50.5114 32.8942 50.4173V49.4379H33.8728V48.4586C34.1874 48.3884 34.5021 48.319 34.8514 48.2133C35.3403 47.7236 35.3403 47.7236 37.2636 46.745L38.7311 45.2759C39.7097 44.7862 40.1994 44.2965 41.178 43.8076L42.1566 42.8282C44.1138 41.8488 44.6035 41.3599 45.5821 40.8702L46.0718 40.3805C49.3231 38.7719 52.5735 37.1277 55.8595 35.4844C58.7961 34.505 62.2208 33.0714 63.6891 32.5817C64.0037 32.4421 64.3184 32.267 64.6677 32.092C68.0585 31.2868 71.484 30.4833 74.9095 29.6443C81.7613 28.6649 81.7613 28.6649 86.1647 28.1752H99.8675C103.783 29.1546 103.783 29.1546 105.25 29.6443C106.228 30.134 107.662 30.6237 108.64 31.1126C109.13 31.2529 109.62 31.4272 110.109 31.6023C110.597 32.092 110.597 32.092 111.577 32.5817C115.002 33.5264 115.98 34.0153 116.96 34.2605C117.029 34.5751 117.1 34.8898 117.205 35.2399L117.693 35.7296C118.183 37.1987 118.183 37.1987 119.162 39.1575L121.608 41.6052C122.098 42.5846 122.588 43.0735 123.077 44.0529L123.565 44.5426C124.055 46.0109 124.055 46.0109 124.545 46.9903V51.8856C124.055 53.3547 123.565 54.3341 123.32 54.5794C120.384 54.5794 120.384 54.5794 117.937 54.3341C117.868 54.0187 117.799 53.7041 117.692 53.3547L116.225 51.8856C116.084 51.571 115.911 51.2564 115.735 50.9063C115.328 50.4977 114.92 50.0898 114.512 49.6824C114.198 49.5428 113.883 49.3678 113.534 49.1927L112.067 47.7236C110.773 47.0943 109.479 46.4296 108.151 45.7648C107.662 45.2751 107.662 45.2751 106.718 44.7854C106.062 44.6348 105.41 44.4716 104.761 44.2957L104.271 43.806C103.127 43.6573 101.985 43.4941 100.845 43.3163C100.531 43.1768 100.217 43.0017 99.8675 42.8267C98.0838 42.6871 96.3024 42.512 94.4848 42.337H82.7392C81.621 42.4765 80.4673 42.6516 79.3137 42.8267H71.029C68.5821 43.3164 64.178 43.806 62.2208 44.2957C59.2842 44.7854 57.327 45.2751 54.3904 45.7648C53.4118 46.2545 45.5821 48.703 44.6035 49.1927C43.1352 49.6824 42.1566 50.1721 40.6883 50.661C39.7097 51.1507 39.7097 51.1507 38.2414 51.6404L37.7517 52.1301C36.3189 52.6198 36.3189 52.6198 33.3823 54.0889C32.753 54.2293 32.0891 54.4027 31.4251 54.5786C30.4489 54.648 29.4695 54.7189 28.4909 54.8238V54.8238ZM42.1582 34.9931C41.1768 34.8471 40.198 34.6839 39.2224 34.5034C38.7327 34.0137 38.7327 34.0137 37.7541 33.524L35.3419 31.1102C34.8475 30.963 34.3581 30.7997 33.8744 30.6205L33.3847 30.1308C32.895 29.9912 32.4061 29.8162 31.9164 29.6411L31.4267 29.1514C31.112 29.0812 30.7974 29.0111 30.4481 28.9062C30.3779 28.5915 30.3077 28.2769 30.2028 27.9268C29.9579 27.682 29.7132 27.437 29.4687 27.1918C29.1394 27.123 28.8129 27.0412 28.4901 26.9466C28.4199 26.632 28.3497 26.3173 28.2448 25.9672C27.7551 25.4775 27.7551 25.4775 27.2662 24.4981V21.5607L28.2448 20.5813C28.315 19.9521 28.3844 19.2873 28.4901 18.6233C28.8039 18.6935 29.1193 18.7637 29.4687 18.8686H32.8942C33.3839 19.3583 33.3839 19.3583 34.3625 19.848C35.8308 20.3377 35.8308 20.3377 36.8094 20.8274C37.2783 21.3257 37.7563 21.8155 38.243 22.2965C38.5568 22.436 38.8723 22.6111 39.2216 22.7862L40.6891 24.2552C41.0037 24.3254 41.3184 24.3948 41.6677 24.4997V25.4791H42.6463V26.4585C43.6249 26.7037 43.6249 26.7037 43.8694 26.9482C44.8488 28.907 45.3377 29.3967 45.8266 30.3753L46.3163 30.865V33.7684L45.0924 34.9923L42.1582 34.9931ZM125.28 34.5034C124.951 34.4346 124.624 34.3527 124.302 34.2581C124.237 33.9392 124.155 33.6238 124.057 33.3134L123.567 32.8237C123.079 28.4173 123.079 28.4173 123.079 26.4585C124.057 24.4997 124.057 24.4997 124.302 24.2552C124.792 24.1851 125.28 24.1149 125.769 24.01V23.0306C126.083 22.9612 126.399 22.891 126.749 22.7862C127.237 22.2965 128.216 21.8068 128.706 21.3171C129.02 21.1767 129.334 21.0024 129.684 20.8274L135.067 15.4415C135.38 15.3713 135.697 15.3019 136.046 15.1962V14.2169C136.36 14.1475 136.674 14.0773 137.024 13.9724L139.471 11.5239C139.785 11.3843 140.1 11.2093 140.449 11.0342L141.917 9.56513H145.308C146.042 10.2993 146.042 10.2993 146.531 11.2787V17.6439C146.672 17.9586 146.845 18.274 147.021 18.6233V21.5615C146.707 22.1908 146.391 22.8555 146.042 23.5195C145.635 23.9283 145.227 24.3362 144.819 24.7434C143.841 25.2331 143.351 25.7228 142.371 26.2124C141.903 26.711 141.425 27.2008 140.939 27.6815C139.96 28.1712 139.471 28.6609 138.491 29.1506L137.024 30.6197L134.088 32.0888C133.598 32.5785 132.619 33.0682 132.131 33.5224C131.326 33.662 130.523 33.8371 129.683 34.0121C129.369 34.1517 129.055 34.3268 128.705 34.5018C127.587 34.5034 126.433 34.5034 125.28 34.5034V34.5034ZM69.0734 23.2774C67.1162 22.7877 67.1162 22.7877 66.1376 22.298C65.8923 22.0528 65.4034 21.0742 64.9137 20.5845C64.7741 19.7802 64.5991 18.9758 64.424 18.1368L63.9343 17.6471C63.7875 17.1524 63.6244 16.6627 63.4454 16.1788C62.9557 15.6891 62.466 14.7097 61.9771 14.22L60.5096 11.2818V7.36504C60.6492 7.05041 60.8242 6.73577 60.9985 6.38565C61.0687 5.58132 61.1389 4.77698 61.2438 3.93796C63.8302 4.00735 66.4514 4.07753 69.0734 4.1832C70.052 4.6729 70.052 4.6729 71.0306 4.91735C71.1 5.23199 71.1702 5.54662 71.2751 5.89674L71.7648 6.38644C72.2198 7.85553 72.2198 7.85553 72.7087 8.83413C72.849 9.63847 73.0233 10.4436 73.1984 11.2818C73.3379 11.5965 73.5122 11.9111 73.6873 12.2612C73.8276 13.7303 74.0019 15.1994 74.177 16.6677V20.5845C74.0374 20.8991 73.8623 21.2145 73.6873 21.5639L72.4642 22.7877C70.052 23.2774 70.052 23.2774 69.0734 23.2774V23.2774ZM103.294 21.8083C102.489 21.5631 101.686 21.3186 100.846 21.0734C100.778 20.7437 100.696 20.417 100.601 20.094L100.113 19.6043V14.7081C100.427 13.5892 100.741 12.4347 101.091 11.281C101.58 10.7913 101.58 10.7913 102.558 8.83335L104.026 7.36425C104.515 6.38486 105.005 5.89516 105.495 4.91656C105.74 4.67132 105.74 4.67132 107.172 4.42686C107.243 4.11223 107.312 3.79759 107.417 3.44747L109.62 1.24423C110.597 0.754533 110.597 0.754532 111.087 0.264836C112.381 0.194654 113.673 0.124471 115.002 0.0195923C115.072 0.334228 115.143 0.648865 115.248 0.998986L116.225 1.97838V5.40626C115.107 7.67968 113.954 9.9531 112.8 12.2604L112.31 12.7501C112.171 13.2398 111.996 13.7295 111.822 14.2192C111.332 14.7089 110.843 15.6883 110.353 16.178C110.214 16.4926 110.039 16.8073 109.865 17.1566L107.908 19.1154C107.837 19.43 107.767 19.7447 107.662 20.0948C107.349 20.165 107.032 20.2352 106.719 20.34C106.229 20.8297 105.251 21.3194 104.761 21.8091L103.294 21.8083V21.8083ZM5.87964 90.4219H149.499V91.4919H5.87964V90.4219ZM7.27539 99.428C7.27539 98.5196 7.41024 97.7571 7.68229 97.1412C7.88475 96.6884 8.16559 96.2749 8.51186 95.9197C8.83729 95.5777 9.22867 95.3051 9.66237 95.1185C10.2183 94.8812 10.857 94.766 11.5825 94.766C12.8955 94.766 13.9443 95.1729 14.7328 95.9875C15.5206 96.8005 15.9149 97.9345 15.9149 99.3839C15.9149 100.824 15.523 101.948 14.7407 102.763C13.9592 103.573 12.9144 103.98 11.607 103.98C10.2822 103.98 9.22866 103.576 8.44719 102.769C7.66573 101.959 7.27539 100.845 7.27539 99.428V99.428ZM9.12772 99.3681C9.12772 100.375 9.36193 101.141 9.82639 101.663C10.2932 102.183 10.8838 102.442 11.6014 102.442C12.3167 102.442 12.9057 102.185 13.3662 101.666C13.8244 101.15 14.0547 100.375 14.0547 99.3421C14.0547 98.3225 13.8307 97.5599 13.3844 97.0568C12.9365 96.5545 12.3411 96.3037 11.6014 96.3037C10.8586 96.3037 10.2617 96.5577 9.80746 97.0663C9.35562 97.5757 9.12772 98.3414 9.12772 99.3681V99.3681ZM17.3209 103.829V94.9174H20.2054C21.2984 94.9174 22.012 94.964 22.3432 95.0515C22.8526 95.1856 23.2824 95.475 23.627 95.9229C23.9708 96.3708 24.1435 96.9504 24.1435 97.6585C24.1435 98.205 24.0442 98.6655 23.8446 99.0369C23.6669 99.3869 23.4075 99.6891 23.0884 99.9177C22.8089 100.118 22.4923 100.261 22.1571 100.338C21.7281 100.422 21.106 100.467 20.2906 100.467H19.1188V103.828H17.3209V103.829V103.829ZM19.1188 96.4252V98.9525H20.1021C20.8111 98.9525 21.2858 98.9076 21.5247 98.8137C21.7636 98.7199 21.9497 98.5748 22.0869 98.3761C22.2218 98.1758 22.2904 97.9463 22.2904 97.6829C22.2904 97.358 22.195 97.0915 22.0041 96.8786C21.8154 96.6686 21.5605 96.5295 21.2818 96.4843C21.0665 96.4425 20.6352 96.4244 19.9878 96.4244H19.1188V96.4252V96.4252ZM25.6197 103.829V94.9174H32.2231V96.4252H27.4176V98.4013H31.8888V99.9012H27.4176V102.327H32.3934V103.828H25.6197V103.829ZM33.9233 103.829V94.9174H37.7099C38.6617 94.9174 39.3525 94.9979 39.7838 95.158C40.2152 95.318 40.5614 95.6011 40.8208 96.0112C41.0795 96.422 41.208 96.8888 41.208 97.4156C41.208 98.0843 41.0108 98.6371 40.6189 99.0732C40.2262 99.5077 39.638 99.7829 38.8565 99.8956C39.246 100.124 39.5678 100.373 39.8209 100.644C40.074 100.917 40.4139 101.397 40.8429 102.09L41.9319 103.829H39.7807L38.4811 101.888C38.019 101.195 37.7036 100.761 37.5333 100.579C37.3848 100.414 37.1991 100.287 36.9915 100.208C36.8007 100.142 36.5003 100.108 36.0855 100.108H35.7228V103.829H33.9233V103.829ZM35.7235 98.6844H37.0531C37.9157 98.6844 38.4551 98.6489 38.6704 98.5764C38.8757 98.51 39.053 98.3771 39.1743 98.1987C39.2949 98.0196 39.3572 97.7981 39.3572 97.5299C39.3572 97.2295 39.276 96.989 39.1167 96.8045C38.9574 96.6199 38.7311 96.5025 38.4386 96.4536C38.2935 96.4354 37.8558 96.4244 37.1256 96.4244H35.7235V98.6844V98.6844ZM50.9341 103.829H48.9761L48.1986 101.804H44.6374L43.9033 103.829H41.9958L45.4646 94.9174H47.3667L50.9341 103.829V103.829ZM47.6221 100.303L46.3944 96.9969L45.1918 100.303H47.6221ZM52.9662 103.829V96.4252H50.3238V94.9174H57.4019V96.4252H54.7657V103.829H52.9662ZM57.9768 99.428C57.9768 98.5196 58.1116 97.7571 58.3836 97.1412C58.5858 96.6882 58.8667 96.2747 59.2132 95.9197C59.5386 95.5777 59.93 95.3051 60.3637 95.1185C60.9197 94.8812 61.5584 94.766 62.2839 94.766C63.5968 94.766 64.6464 95.1729 65.4342 95.9875C66.2227 96.8005 66.6162 97.9345 66.6162 99.3839C66.6162 100.824 66.2243 101.948 65.4428 102.763C64.6606 103.573 63.6158 103.98 62.3091 103.98C60.9843 103.98 59.9308 103.576 59.1486 102.769C58.3663 101.959 57.9768 100.845 57.9768 99.428V99.428ZM59.8291 99.3681C59.8291 100.375 60.0633 101.141 60.5277 101.663C60.9946 102.183 61.5852 102.442 62.3028 102.442C63.0188 102.442 63.6071 102.185 64.0676 101.666C64.5258 101.15 64.756 100.375 64.756 99.3421C64.756 98.3225 64.5321 97.5599 64.0857 97.0568C63.6378 96.5545 63.0425 96.3037 62.302 96.3037C61.56 96.3037 60.963 96.5577 60.5088 97.0663C60.057 97.5757 59.8291 98.3414 59.8291 99.3681V99.3681ZM68.0262 103.829V94.9174H71.8129C72.7646 94.9174 73.4554 94.9979 73.8868 95.158C74.3181 95.318 74.6643 95.6011 74.9237 96.0112C75.1832 96.422 75.3117 96.8888 75.3117 97.4156C75.3117 98.0843 75.1146 98.6371 74.7226 99.0732C74.3307 99.5077 73.7417 99.7829 72.9602 99.8956C73.3498 100.124 73.6715 100.373 73.9246 100.644C74.1777 100.917 74.5176 101.397 74.9474 102.09L76.0356 103.829H73.8852L72.5856 101.888C72.1228 101.195 71.8081 100.761 71.6378 100.579C71.4893 100.414 71.3036 100.287 71.096 100.208C70.9052 100.142 70.6048 100.108 70.19 100.108H69.8273V103.829H68.0262V103.829ZM69.8257 98.6844H71.1552C72.0179 98.6844 72.5565 98.6489 72.7725 98.5764C72.9862 98.5038 73.1534 98.3777 73.2764 98.1987C73.3971 98.0196 73.4586 97.7981 73.4586 97.5299C73.4586 97.2295 73.3774 96.989 73.2181 96.8045C73.058 96.6199 72.8325 96.5025 72.5399 96.4536C72.3948 96.4354 71.9572 96.4244 71.2277 96.4244H69.8257V98.6844V98.6844ZM80.409 103.829V94.9174H82.2061V103.829H80.409ZM83.9401 103.829V94.9174H85.69L89.3355 100.869V94.9174H91.0064V103.829H89.2014L85.6111 98.0181V103.829H83.9401ZM94.909 103.829V96.4252H92.2674V94.9174H99.3463V96.4252H96.7093V103.829H94.909V103.829ZM100.509 103.829V94.9174H107.112V96.4252H102.307V98.4013H106.778V99.9012H102.307V102.327H107.282V103.828H100.509V103.829V103.829ZM108.812 103.829V94.9174H112.6C113.551 94.9174 114.241 94.9979 114.673 95.158C115.104 95.318 115.45 95.6011 115.709 96.0112C115.969 96.422 116.097 96.8888 116.097 97.4156C116.097 98.0843 115.9 98.6371 115.509 99.0732C115.116 99.5077 114.528 99.7829 113.745 99.8956C114.135 100.124 114.457 100.373 114.71 100.644C114.964 100.917 115.303 101.397 115.733 102.09L116.822 103.829H114.671L113.372 101.888C112.908 101.195 112.594 100.761 112.423 100.579C112.275 100.414 112.089 100.287 111.882 100.208C111.691 100.142 111.391 100.108 110.975 100.108H110.613V103.829H108.812V103.829ZM110.612 98.6844H111.942C112.805 98.6844 113.343 98.6489 113.559 98.5764C113.765 98.51 113.942 98.3771 114.063 98.1987C114.183 98.0196 114.246 97.7981 114.246 97.5299C114.246 97.2295 114.164 96.989 114.006 96.8045C113.846 96.6199 113.619 96.5025 113.327 96.4536C113.182 96.4354 112.745 96.4244 112.015 96.4244H110.613V98.6844H110.612V98.6844ZM117.808 103.829V94.9174H119.558L123.203 100.869V94.9174H124.876V103.829H123.069L119.479 98.0181V103.829H117.808ZM126.776 103.829V94.9174H133.378V96.4252H128.573V98.4013H133.044V99.9012H128.573V102.327H133.549V103.828H126.776V103.829ZM137.077 103.829V96.4252H134.436V94.9174H141.513V96.4252H138.878V103.829H137.077ZM142.665 94.9174H144.462V99.7427C144.462 100.51 144.485 101.008 144.528 101.234C144.606 101.599 144.79 101.891 145.078 102.111C145.368 102.333 145.763 102.443 146.266 102.443C146.777 102.443 147.162 102.339 147.421 102.13C147.681 101.922 147.837 101.665 147.888 101.362C147.941 101.056 147.967 100.553 147.967 99.8475V94.9174H149.765V99.5983C149.765 100.668 149.717 101.425 149.619 101.867C149.536 102.279 149.351 102.663 149.082 102.985C148.821 103.287 148.471 103.53 148.035 103.711C147.598 103.891 147.025 103.98 146.319 103.98C145.469 103.98 144.825 103.883 144.385 103.686C143.946 103.489 143.6 103.234 143.344 102.921C143.103 102.634 142.93 102.297 142.84 101.933C142.722 101.422 142.664 100.668 142.664 99.6709V94.9174H142.665V94.9174ZM10.8484 66.3195V83.1797H17.1647V66.3195H25.242V62.2552H2.73328V66.3195H10.8484V66.3195ZM35.9112 83.753C41.9595 83.753 46.5536 81.1468 46.5536 75.5575C46.5536 70.0265 41.9981 67.4266 35.9112 67.4266C30.4757 67.4266 25.2696 69.5786 25.2696 75.5575C25.2696 81.1468 29.8637 83.753 35.9112 83.753ZM35.9112 80.6981C31.7768 80.6981 31.3178 77.4989 31.3178 75.5567C31.3178 70.7126 34.6101 70.4744 35.9112 70.4744C37.3661 70.4744 40.5054 70.7133 40.5054 75.5567C40.5054 77.4705 40.1221 80.6981 35.9112 80.6981ZM52.7439 67.9936V88.713H58.5626V81.6239C60.5151 83.6032 63.6922 83.7522 64.4579 83.7522C70.0086 83.7522 73.4152 80.4284 73.4152 75.6158C73.4152 70.5951 70.0473 67.4266 64.5723 67.4266C63.1947 67.4266 60.5143 67.6348 58.2945 69.8167H58.1802L58.2181 67.9936H52.7439V67.9936ZM58.2945 75.5575C58.2945 71.3126 61.0892 70.4752 62.8493 70.4752C64.5723 70.4752 67.3669 71.3126 67.3669 75.5575C67.3669 78.1865 66.1802 80.6989 62.8493 80.6989C59.4427 80.6981 58.2945 78.1865 58.2945 75.5575ZM86.5353 70.0864L97.1012 83.1797H103.531V62.2552H97.2148V75.257H97.1012L86.5353 62.2552H80.1424V83.1797H86.4588V70.0864H86.5353V70.0864ZM124.997 78.7858C124.499 80.1303 122.737 80.6989 121.054 80.6989C117.263 80.6989 116.421 78.1574 116.382 76.693H131.313L131.274 75.8563C131.197 74.0016 130.699 67.4274 121.245 67.4274C114.89 67.4274 110.334 70.297 110.334 75.5583C110.334 83.3035 118.22 83.7538 120.786 83.7538C124.383 83.7538 129.36 83.0898 130.89 78.7866H124.997V78.7858V78.7858ZM116.382 74.1515C116.497 72.5972 117.722 70.4752 121.167 70.4752C122.584 70.4752 125.187 70.8939 125.264 74.1515H116.382ZM135.665 71.043H139.188V79.1738C139.188 82.2815 140.489 83.6032 144.394 83.6032C145.657 83.6032 147.648 83.4226 149.141 83.1797V80.1303C148.544 80.3056 147.925 80.3964 147.303 80.4C144.816 80.4 145.007 79.2637 145.007 78.3379V71.0437H149.141V67.9944H145.007V63.4507H139.188V67.9944H135.666V71.043H135.665V71.043Z" stroke="black" stroke-width="2" mask="url(#path-3-inside-1_2_99)"/>
</g>
<rect x="3.23328" y="0.519592" width="146.032" height="102.961" stroke="black" shape-rendering="crispEdges"/>
</g>
<defs>
<filter id="filter0_d_2_99" x="-1.26672" y="0.0195923" width="155.032" height="111.961" filterUnits="userSpaceOnUse" color-interpolation-filters="sRGB">
<feFlood flood-opacity="0" result="BackgroundImageFix"/>
<feColorMatrix in="SourceAlpha" type="matrix" values="0 0 0 0 0 0 0 0 0 0 0 0 0 0 0 0 0 0 127 0" result="hardAlpha"/>
<feOffset dy="4"/>
<feGaussianBlur stdDeviation="2"/>
<feComposite in2="hardAlpha" operator="out"/>
<feColorMatrix type="matrix" values="0 0 0 0 0 0 0 0 0 0 0 0 0 0 0 0 0 0 0.25 0"/>
<feBlend mode="normal" in2="BackgroundImageFix" result="effect1_dropShadow_2_99"/>
<feBlend mode="normal" in="SourceGraphic" in2="effect1_dropShadow_2_99" result="shape"/>
</filter>
<filter id="filter1_d_2_99" x="-1.26672" y="0.0195923" width="155.032" height="111.961" filterUnits="userSpaceOnUse" color-interpolation-filters="sRGB">
<feFlood flood-opacity="0" result="BackgroundImageFix"/>
<feColorMatrix in="SourceAlpha" type="matrix" values="0 0 0 0 0 0 0 0 0 0 0 0 0 0 0 0 0 0 127 0" result="hardAlpha"/>
<feOffset dy="4"/>
<feGaussianBlur stdDeviation="2"/>
<feComposite in2="hardAlpha" operator="out"/>
<feColorMatrix type="matrix" values="0 0 0 0 0 0 0 0 0 0 0 0 0 0 0 0 0 0 0.25 0"/>
<feBlend mode="normal" in2="BackgroundImageFix" result="effect1_dropShadow_2_99"/>
<feBlend mode="normal" in="SourceGraphic" in2="effect1_dropShadow_2_99" result="shape"/>
</filter>
</defs>
</svg>
