<svg width="152" height="152" viewBox="0 0 152 152" fill="none" xmlns="http://www.w3.org/2000/svg">
<g opacity="0.3">
<path fill-rule="evenodd" clip-rule="evenodd" d="M58.3651 78.0754C62.1652 77.4777 64.6634 74.0648 64.6634 70.1946C64.6634 67.0277 62.9396 64.9168 60.5818 64.1077C59.1742 63.6148 57.6617 63.5802 54.9167 63.5802H47.4924L41.7572 88.4213H46.4019L48.654 78.6393H53.8262L56.7825 88.4206H61.6384L58.3651 78.0754ZM51.257 67.4496H54.7401C56.288 67.4496 57.2036 67.4496 57.907 67.6956C58.9621 68.0828 59.8421 69.1032 59.8421 70.6165C59.8421 71.5312 59.4904 73.8535 57.0979 74.6626C56.2533 74.9441 55.2684 74.9788 53.7552 74.9788H49.4977L51.257 67.4496ZM83.8309 84.4099H69.6865L71.2691 77.4777H82.9864L83.9011 73.5018H72.1847L73.5568 67.6255H85.8709L86.7865 63.5794H69.897L64.1618 88.4206H82.9154L83.8309 84.4099ZM108.815 75.3313H97.906L96.9912 79.3072H103.571C103.149 81.4899 102.165 82.7555 101.496 83.3888C100.722 84.1284 99.2434 85.0077 96.8509 85.0077C93.1912 85.0077 90.7979 82.4385 90.7979 78.4634C90.7979 73.8535 93.9647 66.9922 99.9815 66.9922C104.345 66.9922 104.907 70.2293 105.12 71.461L109.728 70.4051C109.237 68.2595 108.216 66.2179 106.422 64.9168C104.732 63.685 102.199 63.0518 99.9468 63.0518C90.8334 63.0518 85.8725 71.7078 85.8725 78.7796C85.8725 84.9391 89.7073 88.9489 95.7603 88.9489C99.1377 88.9489 101.003 87.7519 102.269 86.7315L101.707 88.4213H105.788L108.815 75.3313ZM120.252 63.5794H115.572L109.838 88.4206H114.517L120.252 63.5794ZM145.294 63.5794H140.826L136.92 81.9118L129.319 63.5794H125.133L119.397 88.4206H123.936L127.807 70.1946L135.406 88.4206H139.559L145.294 63.5794ZM16.7054 65.6012C19.8068 65.4893 22.0235 67.5632 24.1676 69.5693C26.0877 71.3648 27.9014 73.0626 30.2135 73.0626C33.8132 73.0626 39.0619 68.0947 39.2835 67.8825L38.9129 67.4559C38.8671 67.4922 34.2761 71.0778 30.9429 71.0778C28.5701 71.0778 26.6074 69.354 24.5311 67.53C21.9541 65.2669 19.2903 62.9272 15.6432 63.864C13.2925 64.4689 10.2376 66.6981 10.1083 66.7927L10.3851 67.2816C10.4229 67.2667 14.1994 65.6919 16.7054 65.6012ZM29.3279 78.7788C26.9196 78.7788 24.8686 77.0259 22.6977 75.172C20.1041 72.9561 17.4222 70.6661 14.0259 71.5659C11.8613 72.14 8.63526 74.3945 8.49805 74.4907L8.77247 74.9819C8.81111 74.9654 12.6577 73.3165 15.0818 73.3031C17.7313 73.2873 19.9456 75.2414 22.0865 77.1315C24.2038 78.9996 26.2028 80.7629 28.5985 80.7629C32.1999 80.7629 37.3965 75.7043 37.6165 75.489L37.2396 75.0679C37.1938 75.1057 32.6588 78.7788 29.3279 78.7788ZM27.5395 86.3056C25.1675 86.3056 23.2047 84.5834 21.1277 82.7587C18.5506 80.4963 15.8869 78.1567 12.2398 79.0935C9.88908 79.6991 6.83419 81.9276 6.70486 82.023L6.98165 82.5111C7.0195 82.4953 10.7959 80.9214 13.302 80.8307C16.4034 80.7179 18.62 82.7926 20.7641 84.7979C22.6851 86.595 24.4988 88.2912 26.81 88.2912C30.4145 88.2912 35.5583 83.1427 35.776 82.9219L35.3927 82.5079C35.3478 82.5466 30.868 86.3056 27.5395 86.3056Z" fill="black"/>
</g>
</svg>
