<svg width="152" height="152" viewBox="0 0 152 152" fill="none" xmlns="http://www.w3.org/2000/svg">
<g opacity="0.3" clip-path="url(#clip0_2_101)">
<rect width="152" height="152" fill="white"/>
<g filter="url(#filter0_d_2_101)">
<path fill-rule="evenodd" clip-rule="evenodd" d="M89.6219 101.338H101.073C102.562 94.8401 99.4127 90.1166 103.363 85.9932C96.5502 85.6786 89.6219 89.802 89.6219 101.338ZM87.8879 101.338H76.438C74.9484 94.8401 78.0987 90.1166 74.1472 85.9932C80.962 85.6786 87.8879 89.802 87.8879 101.338ZM31.4167 41.1383V48.7613H21.4548V101.567H12.6387V48.7613H2.2352V41.1383H31.4167Z" fill="black"/>
<path d="M12.6387 48.2613H2.7352V41.6383H30.9167V48.2613H21.4548H20.9548V48.7613V101.067H13.1387V48.7613V48.2613H12.6387ZM100.884 94.3386C101.014 96.3412 101.152 98.4598 100.669 100.838H90.1264C90.2235 95.4491 91.8937 91.8337 94.2804 89.5856C96.4855 87.5086 99.3533 86.5504 102.297 86.4807C100.839 88.455 100.7 90.5623 100.795 92.7965C100.817 93.3044 100.851 93.8176 100.884 94.3386ZM76.7153 92.7965C76.8111 90.5622 76.6718 88.455 75.213 86.4807C78.1577 86.5504 81.0255 87.5086 83.2302 89.5855C85.6167 91.8336 87.2863 95.4491 87.3834 100.838H76.8414C76.3588 98.46 76.4963 96.3417 76.6264 94.3392C76.6602 93.818 76.6936 93.3046 76.7153 92.7965Z" stroke="black"/>
</g>
<g filter="url(#filter1_d_2_101)">
<path fill-rule="evenodd" clip-rule="evenodd" d="M36.5765 60.9029V83.0496C36.5765 87.7116 35.8447 95.4584 42.2683 95.4584C48.4396 95.4584 47.9618 87.7116 47.9618 83.0496V60.9029H57.9237V84.9643C57.9237 96.87 52.6576 103.115 42.2683 103.115C31.8791 103.115 26.6138 96.87 26.6138 84.9643V60.9029H36.5765ZM115.96 63.6147C118.055 60.358 121.46 58.3874 124.865 58.3874C133.968 58.3874 139.536 69.529 139.536 80.5854C139.536 92.07 134.166 103.212 124.67 103.212C121.396 103.212 117.924 101.328 116.091 97.8983H115.96V116.425H106.792V59.7579H115.96V63.6147ZM130.235 80.7565C130.235 75.1001 127.356 69.0148 122.639 69.0148C117.923 69.0148 115.041 75.1001 115.041 80.7565C115.041 86.4136 117.923 92.5849 122.639 92.5849C127.356 92.5849 130.235 86.4136 130.235 80.7565ZM70.8064 101.567V36.299H62.1046V101.567H70.8064ZM145.9 39.3988C147.545 41.054 148.369 43.053 148.369 45.3966C148.369 47.7591 147.545 49.7715 145.9 51.4354C144.252 53.0993 142.253 53.9312 139.902 53.9312C137.55 53.9312 135.55 53.0993 133.905 51.4354C132.268 49.7715 131.448 47.7591 131.448 45.3966C131.448 43.053 132.271 41.054 133.919 39.3988C135.573 37.7349 137.569 36.9022 139.902 36.9022C142.246 36.9022 144.245 37.7349 145.9 39.3988ZM146.88 38.4462C144.957 36.5316 142.631 35.5735 139.902 35.5735C137.191 35.5735 134.879 36.5316 132.965 38.4462C131.041 40.3695 130.08 42.6855 130.08 45.3958C130.08 48.1337 131.032 50.4647 132.939 52.3864C134.852 54.3192 137.172 55.286 139.902 55.286C142.631 55.286 144.956 54.3192 146.88 52.3864C148.803 50.4552 149.765 48.125 149.765 45.3958C149.765 42.6776 148.802 40.3608 146.88 38.4462ZM141.364 44.9408C140.963 45.1017 140.358 45.1821 139.552 45.1821H137.835V41.263H139.46C140.515 41.263 141.282 41.397 141.761 41.6659C142.24 41.934 142.479 42.4616 142.479 43.2486C142.479 44.0821 142.107 44.6459 141.364 44.9408ZM135.931 50.7785H137.835V46.5108H139.338C140.35 46.5108 141.057 46.6268 141.458 46.8594C142.137 47.2623 142.478 48.0895 142.478 49.3418V50.2005L142.518 50.5491C142.528 50.5948 142.536 50.635 142.546 50.6705C142.554 50.7068 142.562 50.7415 142.572 50.7785H144.355L144.289 50.6437C144.244 50.5538 144.214 50.3661 144.195 50.0807C144.179 49.8126 144.17 49.5441 144.169 49.2755V48.4838C144.169 47.9389 143.972 47.3798 143.578 46.8065C143.185 46.2341 142.563 45.8808 141.715 45.7459C142.385 45.6387 142.908 45.4652 143.284 45.2231C143.99 44.7673 144.344 44.0553 144.344 43.0901C144.344 41.7298 143.785 40.8174 142.666 40.3522C142.039 40.0927 141.057 39.9634 139.714 39.9634H135.931V50.7785Z" fill="black"/>
<path d="M137.335 45.6821V45.1821V41.263V40.763H137.835H139.46C140.535 40.763 141.411 40.8956 142.006 41.2299C142.706 41.6224 142.979 42.3686 142.979 43.2486C142.979 43.7401 142.869 44.1908 142.618 44.5717C142.452 44.8228 142.237 45.0267 141.981 45.1876C142.437 45.0888 142.775 44.9564 143.013 44.8031L137.335 45.6821ZM137.335 45.6821H137.835H139.552C140.376 45.6821 141.058 45.6021 141.549 45.4052M137.335 45.6821L141.636 45.3692M141.549 45.4052C141.578 45.3936 141.607 45.3816 141.636 45.3692M141.549 45.4052C141.549 45.4053 141.548 45.4054 141.548 45.4056L141.364 44.9408L141.55 45.4048C141.55 45.4049 141.549 45.4051 141.549 45.4052ZM141.636 45.3692L141.636 46.2397C142.384 46.3586 142.869 46.6563 143.166 47.0894L143.166 47.0899C143.519 47.6028 143.669 48.0649 143.669 48.4838V49.2755V49.2773C143.67 49.5555 143.679 49.8335 143.696 50.1112L143.696 50.1124C143.7 50.17 143.704 50.2255 143.709 50.2785H142.99L142.978 50.1718V49.3418C142.978 48.0217 142.619 46.9667 141.713 46.4294L141.709 46.4268C141.183 46.1219 140.356 46.0108 139.338 46.0108H137.835H137.335V46.5108V50.2785H136.431V40.4634H139.714C141.042 40.4634 141.942 40.5939 142.474 40.8139C142.95 41.0116 143.281 41.2919 143.498 41.6467C143.718 42.0057 143.844 42.4774 143.844 43.0901C143.844 43.9148 143.553 44.4541 143.013 44.8029L141.636 45.3692ZM115.46 63.6147V65.3166L116.381 63.8852C118.396 60.7522 121.652 58.8874 124.865 58.8874C129.184 58.8874 132.713 61.5245 135.187 65.5997C137.661 69.6761 139.036 75.1324 139.036 80.5854C139.036 86.2587 137.708 91.8215 135.235 95.9482C132.766 100.069 129.191 102.712 124.67 102.712C121.579 102.712 118.277 100.928 116.532 97.6626L116.391 97.3983H116.091H115.96H115.46V97.8983V115.925H107.292V60.2579H115.46V63.6147ZM146.255 39.0463L146.255 39.0462C144.506 37.2882 142.379 36.4022 139.902 36.4022C137.435 36.4022 135.312 37.2885 133.565 39.046C131.823 40.7954 130.948 42.9215 130.948 45.3966C130.948 47.8887 131.818 50.0275 133.548 51.7861L133.549 51.787C135.289 53.5464 137.417 54.4312 139.902 54.4312C142.386 54.4312 144.513 53.5463 146.255 51.7873L146.256 51.7869C147.994 50.0287 148.869 47.8896 148.869 45.3966C148.869 42.9213 147.993 40.7955 146.255 39.0463ZM133.294 52.0347L133.294 52.0342C131.481 50.2076 130.58 48.0037 130.58 45.3958C130.58 42.8187 131.488 40.6297 133.318 38.7998C135.139 36.9789 137.323 36.0735 139.902 36.0735C142.499 36.0735 144.699 36.9797 146.528 38.8006C148.355 40.6213 149.265 42.8106 149.265 45.3958C149.265 47.9929 148.355 50.1963 146.526 52.0337C144.696 53.8722 142.498 54.786 139.902 54.786C137.305 54.786 135.113 53.8722 133.294 52.0347ZM36.0765 61.4029V83.0496C36.0765 83.4513 36.0707 83.8813 36.0646 84.3316C36.0361 86.4367 36.0017 88.9828 36.5281 91.1218C36.8505 92.432 37.3945 93.6471 38.3233 94.5363C39.2642 95.4371 40.553 95.9584 42.2683 95.9584C43.9265 95.9584 45.1834 95.4334 46.1098 94.5339C47.0232 93.647 47.5749 92.4356 47.9133 91.1275C48.4985 88.8661 48.4805 86.1579 48.466 83.9823C48.4638 83.6585 48.4618 83.3466 48.4618 83.0496V61.4029H57.4237V84.9643C57.4237 90.8537 56.1199 95.255 53.6124 98.179C51.117 101.089 47.3598 102.615 42.2683 102.615C37.1769 102.615 33.4199 101.089 30.9247 98.179C28.4174 95.2551 27.1138 90.8538 27.1138 84.9643V61.4029H36.0765ZM130.735 80.7565C130.735 77.8529 129.998 74.8274 128.637 72.5112C127.278 70.198 125.242 68.5148 122.639 68.5148C120.037 68.5148 118 70.198 116.641 72.5111C115.279 74.8273 114.541 77.8529 114.541 80.7565C114.541 83.6603 115.279 86.7067 116.64 89.0437C117.998 91.3764 120.034 93.0849 122.639 93.0849C125.245 93.0849 127.28 91.3764 128.638 89.0437C129.998 86.7067 130.735 83.6603 130.735 80.7565ZM70.3064 36.799V101.067H62.6046V36.799H70.3064Z" stroke="black"/>
</g>
<g filter="url(#filter2_d_2_101)">
<path fill-rule="evenodd" clip-rule="evenodd" d="M86.1757 65.3439C88.8805 70.9774 83.4725 81.7933 92.7122 82.9194C91.3598 84.9476 86.8531 84.9476 84.1491 84.047C80.5438 83.1457 77.3896 79.9899 76.0364 76.6109C73.5579 70.5263 77.2192 61.0352 73.3324 56.5569C78.9667 56.5562 84.3739 60.1615 86.1757 65.3439Z" fill="black"/>
<path d="M85.7035 65.5081L85.7128 65.5348L85.725 65.5603C86.3509 66.864 86.5212 68.5022 86.5388 70.3132C86.5463 71.0812 86.5266 71.8654 86.5067 72.6585C86.5032 72.796 86.4998 72.9337 86.4964 73.0716C86.4741 74.0005 86.4578 74.9371 86.4938 75.8418C86.5652 77.6395 86.8437 79.3881 87.7564 80.7664C88.5568 81.9752 89.806 82.8436 91.6757 83.2519C91.0179 83.7035 90.0451 83.9841 88.8945 84.0833C87.3267 84.2186 85.5925 84.0008 84.3071 83.5727L84.289 83.5666L84.2704 83.562C80.8467 82.7061 77.8048 79.6817 76.5006 76.425L76.4994 76.4223C75.9116 74.9791 75.6796 73.3117 75.6145 71.5221C75.5626 70.0931 75.6172 68.6156 75.6721 67.1315C75.686 66.7538 75.7 66.3756 75.7123 65.9977C75.7721 64.1506 75.7901 62.3138 75.5406 60.6499C75.3469 59.3578 74.9886 58.1443 74.3451 57.0969C79.4066 57.4962 84.0847 60.8523 85.7035 65.5081Z" stroke="black"/>
</g>
<g filter="url(#filter3_d_2_101)">
<path fill-rule="evenodd" clip-rule="evenodd" d="M102.852 56.5564C98.3451 62.4422 103.133 70.8924 100.316 77.6512C99.3308 79.9057 97.894 81.1153 96.0922 81.568C93.6122 82.2438 91.4436 81.4536 90.0084 79.5398C88.0646 76.667 88.347 66.3866 91.5856 61.7388C94.2603 57.9363 98.3451 56.3308 102.852 56.5564ZM88.0647 65.2976C88.7255 61.1655 89.2317 58.9962 92.2062 57.1785C92.2062 57.1785 91.5343 53.7089 88.0647 51.8904C84.4302 53.8737 83.5919 57.1785 83.5919 57.1785C86.5656 58.9962 87.4038 61.1655 88.0647 65.2976Z" fill="black"/>
<path d="M95.9704 81.083L95.9703 81.0829L95.9607 81.0855C93.6816 81.7066 91.7273 80.9913 90.4159 79.2498C89.9989 78.6273 89.6671 77.5436 89.4748 76.1325C89.2838 74.7309 89.2381 73.0655 89.3525 71.338C89.5826 67.8628 90.4531 64.2393 91.9952 62.0255C94.3755 58.6423 97.9201 57.0653 101.914 57.036C100.09 59.9851 100.194 63.4367 100.452 66.8144C100.479 67.175 100.508 67.5348 100.538 67.8934C100.811 71.2606 101.076 74.5261 99.8566 77.4549C98.9227 79.5885 97.5978 80.6742 95.9704 81.083ZM88.8121 60.1643C88.4827 60.8935 88.2438 61.705 88.0423 62.6189C87.8065 61.6946 87.5197 60.8766 87.1399 60.1408C86.4804 58.8632 85.5545 57.8591 84.1876 56.9638C84.2044 56.9183 84.2233 56.8689 84.2444 56.8157C84.3707 56.4979 84.5764 56.0496 84.8907 55.5411C85.4898 54.5717 86.4809 53.3868 88.0685 52.4622C89.5541 53.3076 90.459 54.476 90.9983 55.4572C91.282 55.9734 91.4629 56.4351 91.5723 56.7653C91.5948 56.8331 91.6143 56.8953 91.6309 56.9511C90.253 57.8566 89.3954 58.8732 88.8121 60.1643ZM84.0763 57.3026C84.0763 57.3027 84.0763 57.3027 84.0763 57.3025L84.0763 57.3026Z" stroke="black"/>
</g>
</g>
<defs>
<filter id="filter0_d_2_101" x="-1.7648" y="41.1383" width="109.127" height="68.429" filterUnits="userSpaceOnUse" color-interpolation-filters="sRGB">
<feFlood flood-opacity="0" result="BackgroundImageFix"/>
<feColorMatrix in="SourceAlpha" type="matrix" values="0 0 0 0 0 0 0 0 0 0 0 0 0 0 0 0 0 0 127 0" result="hardAlpha"/>
<feOffset dy="4"/>
<feGaussianBlur stdDeviation="2"/>
<feComposite in2="hardAlpha" operator="out"/>
<feColorMatrix type="matrix" values="0 0 0 0 0 0 0 0 0 0 0 0 0 0 0 0 0 0 0.25 0"/>
<feBlend mode="normal" in2="BackgroundImageFix" result="effect1_dropShadow_2_101"/>
<feBlend mode="normal" in="SourceGraphic" in2="effect1_dropShadow_2_101" result="shape"/>
</filter>
<filter id="filter1_d_2_101" x="22.6138" y="35.5735" width="131.151" height="88.8513" filterUnits="userSpaceOnUse" color-interpolation-filters="sRGB">
<feFlood flood-opacity="0" result="BackgroundImageFix"/>
<feColorMatrix in="SourceAlpha" type="matrix" values="0 0 0 0 0 0 0 0 0 0 0 0 0 0 0 0 0 0 127 0" result="hardAlpha"/>
<feOffset dy="4"/>
<feGaussianBlur stdDeviation="2"/>
<feComposite in2="hardAlpha" operator="out"/>
<feColorMatrix type="matrix" values="0 0 0 0 0 0 0 0 0 0 0 0 0 0 0 0 0 0 0.25 0"/>
<feBlend mode="normal" in2="BackgroundImageFix" result="effect1_dropShadow_2_101"/>
<feBlend mode="normal" in="SourceGraphic" in2="effect1_dropShadow_2_101" result="shape"/>
</filter>
<filter id="filter2_d_2_101" x="69.3324" y="56.5569" width="27.3798" height="36.0663" filterUnits="userSpaceOnUse" color-interpolation-filters="sRGB">
<feFlood flood-opacity="0" result="BackgroundImageFix"/>
<feColorMatrix in="SourceAlpha" type="matrix" values="0 0 0 0 0 0 0 0 0 0 0 0 0 0 0 0 0 0 127 0" result="hardAlpha"/>
<feOffset dy="4"/>
<feGaussianBlur stdDeviation="2"/>
<feComposite in2="hardAlpha" operator="out"/>
<feColorMatrix type="matrix" values="0 0 0 0 0 0 0 0 0 0 0 0 0 0 0 0 0 0 0.25 0"/>
<feBlend mode="normal" in2="BackgroundImageFix" result="effect1_dropShadow_2_101"/>
<feBlend mode="normal" in="SourceGraphic" in2="effect1_dropShadow_2_101" result="shape"/>
</filter>
<filter id="filter3_d_2_101" x="79.5919" y="51.8904" width="27.2597" height="37.9155" filterUnits="userSpaceOnUse" color-interpolation-filters="sRGB">
<feFlood flood-opacity="0" result="BackgroundImageFix"/>
<feColorMatrix in="SourceAlpha" type="matrix" values="0 0 0 0 0 0 0 0 0 0 0 0 0 0 0 0 0 0 127 0" result="hardAlpha"/>
<feOffset dy="4"/>
<feGaussianBlur stdDeviation="2"/>
<feComposite in2="hardAlpha" operator="out"/>
<feColorMatrix type="matrix" values="0 0 0 0 0 0 0 0 0 0 0 0 0 0 0 0 0 0 0.25 0"/>
<feBlend mode="normal" in2="BackgroundImageFix" result="effect1_dropShadow_2_101"/>
<feBlend mode="normal" in="SourceGraphic" in2="effect1_dropShadow_2_101" result="shape"/>
</filter>
<clipPath id="clip0_2_101">
<rect width="152" height="152" fill="white"/>
</clipPath>
</defs>
</svg>
