<svg display="none" xmlns="http://www.w3.org/2000/svg">
            <symbol id="facebook" viewBox="0 0 32 32">
              <path
                d="M19 6h5v-6h-5c-3.86 0-7 3.14-7 7v3h-4v6h4v16h6v-16h5l1-6h-6v-3c0-0.542 0.458-1 1-1z"
              ></path>
            </symbol>
            <symbol id="instagram" viewBox="0 0 32 32">
              <path
                d="M16 2.881c4.275 0 4.781 0.019 6.462 0.094 1.563 0.069 2.406 0.331 2.969 0.55 0.744 0.288 1.281 0.638 1.837 1.194 0.563 0.563 0.906 1.094 1.2 1.838 0.219 0.563 0.481 1.412 0.55 2.969 0.075 1.688 0.094 2.194 0.094 6.463s-0.019 4.781-0.094 6.463c-0.069 1.563-0.331 2.406-0.55 2.969-0.288 0.744-0.637 1.281-1.194 1.837-0.563 0.563-1.094 0.906-1.837 1.2-0.563 0.219-1.413 0.481-2.969 0.55-1.688 0.075-2.194 0.094-6.463 0.094s-4.781-0.019-6.463-0.094c-1.563-0.069-2.406-0.331-2.969-0.55-0.744-0.288-1.281-0.637-1.838-1.194-0.563-0.563-0.906-1.094-1.2-1.837-0.219-0.563-0.481-1.413-0.55-2.969-0.075-1.688-0.094-2.194-0.094-6.463s0.019-4.781 0.094-6.463c0.069-1.563 0.331-2.406 0.55-2.969 0.288-0.744 0.638-1.281 1.194-1.838 0.563-0.563 1.094-0.906 1.838-1.2 0.563-0.219 1.412-0.481 2.969-0.55 1.681-0.075 2.188-0.094 6.463-0.094zM16 0c-4.344 0-4.887 0.019-6.594 0.094-1.7 0.075-2.869 0.35-3.881 0.744-1.056 0.412-1.95 0.956-2.837 1.85-0.894 0.888-1.438 1.781-1.85 2.831-0.394 1.019-0.669 2.181-0.744 3.881-0.075 1.713-0.094 2.256-0.094 6.6s0.019 4.887 0.094 6.594c0.075 1.7 0.35 2.869 0.744 3.881 0.413 1.056 0.956 1.95 1.85 2.837 0.887 0.887 1.781 1.438 2.831 1.844 1.019 0.394 2.181 0.669 3.881 0.744 1.706 0.075 2.25 0.094 6.594 0.094s4.888-0.019 6.594-0.094c1.7-0.075 2.869-0.35 3.881-0.744 1.050-0.406 1.944-0.956 2.831-1.844s1.438-1.781 1.844-2.831c0.394-1.019 0.669-2.181 0.744-3.881 0.075-1.706 0.094-2.25 0.094-6.594s-0.019-4.887-0.094-6.594c-0.075-1.7-0.35-2.869-0.744-3.881-0.394-1.063-0.938-1.956-1.831-2.844-0.887-0.887-1.781-1.438-2.831-1.844-1.019-0.394-2.181-0.669-3.881-0.744-1.712-0.081-2.256-0.1-6.6-0.1v0z"
              ></path>
              <path
                d="M16 7.781c-4.537 0-8.219 3.681-8.219 8.219s3.681 8.219 8.219 8.219 8.219-3.681 8.219-8.219c0-4.537-3.681-8.219-8.219-8.219zM16 21.331c-2.944 0-5.331-2.387-5.331-5.331s2.387-5.331 5.331-5.331c2.944 0 5.331 2.387 5.331 5.331s-2.387 5.331-5.331 5.331z"
              ></path>
              <path
                d="M26.462 7.456c0 1.060-0.859 1.919-1.919 1.919s-1.919-0.859-1.919-1.919c0-1.060 0.859-1.919 1.919-1.919s1.919 0.859 1.919 1.919z"
              ></path>
            </symbol>
          <symbol id="twitter" viewBox="0 0 32 32"><path d="M32 7.075c-1.175 0.525-2.444 0.875-3.769 1.031 1.356-0.813 2.394-2.1 2.887-3.631-1.269 0.75-2.675 1.3-4.169 1.594-1.2-1.275-2.906-2.069-4.794-2.069-3.625 0-6.563 2.938-6.563 6.563 0 0.512 0.056 1.012 0.169 1.494-5.456-0.275-10.294-2.888-13.531-6.862-0.563 0.969-0.887 2.1-0.887 3.3 0 2.275 1.156 4.287 2.919 5.463-1.075-0.031-2.087-0.331-2.975-0.819 0 0.025 0 0.056 0 0.081 0 3.181 2.263 5.838 5.269 6.437-0.55 0.15-1.131 0.231-1.731 0.231-0.425 0-0.831-0.044-1.237-0.119 0.838 2.606 3.263 4.506 6.131 4.563-2.25 1.762-5.075 2.813-8.156 2.813-0.531 0-1.050-0.031-1.569-0.094 2.913 1.869 6.362 2.95 10.069 2.95 12.075 0 18.681-10.006 18.681-18.681 0-0.287-0.006-0.569-0.019-0.85 1.281-0.919 2.394-2.075 3.275-3.394z"></path>
</symbol>
<symbol id="logo1" viewBox="0 0 152 112">
                  <path
                    d="M28.4909 54.8238C28.5602 54.3341 28.6304 53.8444 28.7353 53.3547L30.4481 51.6412C31.4267 51.1515 31.4267 51.1515 31.9156 50.6618C32.2448 50.593 32.5713 50.5114 32.8942 50.4173V49.4379H33.8728V48.4586C34.1874 48.3884 34.5021 48.319 34.8514 48.2133C35.3403 47.7236 35.3403 47.7236 37.2636 46.745L38.7311 45.2759C39.7097 44.7862 40.1994 44.2965 41.178 43.8076L42.1566 42.8282C44.1138 41.8488 44.6035 41.3599 45.5821 40.8702L46.0718 40.3805C49.3231 38.7719 52.5735 37.1277 55.8595 35.4844C58.7961 34.505 62.2208 33.0714 63.6891 32.5817C64.0037 32.4421 64.3184 32.267 64.6677 32.092C68.0585 31.2868 71.484 30.4833 74.9095 29.6443C81.7613 28.6649 81.7613 28.6649 86.1647 28.1752H99.8675C103.783 29.1546 103.783 29.1546 105.25 29.6443C106.228 30.134 107.662 30.6237 108.64 31.1126C109.13 31.2529 109.62 31.4272 110.109 31.6023C110.597 32.092 110.597 32.092 111.577 32.5817C115.002 33.5264 115.98 34.0153 116.96 34.2605C117.029 34.5751 117.1 34.8898 117.205 35.2399L117.693 35.7296C118.183 37.1987 118.183 37.1987 119.162 39.1575L121.608 41.6052C122.098 42.5846 122.588 43.0735 123.077 44.0529L123.565 44.5426C124.055 46.0109 124.055 46.0109 124.545 46.9903V51.8856C124.055 53.3547 123.565 54.3341 123.32 54.5794C120.384 54.5794 120.384 54.5794 117.937 54.3341C117.868 54.0187 117.799 53.7041 117.692 53.3547L116.225 51.8856C116.084 51.571 115.911 51.2564 115.735 50.9063C115.328 50.4977 114.92 50.0898 114.512 49.6824C114.198 49.5428 113.883 49.3678 113.534 49.1927L112.067 47.7236C110.773 47.0943 109.479 46.4296 108.151 45.7648C107.662 45.2751 107.662 45.2751 106.718 44.7854C106.062 44.6348 105.41 44.4716 104.761 44.2957L104.271 43.806C103.127 43.6573 101.985 43.4941 100.845 43.3163C100.531 43.1768 100.217 43.0017 99.8675 42.8267C98.0838 42.6871 96.3024 42.512 94.4848 42.337H82.7392C81.621 42.4765 80.4673 42.6516 79.3137 42.8267H71.029C68.5821 43.3164 64.178 43.806 62.2208 44.2957C59.2842 44.7854 57.327 45.2751 54.3904 45.7648C53.4118 46.2545 45.5821 48.703 44.6035 49.1927C43.1352 49.6824 42.1566 50.1721 40.6883 50.661C39.7097 51.1507 39.7097 51.1507 38.2414 51.6404L37.7517 52.1301C36.3189 52.6198 36.3189 52.6198 33.3823 54.0889C32.753 54.2293 32.0891 54.4027 31.4251 54.5786C30.4489 54.648 29.4695 54.7189 28.4909 54.8238V54.8238ZM42.1582 34.9931C41.1768 34.8471 40.198 34.6839 39.2224 34.5034C38.7327 34.0137 38.7327 34.0137 37.7541 33.524L35.3419 31.1102C34.8475 30.963 34.3581 30.7997 33.8744 30.6205L33.3847 30.1308C32.895 29.9912 32.4061 29.8162 31.9164 29.6411L31.4267 29.1514C31.112 29.0812 30.7974 29.0111 30.4481 28.9062C30.3779 28.5915 30.3077 28.2769 30.2028 27.9268C29.9579 27.682 29.7132 27.437 29.4687 27.1918C29.1394 27.123 28.8129 27.0412 28.4901 26.9466C28.4199 26.632 28.3497 26.3173 28.2448 25.9672C27.7551 25.4775 27.7551 25.4775 27.2662 24.4981V21.5607L28.2448 20.5813C28.315 19.9521 28.3844 19.2873 28.4901 18.6233C28.8039 18.6935 29.1193 18.7637 29.4687 18.8686H32.8942C33.3839 19.3583 33.3839 19.3583 34.3625 19.848C35.8308 20.3377 35.8308 20.3377 36.8094 20.8274C37.2783 21.3257 37.7563 21.8155 38.243 22.2965C38.5568 22.436 38.8723 22.6111 39.2216 22.7862L40.6891 24.2552C41.0037 24.3254 41.3184 24.3948 41.6677 24.4997V25.4791H42.6463V26.4585C43.6249 26.7037 43.6249 26.7037 43.8694 26.9482C44.8488 28.907 45.3377 29.3967 45.8266 30.3753L46.3163 30.865V33.7684L45.0924 34.9923L42.1582 34.9931ZM125.28 34.5034C124.951 34.4346 124.624 34.3527 124.302 34.2581C124.237 33.9392 124.155 33.6238 124.057 33.3134L123.567 32.8237C123.079 28.4173 123.079 28.4173 123.079 26.4585C124.057 24.4997 124.057 24.4997 124.302 24.2552C124.792 24.1851 125.28 24.1149 125.769 24.01V23.0306C126.083 22.9612 126.399 22.891 126.749 22.7862C127.237 22.2965 128.216 21.8068 128.706 21.3171C129.02 21.1767 129.334 21.0024 129.684 20.8274L135.067 15.4415C135.38 15.3713 135.697 15.3019 136.046 15.1962V14.2169C136.36 14.1475 136.674 14.0773 137.024 13.9724L139.471 11.5239C139.785 11.3843 140.1 11.2093 140.449 11.0342L141.917 9.56513H145.308C146.042 10.2993 146.042 10.2993 146.531 11.2787V17.6439C146.672 17.9586 146.845 18.274 147.021 18.6233V21.5615C146.707 22.1908 146.391 22.8555 146.042 23.5195C145.635 23.9283 145.227 24.3362 144.819 24.7434C143.841 25.2331 143.351 25.7228 142.371 26.2124C141.903 26.711 141.425 27.2008 140.939 27.6815C139.96 28.1712 139.471 28.6609 138.491 29.1506L137.024 30.6197L134.088 32.0888C133.598 32.5785 132.619 33.0682 132.131 33.5224C131.326 33.662 130.523 33.8371 129.683 34.0121C129.369 34.1517 129.055 34.3268 128.705 34.5018C127.587 34.5034 126.433 34.5034 125.28 34.5034V34.5034ZM69.0734 23.2774C67.1162 22.7877 67.1162 22.7877 66.1376 22.298C65.8923 22.0528 65.4034 21.0742 64.9137 20.5845C64.7741 19.7802 64.5991 18.9758 64.424 18.1368L63.9343 17.6471C63.7875 17.1524 63.6244 16.6627 63.4454 16.1788C62.9557 15.6891 62.466 14.7097 61.9771 14.22L60.5096 11.2818V7.36504C60.6492 7.05041 60.8242 6.73577 60.9985 6.38565C61.0687 5.58132 61.1389 4.77698 61.2438 3.93796C63.8302 4.00735 66.4514 4.07753 69.0734 4.1832C70.052 4.6729 70.052 4.6729 71.0306 4.91735C71.1 5.23199 71.1702 5.54662 71.2751 5.89674L71.7648 6.38644C72.2198 7.85553 72.2198 7.85553 72.7087 8.83413C72.849 9.63847 73.0233 10.4436 73.1984 11.2818C73.3379 11.5965 73.5122 11.9111 73.6873 12.2612C73.8276 13.7303 74.0019 15.1994 74.177 16.6677V20.5845C74.0374 20.8991 73.8623 21.2145 73.6873 21.5639L72.4642 22.7877C70.052 23.2774 70.052 23.2774 69.0734 23.2774V23.2774ZM103.294 21.8083C102.489 21.5631 101.686 21.3186 100.846 21.0734C100.778 20.7437 100.696 20.417 100.601 20.094L100.113 19.6043V14.7081C100.427 13.5892 100.741 12.4347 101.091 11.281C101.58 10.7913 101.58 10.7913 102.558 8.83335L104.026 7.36425C104.515 6.38486 105.005 5.89516 105.495 4.91656C105.74 4.67132 105.74 4.67132 107.172 4.42686C107.243 4.11223 107.312 3.79759 107.417 3.44747L109.62 1.24423C110.597 0.754533 110.597 0.754532 111.087 0.264836C112.381 0.194654 113.673 0.124471 115.002 0.0195923C115.072 0.334228 115.143 0.648865 115.248 0.998986L116.225 1.97838V5.40626C115.107 7.67968 113.954 9.9531 112.8 12.2604L112.31 12.7501C112.171 13.2398 111.996 13.7295 111.822 14.2192C111.332 14.7089 110.843 15.6883 110.353 16.178C110.214 16.4926 110.039 16.8073 109.865 17.1566L107.908 19.1154C107.837 19.43 107.767 19.7447 107.662 20.0948C107.349 20.165 107.032 20.2352 106.719 20.34C106.229 20.8297 105.251 21.3194 104.761 21.8091L103.294 21.8083V21.8083ZM5.87964 90.4219H149.499V91.4919H5.87964V90.4219ZM7.27539 99.428C7.27539 98.5196 7.41024 97.7571 7.68229 97.1412C7.88475 96.6884 8.16559 96.2749 8.51186 95.9197C8.83729 95.5777 9.22867 95.3051 9.66237 95.1185C10.2183 94.8812 10.857 94.766 11.5825 94.766C12.8955 94.766 13.9443 95.1729 14.7328 95.9875C15.5206 96.8005 15.9149 97.9345 15.9149 99.3839C15.9149 100.824 15.523 101.948 14.7407 102.763C13.9592 103.573 12.9144 103.98 11.607 103.98C10.2822 103.98 9.22866 103.576 8.44719 102.769C7.66573 101.959 7.27539 100.845 7.27539 99.428V99.428ZM9.12772 99.3681C9.12772 100.375 9.36193 101.141 9.82639 101.663C10.2932 102.183 10.8838 102.442 11.6014 102.442C12.3167 102.442 12.9057 102.185 13.3662 101.666C13.8244 101.15 14.0547 100.375 14.0547 99.3421C14.0547 98.3225 13.8307 97.5599 13.3844 97.0568C12.9365 96.5545 12.3411 96.3037 11.6014 96.3037C10.8586 96.3037 10.2617 96.5577 9.80746 97.0663C9.35562 97.5757 9.12772 98.3414 9.12772 99.3681V99.3681ZM17.3209 103.829V94.9174H20.2054C21.2984 94.9174 22.012 94.964 22.3432 95.0515C22.8526 95.1856 23.2824 95.475 23.627 95.9229C23.9708 96.3708 24.1435 96.9504 24.1435 97.6585C24.1435 98.205 24.0442 98.6655 23.8446 99.0369C23.6669 99.3869 23.4075 99.6891 23.0884 99.9177C22.8089 100.118 22.4923 100.261 22.1571 100.338C21.7281 100.422 21.106 100.467 20.2906 100.467H19.1188V103.828H17.3209V103.829V103.829ZM19.1188 96.4252V98.9525H20.1021C20.8111 98.9525 21.2858 98.9076 21.5247 98.8137C21.7636 98.7199 21.9497 98.5748 22.0869 98.3761C22.2218 98.1758 22.2904 97.9463 22.2904 97.6829C22.2904 97.358 22.195 97.0915 22.0041 96.8786C21.8154 96.6686 21.5605 96.5295 21.2818 96.4843C21.0665 96.4425 20.6352 96.4244 19.9878 96.4244H19.1188V96.4252V96.4252ZM25.6197 103.829V94.9174H32.2231V96.4252H27.4176V98.4013H31.8888V99.9012H27.4176V102.327H32.3934V103.828H25.6197V103.829ZM33.9233 103.829V94.9174H37.7099C38.6617 94.9174 39.3525 94.9979 39.7838 95.158C40.2152 95.318 40.5614 95.6011 40.8208 96.0112C41.0795 96.422 41.208 96.8888 41.208 97.4156C41.208 98.0843 41.0108 98.6371 40.6189 99.0732C40.2262 99.5077 39.638 99.7829 38.8565 99.8956C39.246 100.124 39.5678 100.373 39.8209 100.644C40.074 100.917 40.4139 101.397 40.8429 102.09L41.9319 103.829H39.7807L38.4811 101.888C38.019 101.195 37.7036 100.761 37.5333 100.579C37.3848 100.414 37.1991 100.287 36.9915 100.208C36.8007 100.142 36.5003 100.108 36.0855 100.108H35.7228V103.829H33.9233V103.829ZM35.7235 98.6844H37.0531C37.9157 98.6844 38.4551 98.6489 38.6704 98.5764C38.8757 98.51 39.053 98.3771 39.1743 98.1987C39.2949 98.0196 39.3572 97.7981 39.3572 97.5299C39.3572 97.2295 39.276 96.989 39.1167 96.8045C38.9574 96.6199 38.7311 96.5025 38.4386 96.4536C38.2935 96.4354 37.8558 96.4244 37.1256 96.4244H35.7235V98.6844V98.6844ZM50.9341 103.829H48.9761L48.1986 101.804H44.6374L43.9033 103.829H41.9958L45.4646 94.9174H47.3667L50.9341 103.829V103.829ZM47.6221 100.303L46.3944 96.9969L45.1918 100.303H47.6221ZM52.9662 103.829V96.4252H50.3238V94.9174H57.4019V96.4252H54.7657V103.829H52.9662ZM57.9768 99.428C57.9768 98.5196 58.1116 97.7571 58.3836 97.1412C58.5858 96.6882 58.8667 96.2747 59.2132 95.9197C59.5386 95.5777 59.93 95.3051 60.3637 95.1185C60.9197 94.8812 61.5584 94.766 62.2839 94.766C63.5968 94.766 64.6464 95.1729 65.4342 95.9875C66.2227 96.8005 66.6162 97.9345 66.6162 99.3839C66.6162 100.824 66.2243 101.948 65.4428 102.763C64.6606 103.573 63.6158 103.98 62.3091 103.98C60.9843 103.98 59.9308 103.576 59.1486 102.769C58.3663 101.959 57.9768 100.845 57.9768 99.428V99.428ZM59.8291 99.3681C59.8291 100.375 60.0633 101.141 60.5277 101.663C60.9946 102.183 61.5852 102.442 62.3028 102.442C63.0188 102.442 63.6071 102.185 64.0676 101.666C64.5258 101.15 64.756 100.375 64.756 99.3421C64.756 98.3225 64.5321 97.5599 64.0857 97.0568C63.6378 96.5545 63.0425 96.3037 62.302 96.3037C61.56 96.3037 60.963 96.5577 60.5088 97.0663C60.057 97.5757 59.8291 98.3414 59.8291 99.3681V99.3681ZM68.0262 103.829V94.9174H71.8129C72.7646 94.9174 73.4554 94.9979 73.8868 95.158C74.3181 95.318 74.6643 95.6011 74.9237 96.0112C75.1832 96.422 75.3117 96.8888 75.3117 97.4156C75.3117 98.0843 75.1146 98.6371 74.7226 99.0732C74.3307 99.5077 73.7417 99.7829 72.9602 99.8956C73.3498 100.124 73.6715 100.373 73.9246 100.644C74.1777 100.917 74.5176 101.397 74.9474 102.09L76.0356 103.829H73.8852L72.5856 101.888C72.1228 101.195 71.8081 100.761 71.6378 100.579C71.4893 100.414 71.3036 100.287 71.096 100.208C70.9052 100.142 70.6048 100.108 70.19 100.108H69.8273V103.829H68.0262V103.829ZM69.8257 98.6844H71.1552C72.0179 98.6844 72.5565 98.6489 72.7725 98.5764C72.9862 98.5038 73.1534 98.3777 73.2764 98.1987C73.3971 98.0196 73.4586 97.7981 73.4586 97.5299C73.4586 97.2295 73.3774 96.989 73.2181 96.8045C73.058 96.6199 72.8325 96.5025 72.5399 96.4536C72.3948 96.4354 71.9572 96.4244 71.2277 96.4244H69.8257V98.6844V98.6844ZM80.409 103.829V94.9174H82.2061V103.829H80.409ZM83.9401 103.829V94.9174H85.69L89.3355 100.869V94.9174H91.0064V103.829H89.2014L85.6111 98.0181V103.829H83.9401ZM94.909 103.829V96.4252H92.2674V94.9174H99.3463V96.4252H96.7093V103.829H94.909V103.829ZM100.509 103.829V94.9174H107.112V96.4252H102.307V98.4013H106.778V99.9012H102.307V102.327H107.282V103.828H100.509V103.829V103.829ZM108.812 103.829V94.9174H112.6C113.551 94.9174 114.241 94.9979 114.673 95.158C115.104 95.318 115.45 95.6011 115.709 96.0112C115.969 96.422 116.097 96.8888 116.097 97.4156C116.097 98.0843 115.9 98.6371 115.509 99.0732C115.116 99.5077 114.528 99.7829 113.745 99.8956C114.135 100.124 114.457 100.373 114.71 100.644C114.964 100.917 115.303 101.397 115.733 102.09L116.822 103.829H114.671L113.372 101.888C112.908 101.195 112.594 100.761 112.423 100.579C112.275 100.414 112.089 100.287 111.882 100.208C111.691 100.142 111.391 100.108 110.975 100.108H110.613V103.829H108.812V103.829ZM110.612 98.6844H111.942C112.805 98.6844 113.343 98.6489 113.559 98.5764C113.765 98.51 113.942 98.3771 114.063 98.1987C114.183 98.0196 114.246 97.7981 114.246 97.5299C114.246 97.2295 114.164 96.989 114.006 96.8045C113.846 96.6199 113.619 96.5025 113.327 96.4536C113.182 96.4354 112.745 96.4244 112.015 96.4244H110.613V98.6844H110.612V98.6844ZM117.808 103.829V94.9174H119.558L123.203 100.869V94.9174H124.876V103.829H123.069L119.479 98.0181V103.829H117.808ZM126.776 103.829V94.9174H133.378V96.4252H128.573V98.4013H133.044V99.9012H128.573V102.327H133.549V103.828H126.776V103.829ZM137.077 103.829V96.4252H134.436V94.9174H141.513V96.4252H138.878V103.829H137.077ZM142.665 94.9174H144.462V99.7427C144.462 100.51 144.485 101.008 144.528 101.234C144.606 101.599 144.79 101.891 145.078 102.111C145.368 102.333 145.763 102.443 146.266 102.443C146.777 102.443 147.162 102.339 147.421 102.13C147.681 101.922 147.837 101.665 147.888 101.362C147.941 101.056 147.967 100.553 147.967 99.8475V94.9174H149.765V99.5983C149.765 100.668 149.717 101.425 149.619 101.867C149.536 102.279 149.351 102.663 149.082 102.985C148.821 103.287 148.471 103.53 148.035 103.711C147.598 103.891 147.025 103.98 146.319 103.98C145.469 103.98 144.825 103.883 144.385 103.686C143.946 103.489 143.6 103.234 143.344 102.921C143.103 102.634 142.93 102.297 142.84 101.933C142.722 101.422 142.664 100.668 142.664 99.6709V94.9174H142.665V94.9174ZM10.8484 66.3195V83.1797H17.1647V66.3195H25.242V62.2552H2.73328V66.3195H10.8484V66.3195ZM35.9112 83.753C41.9595 83.753 46.5536 81.1468 46.5536 75.5575C46.5536 70.0265 41.9981 67.4266 35.9112 67.4266C30.4757 67.4266 25.2696 69.5786 25.2696 75.5575C25.2696 81.1468 29.8637 83.753 35.9112 83.753ZM35.9112 80.6981C31.7768 80.6981 31.3178 77.4989 31.3178 75.5567C31.3178 70.7126 34.6101 70.4744 35.9112 70.4744C37.3661 70.4744 40.5054 70.7133 40.5054 75.5567C40.5054 77.4705 40.1221 80.6981 35.9112 80.6981ZM52.7439 67.9936V88.713H58.5626V81.6239C60.5151 83.6032 63.6922 83.7522 64.4579 83.7522C70.0086 83.7522 73.4152 80.4284 73.4152 75.6158C73.4152 70.5951 70.0473 67.4266 64.5723 67.4266C63.1947 67.4266 60.5143 67.6348 58.2945 69.8167H58.1802L58.2181 67.9936H52.7439V67.9936ZM58.2945 75.5575C58.2945 71.3126 61.0892 70.4752 62.8493 70.4752C64.5723 70.4752 67.3669 71.3126 67.3669 75.5575C67.3669 78.1865 66.1802 80.6989 62.8493 80.6989C59.4427 80.6981 58.2945 78.1865 58.2945 75.5575ZM86.5353 70.0864L97.1012 83.1797H103.531V62.2552H97.2148V75.257H97.1012L86.5353 62.2552H80.1424V83.1797H86.4588V70.0864H86.5353V70.0864ZM124.997 78.7858C124.499 80.1303 122.737 80.6989 121.054 80.6989C117.263 80.6989 116.421 78.1574 116.382 76.693H131.313L131.274 75.8563C131.197 74.0016 130.699 67.4274 121.245 67.4274C114.89 67.4274 110.334 70.297 110.334 75.5583C110.334 83.3035 118.22 83.7538 120.786 83.7538C124.383 83.7538 129.36 83.0898 130.89 78.7866H124.997V78.7858V78.7858ZM116.382 74.1515C116.497 72.5972 117.722 70.4752 121.167 70.4752C122.584 70.4752 125.187 70.8939 125.264 74.1515H116.382ZM135.665 71.043H139.188V79.1738C139.188 82.2815 140.489 83.6032 144.394 83.6032C145.657 83.6032 147.648 83.4226 149.141 83.1797V80.1303C148.544 80.3056 147.925 80.3964 147.303 80.4C144.816 80.4 145.007 79.2637 145.007 78.3379V71.0437H149.141V67.9944H145.007V63.4507H139.188V67.9944H135.666V71.043H135.665V71.043Z"
                  />

                  <path
                    d="M28.4909 54.8238C28.5602 54.3341 28.6304 53.8444 28.7353 53.3547L30.4481 51.6412C31.4267 51.1515 31.4267 51.1515 31.9156 50.6618C32.2448 50.593 32.5713 50.5114 32.8942 50.4173V49.4379H33.8728V48.4586C34.1874 48.3884 34.5021 48.319 34.8514 48.2133C35.3403 47.7236 35.3403 47.7236 37.2636 46.745L38.7311 45.2759C39.7097 44.7862 40.1994 44.2965 41.178 43.8076L42.1566 42.8282C44.1138 41.8488 44.6035 41.3599 45.5821 40.8702L46.0718 40.3805C49.3231 38.7719 52.5735 37.1277 55.8595 35.4844C58.7961 34.505 62.2208 33.0714 63.6891 32.5817C64.0037 32.4421 64.3184 32.267 64.6677 32.092C68.0585 31.2868 71.484 30.4833 74.9095 29.6443C81.7613 28.6649 81.7613 28.6649 86.1647 28.1752H99.8675C103.783 29.1546 103.783 29.1546 105.25 29.6443C106.228 30.134 107.662 30.6237 108.64 31.1126C109.13 31.2529 109.62 31.4272 110.109 31.6023C110.597 32.092 110.597 32.092 111.577 32.5817C115.002 33.5264 115.98 34.0153 116.96 34.2605C117.029 34.5751 117.1 34.8898 117.205 35.2399L117.693 35.7296C118.183 37.1987 118.183 37.1987 119.162 39.1575L121.608 41.6052C122.098 42.5846 122.588 43.0735 123.077 44.0529L123.565 44.5426C124.055 46.0109 124.055 46.0109 124.545 46.9903V51.8856C124.055 53.3547 123.565 54.3341 123.32 54.5794C120.384 54.5794 120.384 54.5794 117.937 54.3341C117.868 54.0187 117.799 53.7041 117.692 53.3547L116.225 51.8856C116.084 51.571 115.911 51.2564 115.735 50.9063C115.328 50.4977 114.92 50.0898 114.512 49.6824C114.198 49.5428 113.883 49.3678 113.534 49.1927L112.067 47.7236C110.773 47.0943 109.479 46.4296 108.151 45.7648C107.662 45.2751 107.662 45.2751 106.718 44.7854C106.062 44.6348 105.41 44.4716 104.761 44.2957L104.271 43.806C103.127 43.6573 101.985 43.4941 100.845 43.3163C100.531 43.1768 100.217 43.0017 99.8675 42.8267C98.0838 42.6871 96.3024 42.512 94.4848 42.337H82.7392C81.621 42.4765 80.4673 42.6516 79.3137 42.8267H71.029C68.5821 43.3164 64.178 43.806 62.2208 44.2957C59.2842 44.7854 57.327 45.2751 54.3904 45.7648C53.4118 46.2545 45.5821 48.703 44.6035 49.1927C43.1352 49.6824 42.1566 50.1721 40.6883 50.661C39.7097 51.1507 39.7097 51.1507 38.2414 51.6404L37.7517 52.1301C36.3189 52.6198 36.3189 52.6198 33.3823 54.0889C32.753 54.2293 32.0891 54.4027 31.4251 54.5786C30.4489 54.648 29.4695 54.7189 28.4909 54.8238V54.8238ZM42.1582 34.9931C41.1768 34.8471 40.198 34.6839 39.2224 34.5034C38.7327 34.0137 38.7327 34.0137 37.7541 33.524L35.3419 31.1102C34.8475 30.963 34.3581 30.7997 33.8744 30.6205L33.3847 30.1308C32.895 29.9912 32.4061 29.8162 31.9164 29.6411L31.4267 29.1514C31.112 29.0812 30.7974 29.0111 30.4481 28.9062C30.3779 28.5915 30.3077 28.2769 30.2028 27.9268C29.9579 27.682 29.7132 27.437 29.4687 27.1918C29.1394 27.123 28.8129 27.0412 28.4901 26.9466C28.4199 26.632 28.3497 26.3173 28.2448 25.9672C27.7551 25.4775 27.7551 25.4775 27.2662 24.4981V21.5607L28.2448 20.5813C28.315 19.9521 28.3844 19.2873 28.4901 18.6233C28.8039 18.6935 29.1193 18.7637 29.4687 18.8686H32.8942C33.3839 19.3583 33.3839 19.3583 34.3625 19.848C35.8308 20.3377 35.8308 20.3377 36.8094 20.8274C37.2783 21.3257 37.7563 21.8155 38.243 22.2965C38.5568 22.436 38.8723 22.6111 39.2216 22.7862L40.6891 24.2552C41.0037 24.3254 41.3184 24.3948 41.6677 24.4997V25.4791H42.6463V26.4585C43.6249 26.7037 43.6249 26.7037 43.8694 26.9482C44.8488 28.907 45.3377 29.3967 45.8266 30.3753L46.3163 30.865V33.7684L45.0924 34.9923L42.1582 34.9931ZM125.28 34.5034C124.951 34.4346 124.624 34.3527 124.302 34.2581C124.237 33.9392 124.155 33.6238 124.057 33.3134L123.567 32.8237C123.079 28.4173 123.079 28.4173 123.079 26.4585C124.057 24.4997 124.057 24.4997 124.302 24.2552C124.792 24.1851 125.28 24.1149 125.769 24.01V23.0306C126.083 22.9612 126.399 22.891 126.749 22.7862C127.237 22.2965 128.216 21.8068 128.706 21.3171C129.02 21.1767 129.334 21.0024 129.684 20.8274L135.067 15.4415C135.38 15.3713 135.697 15.3019 136.046 15.1962V14.2169C136.36 14.1475 136.674 14.0773 137.024 13.9724L139.471 11.5239C139.785 11.3843 140.1 11.2093 140.449 11.0342L141.917 9.56513H145.308C146.042 10.2993 146.042 10.2993 146.531 11.2787V17.6439C146.672 17.9586 146.845 18.274 147.021 18.6233V21.5615C146.707 22.1908 146.391 22.8555 146.042 23.5195C145.635 23.9283 145.227 24.3362 144.819 24.7434C143.841 25.2331 143.351 25.7228 142.371 26.2124C141.903 26.711 141.425 27.2008 140.939 27.6815C139.96 28.1712 139.471 28.6609 138.491 29.1506L137.024 30.6197L134.088 32.0888C133.598 32.5785 132.619 33.0682 132.131 33.5224C131.326 33.662 130.523 33.8371 129.683 34.0121C129.369 34.1517 129.055 34.3268 128.705 34.5018C127.587 34.5034 126.433 34.5034 125.28 34.5034V34.5034ZM69.0734 23.2774C67.1162 22.7877 67.1162 22.7877 66.1376 22.298C65.8923 22.0528 65.4034 21.0742 64.9137 20.5845C64.7741 19.7802 64.5991 18.9758 64.424 18.1368L63.9343 17.6471C63.7875 17.1524 63.6244 16.6627 63.4454 16.1788C62.9557 15.6891 62.466 14.7097 61.9771 14.22L60.5096 11.2818V7.36504C60.6492 7.05041 60.8242 6.73577 60.9985 6.38565C61.0687 5.58132 61.1389 4.77698 61.2438 3.93796C63.8302 4.00735 66.4514 4.07753 69.0734 4.1832C70.052 4.6729 70.052 4.6729 71.0306 4.91735C71.1 5.23199 71.1702 5.54662 71.2751 5.89674L71.7648 6.38644C72.2198 7.85553 72.2198 7.85553 72.7087 8.83413C72.849 9.63847 73.0233 10.4436 73.1984 11.2818C73.3379 11.5965 73.5122 11.9111 73.6873 12.2612C73.8276 13.7303 74.0019 15.1994 74.177 16.6677V20.5845C74.0374 20.8991 73.8623 21.2145 73.6873 21.5639L72.4642 22.7877C70.052 23.2774 70.052 23.2774 69.0734 23.2774V23.2774ZM103.294 21.8083C102.489 21.5631 101.686 21.3186 100.846 21.0734C100.778 20.7437 100.696 20.417 100.601 20.094L100.113 19.6043V14.7081C100.427 13.5892 100.741 12.4347 101.091 11.281C101.58 10.7913 101.58 10.7913 102.558 8.83335L104.026 7.36425C104.515 6.38486 105.005 5.89516 105.495 4.91656C105.74 4.67132 105.74 4.67132 107.172 4.42686C107.243 4.11223 107.312 3.79759 107.417 3.44747L109.62 1.24423C110.597 0.754533 110.597 0.754532 111.087 0.264836C112.381 0.194654 113.673 0.124471 115.002 0.0195923C115.072 0.334228 115.143 0.648865 115.248 0.998986L116.225 1.97838V5.40626C115.107 7.67968 113.954 9.9531 112.8 12.2604L112.31 12.7501C112.171 13.2398 111.996 13.7295 111.822 14.2192C111.332 14.7089 110.843 15.6883 110.353 16.178C110.214 16.4926 110.039 16.8073 109.865 17.1566L107.908 19.1154C107.837 19.43 107.767 19.7447 107.662 20.0948C107.349 20.165 107.032 20.2352 106.719 20.34C106.229 20.8297 105.251 21.3194 104.761 21.8091L103.294 21.8083V21.8083ZM5.87964 90.4219H149.499V91.4919H5.87964V90.4219ZM7.27539 99.428C7.27539 98.5196 7.41024 97.7571 7.68229 97.1412C7.88475 96.6884 8.16559 96.2749 8.51186 95.9197C8.83729 95.5777 9.22867 95.3051 9.66237 95.1185C10.2183 94.8812 10.857 94.766 11.5825 94.766C12.8955 94.766 13.9443 95.1729 14.7328 95.9875C15.5206 96.8005 15.9149 97.9345 15.9149 99.3839C15.9149 100.824 15.523 101.948 14.7407 102.763C13.9592 103.573 12.9144 103.98 11.607 103.98C10.2822 103.98 9.22866 103.576 8.44719 102.769C7.66573 101.959 7.27539 100.845 7.27539 99.428V99.428ZM9.12772 99.3681C9.12772 100.375 9.36193 101.141 9.82639 101.663C10.2932 102.183 10.8838 102.442 11.6014 102.442C12.3167 102.442 12.9057 102.185 13.3662 101.666C13.8244 101.15 14.0547 100.375 14.0547 99.3421C14.0547 98.3225 13.8307 97.5599 13.3844 97.0568C12.9365 96.5545 12.3411 96.3037 11.6014 96.3037C10.8586 96.3037 10.2617 96.5577 9.80746 97.0663C9.35562 97.5757 9.12772 98.3414 9.12772 99.3681V99.3681ZM17.3209 103.829V94.9174H20.2054C21.2984 94.9174 22.012 94.964 22.3432 95.0515C22.8526 95.1856 23.2824 95.475 23.627 95.9229C23.9708 96.3708 24.1435 96.9504 24.1435 97.6585C24.1435 98.205 24.0442 98.6655 23.8446 99.0369C23.6669 99.3869 23.4075 99.6891 23.0884 99.9177C22.8089 100.118 22.4923 100.261 22.1571 100.338C21.7281 100.422 21.106 100.467 20.2906 100.467H19.1188V103.828H17.3209V103.829V103.829ZM19.1188 96.4252V98.9525H20.1021C20.8111 98.9525 21.2858 98.9076 21.5247 98.8137C21.7636 98.7199 21.9497 98.5748 22.0869 98.3761C22.2218 98.1758 22.2904 97.9463 22.2904 97.6829C22.2904 97.358 22.195 97.0915 22.0041 96.8786C21.8154 96.6686 21.5605 96.5295 21.2818 96.4843C21.0665 96.4425 20.6352 96.4244 19.9878 96.4244H19.1188V96.4252V96.4252ZM25.6197 103.829V94.9174H32.2231V96.4252H27.4176V98.4013H31.8888V99.9012H27.4176V102.327H32.3934V103.828H25.6197V103.829ZM33.9233 103.829V94.9174H37.7099C38.6617 94.9174 39.3525 94.9979 39.7838 95.158C40.2152 95.318 40.5614 95.6011 40.8208 96.0112C41.0795 96.422 41.208 96.8888 41.208 97.4156C41.208 98.0843 41.0108 98.6371 40.6189 99.0732C40.2262 99.5077 39.638 99.7829 38.8565 99.8956C39.246 100.124 39.5678 100.373 39.8209 100.644C40.074 100.917 40.4139 101.397 40.8429 102.09L41.9319 103.829H39.7807L38.4811 101.888C38.019 101.195 37.7036 100.761 37.5333 100.579C37.3848 100.414 37.1991 100.287 36.9915 100.208C36.8007 100.142 36.5003 100.108 36.0855 100.108H35.7228V103.829H33.9233V103.829ZM35.7235 98.6844H37.0531C37.9157 98.6844 38.4551 98.6489 38.6704 98.5764C38.8757 98.51 39.053 98.3771 39.1743 98.1987C39.2949 98.0196 39.3572 97.7981 39.3572 97.5299C39.3572 97.2295 39.276 96.989 39.1167 96.8045C38.9574 96.6199 38.7311 96.5025 38.4386 96.4536C38.2935 96.4354 37.8558 96.4244 37.1256 96.4244H35.7235V98.6844V98.6844ZM50.9341 103.829H48.9761L48.1986 101.804H44.6374L43.9033 103.829H41.9958L45.4646 94.9174H47.3667L50.9341 103.829V103.829ZM47.6221 100.303L46.3944 96.9969L45.1918 100.303H47.6221ZM52.9662 103.829V96.4252H50.3238V94.9174H57.4019V96.4252H54.7657V103.829H52.9662ZM57.9768 99.428C57.9768 98.5196 58.1116 97.7571 58.3836 97.1412C58.5858 96.6882 58.8667 96.2747 59.2132 95.9197C59.5386 95.5777 59.93 95.3051 60.3637 95.1185C60.9197 94.8812 61.5584 94.766 62.2839 94.766C63.5968 94.766 64.6464 95.1729 65.4342 95.9875C66.2227 96.8005 66.6162 97.9345 66.6162 99.3839C66.6162 100.824 66.2243 101.948 65.4428 102.763C64.6606 103.573 63.6158 103.98 62.3091 103.98C60.9843 103.98 59.9308 103.576 59.1486 102.769C58.3663 101.959 57.9768 100.845 57.9768 99.428V99.428ZM59.8291 99.3681C59.8291 100.375 60.0633 101.141 60.5277 101.663C60.9946 102.183 61.5852 102.442 62.3028 102.442C63.0188 102.442 63.6071 102.185 64.0676 101.666C64.5258 101.15 64.756 100.375 64.756 99.3421C64.756 98.3225 64.5321 97.5599 64.0857 97.0568C63.6378 96.5545 63.0425 96.3037 62.302 96.3037C61.56 96.3037 60.963 96.5577 60.5088 97.0663C60.057 97.5757 59.8291 98.3414 59.8291 99.3681V99.3681ZM68.0262 103.829V94.9174H71.8129C72.7646 94.9174 73.4554 94.9979 73.8868 95.158C74.3181 95.318 74.6643 95.6011 74.9237 96.0112C75.1832 96.422 75.3117 96.8888 75.3117 97.4156C75.3117 98.0843 75.1146 98.6371 74.7226 99.0732C74.3307 99.5077 73.7417 99.7829 72.9602 99.8956C73.3498 100.124 73.6715 100.373 73.9246 100.644C74.1777 100.917 74.5176 101.397 74.9474 102.09L76.0356 103.829H73.8852L72.5856 101.888C72.1228 101.195 71.8081 100.761 71.6378 100.579C71.4893 100.414 71.3036 100.287 71.096 100.208C70.9052 100.142 70.6048 100.108 70.19 100.108H69.8273V103.829H68.0262V103.829ZM69.8257 98.6844H71.1552C72.0179 98.6844 72.5565 98.6489 72.7725 98.5764C72.9862 98.5038 73.1534 98.3777 73.2764 98.1987C73.3971 98.0196 73.4586 97.7981 73.4586 97.5299C73.4586 97.2295 73.3774 96.989 73.2181 96.8045C73.058 96.6199 72.8325 96.5025 72.5399 96.4536C72.3948 96.4354 71.9572 96.4244 71.2277 96.4244H69.8257V98.6844V98.6844ZM80.409 103.829V94.9174H82.2061V103.829H80.409ZM83.9401 103.829V94.9174H85.69L89.3355 100.869V94.9174H91.0064V103.829H89.2014L85.6111 98.0181V103.829H83.9401ZM94.909 103.829V96.4252H92.2674V94.9174H99.3463V96.4252H96.7093V103.829H94.909V103.829ZM100.509 103.829V94.9174H107.112V96.4252H102.307V98.4013H106.778V99.9012H102.307V102.327H107.282V103.828H100.509V103.829V103.829ZM108.812 103.829V94.9174H112.6C113.551 94.9174 114.241 94.9979 114.673 95.158C115.104 95.318 115.45 95.6011 115.709 96.0112C115.969 96.422 116.097 96.8888 116.097 97.4156C116.097 98.0843 115.9 98.6371 115.509 99.0732C115.116 99.5077 114.528 99.7829 113.745 99.8956C114.135 100.124 114.457 100.373 114.71 100.644C114.964 100.917 115.303 101.397 115.733 102.09L116.822 103.829H114.671L113.372 101.888C112.908 101.195 112.594 100.761 112.423 100.579C112.275 100.414 112.089 100.287 111.882 100.208C111.691 100.142 111.391 100.108 110.975 100.108H110.613V103.829H108.812V103.829ZM110.612 98.6844H111.942C112.805 98.6844 113.343 98.6489 113.559 98.5764C113.765 98.51 113.942 98.3771 114.063 98.1987C114.183 98.0196 114.246 97.7981 114.246 97.5299C114.246 97.2295 114.164 96.989 114.006 96.8045C113.846 96.6199 113.619 96.5025 113.327 96.4536C113.182 96.4354 112.745 96.4244 112.015 96.4244H110.613V98.6844H110.612V98.6844ZM117.808 103.829V94.9174H119.558L123.203 100.869V94.9174H124.876V103.829H123.069L119.479 98.0181V103.829H117.808ZM126.776 103.829V94.9174H133.378V96.4252H128.573V98.4013H133.044V99.9012H128.573V102.327H133.549V103.828H126.776V103.829ZM137.077 103.829V96.4252H134.436V94.9174H141.513V96.4252H138.878V103.829H137.077ZM142.665 94.9174H144.462V99.7427C144.462 100.51 144.485 101.008 144.528 101.234C144.606 101.599 144.79 101.891 145.078 102.111C145.368 102.333 145.763 102.443 146.266 102.443C146.777 102.443 147.162 102.339 147.421 102.13C147.681 101.922 147.837 101.665 147.888 101.362C147.941 101.056 147.967 100.553 147.967 99.8475V94.9174H149.765V99.5983C149.765 100.668 149.717 101.425 149.619 101.867C149.536 102.279 149.351 102.663 149.082 102.985C148.821 103.287 148.471 103.53 148.035 103.711C147.598 103.891 147.025 103.98 146.319 103.98C145.469 103.98 144.825 103.883 144.385 103.686C143.946 103.489 143.6 103.234 143.344 102.921C143.103 102.634 142.93 102.297 142.84 101.933C142.722 101.422 142.664 100.668 142.664 99.6709V94.9174H142.665V94.9174ZM10.8484 66.3195V83.1797H17.1647V66.3195H25.242V62.2552H2.73328V66.3195H10.8484V66.3195ZM35.9112 83.753C41.9595 83.753 46.5536 81.1468 46.5536 75.5575C46.5536 70.0265 41.9981 67.4266 35.9112 67.4266C30.4757 67.4266 25.2696 69.5786 25.2696 75.5575C25.2696 81.1468 29.8637 83.753 35.9112 83.753ZM35.9112 80.6981C31.7768 80.6981 31.3178 77.4989 31.3178 75.5567C31.3178 70.7126 34.6101 70.4744 35.9112 70.4744C37.3661 70.4744 40.5054 70.7133 40.5054 75.5567C40.5054 77.4705 40.1221 80.6981 35.9112 80.6981ZM52.7439 67.9936V88.713H58.5626V81.6239C60.5151 83.6032 63.6922 83.7522 64.4579 83.7522C70.0086 83.7522 73.4152 80.4284 73.4152 75.6158C73.4152 70.5951 70.0473 67.4266 64.5723 67.4266C63.1947 67.4266 60.5143 67.6348 58.2945 69.8167H58.1802L58.2181 67.9936H52.7439V67.9936ZM58.2945 75.5575C58.2945 71.3126 61.0892 70.4752 62.8493 70.4752C64.5723 70.4752 67.3669 71.3126 67.3669 75.5575C67.3669 78.1865 66.1802 80.6989 62.8493 80.6989C59.4427 80.6981 58.2945 78.1865 58.2945 75.5575ZM86.5353 70.0864L97.1012 83.1797H103.531V62.2552H97.2148V75.257H97.1012L86.5353 62.2552H80.1424V83.1797H86.4588V70.0864H86.5353V70.0864ZM124.997 78.7858C124.499 80.1303 122.737 80.6989 121.054 80.6989C117.263 80.6989 116.421 78.1574 116.382 76.693H131.313L131.274 75.8563C131.197 74.0016 130.699 67.4274 121.245 67.4274C114.89 67.4274 110.334 70.297 110.334 75.5583C110.334 83.3035 118.22 83.7538 120.786 83.7538C124.383 83.7538 129.36 83.0898 130.89 78.7866H124.997V78.7858V78.7858ZM116.382 74.1515C116.497 72.5972 117.722 70.4752 121.167 70.4752C122.584 70.4752 125.187 70.8939 125.264 74.1515H116.382ZM135.665 71.043H139.188V79.1738C139.188 82.2815 140.489 83.6032 144.394 83.6032C145.657 83.6032 147.648 83.4226 149.141 83.1797V80.1303C148.544 80.3056 147.925 80.3964 147.303 80.4C144.816 80.4 145.007 79.2637 145.007 78.3379V71.0437H149.141V67.9944H145.007V63.4507H139.188V67.9944H135.666V71.043H135.665V71.043Z"
                  />
                  <path
                    d="M28.4909 54.8238C28.5602 54.3341 28.6304 53.8444 28.7353 53.3547L30.4481 51.6412C31.4267 51.1515 31.4267 51.1515 31.9156 50.6618C32.2448 50.593 32.5713 50.5114 32.8942 50.4173V49.4379H33.8728V48.4586C34.1874 48.3884 34.5021 48.319 34.8514 48.2133C35.3403 47.7236 35.3403 47.7236 37.2636 46.745L38.7311 45.2759C39.7097 44.7862 40.1994 44.2965 41.178 43.8076L42.1566 42.8282C44.1138 41.8488 44.6035 41.3599 45.5821 40.8702L46.0718 40.3805C49.3231 38.7719 52.5735 37.1277 55.8595 35.4844C58.7961 34.505 62.2208 33.0714 63.6891 32.5817C64.0037 32.4421 64.3184 32.267 64.6677 32.092C68.0585 31.2868 71.484 30.4833 74.9095 29.6443C81.7613 28.6649 81.7613 28.6649 86.1647 28.1752H99.8675C103.783 29.1546 103.783 29.1546 105.25 29.6443C106.228 30.134 107.662 30.6237 108.64 31.1126C109.13 31.2529 109.62 31.4272 110.109 31.6023C110.597 32.092 110.597 32.092 111.577 32.5817C115.002 33.5264 115.98 34.0153 116.96 34.2605C117.029 34.5751 117.1 34.8898 117.205 35.2399L117.693 35.7296C118.183 37.1987 118.183 37.1987 119.162 39.1575L121.608 41.6052C122.098 42.5846 122.588 43.0735 123.077 44.0529L123.565 44.5426C124.055 46.0109 124.055 46.0109 124.545 46.9903V51.8856C124.055 53.3547 123.565 54.3341 123.32 54.5794C120.384 54.5794 120.384 54.5794 117.937 54.3341C117.868 54.0187 117.799 53.7041 117.692 53.3547L116.225 51.8856C116.084 51.571 115.911 51.2564 115.735 50.9063C115.328 50.4977 114.92 50.0898 114.512 49.6824C114.198 49.5428 113.883 49.3678 113.534 49.1927L112.067 47.7236C110.773 47.0943 109.479 46.4296 108.151 45.7648C107.662 45.2751 107.662 45.2751 106.718 44.7854C106.062 44.6348 105.41 44.4716 104.761 44.2957L104.271 43.806C103.127 43.6573 101.985 43.4941 100.845 43.3163C100.531 43.1768 100.217 43.0017 99.8675 42.8267C98.0838 42.6871 96.3024 42.512 94.4848 42.337H82.7392C81.621 42.4765 80.4673 42.6516 79.3137 42.8267H71.029C68.5821 43.3164 64.178 43.806 62.2208 44.2957C59.2842 44.7854 57.327 45.2751 54.3904 45.7648C53.4118 46.2545 45.5821 48.703 44.6035 49.1927C43.1352 49.6824 42.1566 50.1721 40.6883 50.661C39.7097 51.1507 39.7097 51.1507 38.2414 51.6404L37.7517 52.1301C36.3189 52.6198 36.3189 52.6198 33.3823 54.0889C32.753 54.2293 32.0891 54.4027 31.4251 54.5786C30.4489 54.648 29.4695 54.7189 28.4909 54.8238V54.8238ZM42.1582 34.9931C41.1768 34.8471 40.198 34.6839 39.2224 34.5034C38.7327 34.0137 38.7327 34.0137 37.7541 33.524L35.3419 31.1102C34.8475 30.963 34.3581 30.7997 33.8744 30.6205L33.3847 30.1308C32.895 29.9912 32.4061 29.8162 31.9164 29.6411L31.4267 29.1514C31.112 29.0812 30.7974 29.0111 30.4481 28.9062C30.3779 28.5915 30.3077 28.2769 30.2028 27.9268C29.9579 27.682 29.7132 27.437 29.4687 27.1918C29.1394 27.123 28.8129 27.0412 28.4901 26.9466C28.4199 26.632 28.3497 26.3173 28.2448 25.9672C27.7551 25.4775 27.7551 25.4775 27.2662 24.4981V21.5607L28.2448 20.5813C28.315 19.9521 28.3844 19.2873 28.4901 18.6233C28.8039 18.6935 29.1193 18.7637 29.4687 18.8686H32.8942C33.3839 19.3583 33.3839 19.3583 34.3625 19.848C35.8308 20.3377 35.8308 20.3377 36.8094 20.8274C37.2783 21.3257 37.7563 21.8155 38.243 22.2965C38.5568 22.436 38.8723 22.6111 39.2216 22.7862L40.6891 24.2552C41.0037 24.3254 41.3184 24.3948 41.6677 24.4997V25.4791H42.6463V26.4585C43.6249 26.7037 43.6249 26.7037 43.8694 26.9482C44.8488 28.907 45.3377 29.3967 45.8266 30.3753L46.3163 30.865V33.7684L45.0924 34.9923L42.1582 34.9931ZM125.28 34.5034C124.951 34.4346 124.624 34.3527 124.302 34.2581C124.237 33.9392 124.155 33.6238 124.057 33.3134L123.567 32.8237C123.079 28.4173 123.079 28.4173 123.079 26.4585C124.057 24.4997 124.057 24.4997 124.302 24.2552C124.792 24.1851 125.28 24.1149 125.769 24.01V23.0306C126.083 22.9612 126.399 22.891 126.749 22.7862C127.237 22.2965 128.216 21.8068 128.706 21.3171C129.02 21.1767 129.334 21.0024 129.684 20.8274L135.067 15.4415C135.38 15.3713 135.697 15.3019 136.046 15.1962V14.2169C136.36 14.1475 136.674 14.0773 137.024 13.9724L139.471 11.5239C139.785 11.3843 140.1 11.2093 140.449 11.0342L141.917 9.56513H145.308C146.042 10.2993 146.042 10.2993 146.531 11.2787V17.6439C146.672 17.9586 146.845 18.274 147.021 18.6233V21.5615C146.707 22.1908 146.391 22.8555 146.042 23.5195C145.635 23.9283 145.227 24.3362 144.819 24.7434C143.841 25.2331 143.351 25.7228 142.371 26.2124C141.903 26.711 141.425 27.2008 140.939 27.6815C139.96 28.1712 139.471 28.6609 138.491 29.1506L137.024 30.6197L134.088 32.0888C133.598 32.5785 132.619 33.0682 132.131 33.5224C131.326 33.662 130.523 33.8371 129.683 34.0121C129.369 34.1517 129.055 34.3268 128.705 34.5018C127.587 34.5034 126.433 34.5034 125.28 34.5034V34.5034ZM69.0734 23.2774C67.1162 22.7877 67.1162 22.7877 66.1376 22.298C65.8923 22.0528 65.4034 21.0742 64.9137 20.5845C64.7741 19.7802 64.5991 18.9758 64.424 18.1368L63.9343 17.6471C63.7875 17.1524 63.6244 16.6627 63.4454 16.1788C62.9557 15.6891 62.466 14.7097 61.9771 14.22L60.5096 11.2818V7.36504C60.6492 7.05041 60.8242 6.73577 60.9985 6.38565C61.0687 5.58132 61.1389 4.77698 61.2438 3.93796C63.8302 4.00735 66.4514 4.07753 69.0734 4.1832C70.052 4.6729 70.052 4.6729 71.0306 4.91735C71.1 5.23199 71.1702 5.54662 71.2751 5.89674L71.7648 6.38644C72.2198 7.85553 72.2198 7.85553 72.7087 8.83413C72.849 9.63847 73.0233 10.4436 73.1984 11.2818C73.3379 11.5965 73.5122 11.9111 73.6873 12.2612C73.8276 13.7303 74.0019 15.1994 74.177 16.6677V20.5845C74.0374 20.8991 73.8623 21.2145 73.6873 21.5639L72.4642 22.7877C70.052 23.2774 70.052 23.2774 69.0734 23.2774V23.2774ZM103.294 21.8083C102.489 21.5631 101.686 21.3186 100.846 21.0734C100.778 20.7437 100.696 20.417 100.601 20.094L100.113 19.6043V14.7081C100.427 13.5892 100.741 12.4347 101.091 11.281C101.58 10.7913 101.58 10.7913 102.558 8.83335L104.026 7.36425C104.515 6.38486 105.005 5.89516 105.495 4.91656C105.74 4.67132 105.74 4.67132 107.172 4.42686C107.243 4.11223 107.312 3.79759 107.417 3.44747L109.62 1.24423C110.597 0.754533 110.597 0.754532 111.087 0.264836C112.381 0.194654 113.673 0.124471 115.002 0.0195923C115.072 0.334228 115.143 0.648865 115.248 0.998986L116.225 1.97838V5.40626C115.107 7.67968 113.954 9.9531 112.8 12.2604L112.31 12.7501C112.171 13.2398 111.996 13.7295 111.822 14.2192C111.332 14.7089 110.843 15.6883 110.353 16.178C110.214 16.4926 110.039 16.8073 109.865 17.1566L107.908 19.1154C107.837 19.43 107.767 19.7447 107.662 20.0948C107.349 20.165 107.032 20.2352 106.719 20.34C106.229 20.8297 105.251 21.3194 104.761 21.8091L103.294 21.8083V21.8083ZM5.87964 90.4219H149.499V91.4919H5.87964V90.4219ZM7.27539 99.428C7.27539 98.5196 7.41024 97.7571 7.68229 97.1412C7.88475 96.6884 8.16559 96.2749 8.51186 95.9197C8.83729 95.5777 9.22867 95.3051 9.66237 95.1185C10.2183 94.8812 10.857 94.766 11.5825 94.766C12.8955 94.766 13.9443 95.1729 14.7328 95.9875C15.5206 96.8005 15.9149 97.9345 15.9149 99.3839C15.9149 100.824 15.523 101.948 14.7407 102.763C13.9592 103.573 12.9144 103.98 11.607 103.98C10.2822 103.98 9.22866 103.576 8.44719 102.769C7.66573 101.959 7.27539 100.845 7.27539 99.428V99.428ZM9.12772 99.3681C9.12772 100.375 9.36193 101.141 9.82639 101.663C10.2932 102.183 10.8838 102.442 11.6014 102.442C12.3167 102.442 12.9057 102.185 13.3662 101.666C13.8244 101.15 14.0547 100.375 14.0547 99.3421C14.0547 98.3225 13.8307 97.5599 13.3844 97.0568C12.9365 96.5545 12.3411 96.3037 11.6014 96.3037C10.8586 96.3037 10.2617 96.5577 9.80746 97.0663C9.35562 97.5757 9.12772 98.3414 9.12772 99.3681V99.3681ZM17.3209 103.829V94.9174H20.2054C21.2984 94.9174 22.012 94.964 22.3432 95.0515C22.8526 95.1856 23.2824 95.475 23.627 95.9229C23.9708 96.3708 24.1435 96.9504 24.1435 97.6585C24.1435 98.205 24.0442 98.6655 23.8446 99.0369C23.6669 99.3869 23.4075 99.6891 23.0884 99.9177C22.8089 100.118 22.4923 100.261 22.1571 100.338C21.7281 100.422 21.106 100.467 20.2906 100.467H19.1188V103.828H17.3209V103.829V103.829ZM19.1188 96.4252V98.9525H20.1021C20.8111 98.9525 21.2858 98.9076 21.5247 98.8137C21.7636 98.7199 21.9497 98.5748 22.0869 98.3761C22.2218 98.1758 22.2904 97.9463 22.2904 97.6829C22.2904 97.358 22.195 97.0915 22.0041 96.8786C21.8154 96.6686 21.5605 96.5295 21.2818 96.4843C21.0665 96.4425 20.6352 96.4244 19.9878 96.4244H19.1188V96.4252V96.4252ZM25.6197 103.829V94.9174H32.2231V96.4252H27.4176V98.4013H31.8888V99.9012H27.4176V102.327H32.3934V103.828H25.6197V103.829ZM33.9233 103.829V94.9174H37.7099C38.6617 94.9174 39.3525 94.9979 39.7838 95.158C40.2152 95.318 40.5614 95.6011 40.8208 96.0112C41.0795 96.422 41.208 96.8888 41.208 97.4156C41.208 98.0843 41.0108 98.6371 40.6189 99.0732C40.2262 99.5077 39.638 99.7829 38.8565 99.8956C39.246 100.124 39.5678 100.373 39.8209 100.644C40.074 100.917 40.4139 101.397 40.8429 102.09L41.9319 103.829H39.7807L38.4811 101.888C38.019 101.195 37.7036 100.761 37.5333 100.579C37.3848 100.414 37.1991 100.287 36.9915 100.208C36.8007 100.142 36.5003 100.108 36.0855 100.108H35.7228V103.829H33.9233V103.829ZM35.7235 98.6844H37.0531C37.9157 98.6844 38.4551 98.6489 38.6704 98.5764C38.8757 98.51 39.053 98.3771 39.1743 98.1987C39.2949 98.0196 39.3572 97.7981 39.3572 97.5299C39.3572 97.2295 39.276 96.989 39.1167 96.8045C38.9574 96.6199 38.7311 96.5025 38.4386 96.4536C38.2935 96.4354 37.8558 96.4244 37.1256 96.4244H35.7235V98.6844V98.6844ZM50.9341 103.829H48.9761L48.1986 101.804H44.6374L43.9033 103.829H41.9958L45.4646 94.9174H47.3667L50.9341 103.829V103.829ZM47.6221 100.303L46.3944 96.9969L45.1918 100.303H47.6221ZM52.9662 103.829V96.4252H50.3238V94.9174H57.4019V96.4252H54.7657V103.829H52.9662ZM57.9768 99.428C57.9768 98.5196 58.1116 97.7571 58.3836 97.1412C58.5858 96.6882 58.8667 96.2747 59.2132 95.9197C59.5386 95.5777 59.93 95.3051 60.3637 95.1185C60.9197 94.8812 61.5584 94.766 62.2839 94.766C63.5968 94.766 64.6464 95.1729 65.4342 95.9875C66.2227 96.8005 66.6162 97.9345 66.6162 99.3839C66.6162 100.824 66.2243 101.948 65.4428 102.763C64.6606 103.573 63.6158 103.98 62.3091 103.98C60.9843 103.98 59.9308 103.576 59.1486 102.769C58.3663 101.959 57.9768 100.845 57.9768 99.428V99.428ZM59.8291 99.3681C59.8291 100.375 60.0633 101.141 60.5277 101.663C60.9946 102.183 61.5852 102.442 62.3028 102.442C63.0188 102.442 63.6071 102.185 64.0676 101.666C64.5258 101.15 64.756 100.375 64.756 99.3421C64.756 98.3225 64.5321 97.5599 64.0857 97.0568C63.6378 96.5545 63.0425 96.3037 62.302 96.3037C61.56 96.3037 60.963 96.5577 60.5088 97.0663C60.057 97.5757 59.8291 98.3414 59.8291 99.3681V99.3681ZM68.0262 103.829V94.9174H71.8129C72.7646 94.9174 73.4554 94.9979 73.8868 95.158C74.3181 95.318 74.6643 95.6011 74.9237 96.0112C75.1832 96.422 75.3117 96.8888 75.3117 97.4156C75.3117 98.0843 75.1146 98.6371 74.7226 99.0732C74.3307 99.5077 73.7417 99.7829 72.9602 99.8956C73.3498 100.124 73.6715 100.373 73.9246 100.644C74.1777 100.917 74.5176 101.397 74.9474 102.09L76.0356 103.829H73.8852L72.5856 101.888C72.1228 101.195 71.8081 100.761 71.6378 100.579C71.4893 100.414 71.3036 100.287 71.096 100.208C70.9052 100.142 70.6048 100.108 70.19 100.108H69.8273V103.829H68.0262V103.829ZM69.8257 98.6844H71.1552C72.0179 98.6844 72.5565 98.6489 72.7725 98.5764C72.9862 98.5038 73.1534 98.3777 73.2764 98.1987C73.3971 98.0196 73.4586 97.7981 73.4586 97.5299C73.4586 97.2295 73.3774 96.989 73.2181 96.8045C73.058 96.6199 72.8325 96.5025 72.5399 96.4536C72.3948 96.4354 71.9572 96.4244 71.2277 96.4244H69.8257V98.6844V98.6844ZM80.409 103.829V94.9174H82.2061V103.829H80.409ZM83.9401 103.829V94.9174H85.69L89.3355 100.869V94.9174H91.0064V103.829H89.2014L85.6111 98.0181V103.829H83.9401ZM94.909 103.829V96.4252H92.2674V94.9174H99.3463V96.4252H96.7093V103.829H94.909V103.829ZM100.509 103.829V94.9174H107.112V96.4252H102.307V98.4013H106.778V99.9012H102.307V102.327H107.282V103.828H100.509V103.829V103.829ZM108.812 103.829V94.9174H112.6C113.551 94.9174 114.241 94.9979 114.673 95.158C115.104 95.318 115.45 95.6011 115.709 96.0112C115.969 96.422 116.097 96.8888 116.097 97.4156C116.097 98.0843 115.9 98.6371 115.509 99.0732C115.116 99.5077 114.528 99.7829 113.745 99.8956C114.135 100.124 114.457 100.373 114.71 100.644C114.964 100.917 115.303 101.397 115.733 102.09L116.822 103.829H114.671L113.372 101.888C112.908 101.195 112.594 100.761 112.423 100.579C112.275 100.414 112.089 100.287 111.882 100.208C111.691 100.142 111.391 100.108 110.975 100.108H110.613V103.829H108.812V103.829ZM110.612 98.6844H111.942C112.805 98.6844 113.343 98.6489 113.559 98.5764C113.765 98.51 113.942 98.3771 114.063 98.1987C114.183 98.0196 114.246 97.7981 114.246 97.5299C114.246 97.2295 114.164 96.989 114.006 96.8045C113.846 96.6199 113.619 96.5025 113.327 96.4536C113.182 96.4354 112.745 96.4244 112.015 96.4244H110.613V98.6844H110.612V98.6844ZM117.808 103.829V94.9174H119.558L123.203 100.869V94.9174H124.876V103.829H123.069L119.479 98.0181V103.829H117.808ZM126.776 103.829V94.9174H133.378V96.4252H128.573V98.4013H133.044V99.9012H128.573V102.327H133.549V103.828H126.776V103.829ZM137.077 103.829V96.4252H134.436V94.9174H141.513V96.4252H138.878V103.829H137.077ZM142.665 94.9174H144.462V99.7427C144.462 100.51 144.485 101.008 144.528 101.234C144.606 101.599 144.79 101.891 145.078 102.111C145.368 102.333 145.763 102.443 146.266 102.443C146.777 102.443 147.162 102.339 147.421 102.13C147.681 101.922 147.837 101.665 147.888 101.362C147.941 101.056 147.967 100.553 147.967 99.8475V94.9174H149.765V99.5983C149.765 100.668 149.717 101.425 149.619 101.867C149.536 102.279 149.351 102.663 149.082 102.985C148.821 103.287 148.471 103.53 148.035 103.711C147.598 103.891 147.025 103.98 146.319 103.98C145.469 103.98 144.825 103.883 144.385 103.686C143.946 103.489 143.6 103.234 143.344 102.921C143.103 102.634 142.93 102.297 142.84 101.933C142.722 101.422 142.664 100.668 142.664 99.6709V94.9174H142.665V94.9174ZM10.8484 66.3195V83.1797H17.1647V66.3195H25.242V62.2552H2.73328V66.3195H10.8484V66.3195ZM35.9112 83.753C41.9595 83.753 46.5536 81.1468 46.5536 75.5575C46.5536 70.0265 41.9981 67.4266 35.9112 67.4266C30.4757 67.4266 25.2696 69.5786 25.2696 75.5575C25.2696 81.1468 29.8637 83.753 35.9112 83.753ZM35.9112 80.6981C31.7768 80.6981 31.3178 77.4989 31.3178 75.5567C31.3178 70.7126 34.6101 70.4744 35.9112 70.4744C37.3661 70.4744 40.5054 70.7133 40.5054 75.5567C40.5054 77.4705 40.1221 80.6981 35.9112 80.6981ZM52.7439 67.9936V88.713H58.5626V81.6239C60.5151 83.6032 63.6922 83.7522 64.4579 83.7522C70.0086 83.7522 73.4152 80.4284 73.4152 75.6158C73.4152 70.5951 70.0473 67.4266 64.5723 67.4266C63.1947 67.4266 60.5143 67.6348 58.2945 69.8167H58.1802L58.2181 67.9936H52.7439V67.9936ZM58.2945 75.5575C58.2945 71.3126 61.0892 70.4752 62.8493 70.4752C64.5723 70.4752 67.3669 71.3126 67.3669 75.5575C67.3669 78.1865 66.1802 80.6989 62.8493 80.6989C59.4427 80.6981 58.2945 78.1865 58.2945 75.5575ZM86.5353 70.0864L97.1012 83.1797H103.531V62.2552H97.2148V75.257H97.1012L86.5353 62.2552H80.1424V83.1797H86.4588V70.0864H86.5353V70.0864ZM124.997 78.7858C124.499 80.1303 122.737 80.6989 121.054 80.6989C117.263 80.6989 116.421 78.1574 116.382 76.693H131.313L131.274 75.8563C131.197 74.0016 130.699 67.4274 121.245 67.4274C114.89 67.4274 110.334 70.297 110.334 75.5583C110.334 83.3035 118.22 83.7538 120.786 83.7538C124.383 83.7538 129.36 83.0898 130.89 78.7866H124.997V78.7858V78.7858ZM116.382 74.1515C116.497 72.5972 117.722 70.4752 121.167 70.4752C122.584 70.4752 125.187 70.8939 125.264 74.1515H116.382ZM135.665 71.043H139.188V79.1738C139.188 82.2815 140.489 83.6032 144.394 83.6032C145.657 83.6032 147.648 83.4226 149.141 83.1797V80.1303C148.544 80.3056 147.925 80.3964 147.303 80.4C144.816 80.4 145.007 79.2637 145.007 78.3379V71.0437H149.141V67.9944H145.007V63.4507H139.188V67.9944H135.666V71.043H135.665V71.043Z"
                  />
                </symbol>
                <symbol id="logo2" viewBox="0 0 152 152">
            <path d="M28.5829 55.5931H33.648V61.5181H38.713V65.0726H33.648V73.9589C33.648 76.0324 33.648 77.218 35.4356 77.218H39.011V80.7725C37.5213 81.0687 36.6274 81.0687 35.1377 81.0687C28.8808 81.0687 28.5829 78.9952 28.5829 75.4392V55.5931ZM43.4809 61.5173H48.546V65.0719H48.8439C50.0365 62.9984 52.1221 60.9249 55.9954 60.9249C56.8892 60.9249 57.4851 60.9249 58.081 61.2211V65.9605C56.5913 65.6643 55.6974 65.6643 54.8036 65.6643C52.1221 65.6643 48.5467 66.8491 48.5467 71.293V80.7725H43.4816V61.5173H43.4809ZM75.9585 73.0695C75.9585 77.2172 71.4885 78.1051 68.8078 78.1051C67.0201 78.1051 64.6365 77.8089 64.6365 75.1438C64.6365 73.662 65.5304 72.7733 69.4037 72.1809C72.9797 71.8847 74.4695 71.5885 75.9592 70.9961V73.0695H75.9585ZM81.0243 67.1453C81.0243 64.7757 80.7263 60.628 70.5947 60.628C64.9337 60.628 61.0597 62.109 60.4646 67.4408H65.2317C65.5296 65.0711 67.3173 64.1825 70.5947 64.1825C73.5742 64.1825 76.2557 64.7749 76.2557 66.8484C76.2557 68.3295 75.3618 68.6257 68.2111 69.2181C64.9337 69.5143 59.272 70.1067 59.272 75.4378C59.272 79.29 62.2515 81.3634 67.3166 81.3634C72.9783 81.3634 75.3618 79.5862 76.5536 78.6968C76.5536 79.5862 76.8516 81.3634 80.129 81.3634C81.9166 81.3634 82.8112 81.0672 83.7043 80.7703V77.2158C83.4064 77.2158 82.5133 77.5105 82.2146 77.5105C81.9159 77.5105 81.0235 77.2158 81.0235 76.3264V67.1453H81.0243ZM83.705 61.5173H89.3675L95.0285 75.7354L100.987 61.5173H106.946L98.0072 80.7717H92.3462L83.705 61.5173ZM113.203 69.2188C114.098 65.0719 117.374 64.1825 119.759 64.1825C122.143 64.1825 125.42 65.3674 126.314 69.2188H113.203ZM131.379 72.1816V71.5885C131.379 65.9605 128.102 60.628 119.461 60.628C112.607 60.628 107.841 64.7749 107.841 71.2923C107.841 76.3279 111.118 81.3642 119.759 81.3642C127.207 81.3642 129.889 77.2172 131.082 75.1438H125.42C124.527 76.6248 123.036 77.8089 119.759 77.8089C114.693 77.8089 113.203 74.5513 113.203 72.1809H131.379V72.1816ZM135.55 55.5931H140.616V80.7717H135.55V55.5931Z"/>
            <path d="M16.9624 68.6264C16.9624 70.1075 15.7706 71.5885 13.9829 71.5885C12.1952 71.5885 11.0027 70.1075 11.0027 68.6264C11.0027 66.8491 12.1945 65.3681 13.9829 65.3681C15.7706 65.3681 16.9624 66.8491 16.9624 68.6264ZM16.9624 57.9621C16.9624 59.7394 15.7706 60.9249 13.9829 60.9249C12.1952 60.9249 11.0027 59.7401 11.0027 57.9621C11.0027 56.4811 12.1945 55 13.9829 55C15.7706 55 16.9624 56.4811 16.9624 57.9621ZM25.9015 63.2946C25.9015 64.7757 24.7097 66.2567 22.922 66.2567C21.1343 66.2567 19.9426 64.7757 19.9426 63.2946C19.9426 61.5174 21.1343 60.3325 22.922 60.3325C24.7097 60.3325 25.9015 61.5174 25.9015 63.2946ZM75.6606 92.6202C74.7675 95.2868 72.9791 96.4709 70.5955 96.4709C66.7222 96.4709 65.2325 93.8057 65.2325 91.4361C65.2325 88.4732 67.0202 86.1035 70.5955 86.1035C72.9791 86.1035 75.0655 87.2891 75.3627 89.6595H73.575C73.2771 88.474 72.3832 87.5861 70.5955 87.5861C68.212 87.5861 67.3181 89.0671 67.3181 91.1406C67.3181 93.2141 68.212 94.9913 70.5955 94.9913C72.3832 94.9913 73.2771 94.102 73.575 92.6216H75.6606V92.6202ZM77.4483 83.4384H79.236V87.8808C80.1305 86.3998 81.6195 86.1035 83.1107 86.1035C85.4928 86.1035 87.282 86.9929 87.282 89.3626V96.1762H85.4928V89.9543C85.4928 88.4732 84.5997 87.5861 82.5141 87.5861C80.7264 87.5861 79.236 88.474 79.236 90.5474V96.1769H77.4483V83.4384ZM97.1142 92.324C97.1142 93.8057 95.3265 94.9906 93.2409 94.9906C92.0484 94.9906 91.1553 94.3974 91.1553 93.5095C91.1553 92.324 91.7504 92.0285 93.2409 91.7323H95.3265C96.5176 91.4361 96.8162 91.4361 97.1142 91.1391V92.324ZM91.4532 89.3626C91.4532 87.8808 92.6443 87.5853 94.4319 87.5853C95.9217 87.5853 97.1142 87.8801 97.1142 89.0664C97.1142 89.9543 96.5176 90.2505 95.6245 90.2505L93.2409 90.5467C90.2607 90.8429 89.0697 91.7323 89.0697 93.5095C89.0697 94.6936 89.9628 96.4709 93.2409 96.4709C94.7306 96.4709 96.5176 95.8792 97.4121 94.6936C97.4121 95.8792 98.0073 96.1754 98.9019 96.1754H100.392V94.6936C100.094 94.6936 99.7964 94.9899 99.7964 94.9899C99.1998 94.9899 98.9019 94.6936 98.9019 94.1005V88.7694C98.9019 86.696 96.5183 86.1028 94.4319 86.1028C91.4532 86.1028 89.962 86.9922 89.6641 89.3619H91.4532V89.3626ZM101.881 86.3998H103.669V87.8808C104.562 86.3998 106.053 86.1035 107.542 86.1035C109.926 86.1035 111.714 86.9929 111.714 89.3626V96.1762H109.628V89.9543C109.628 88.4732 108.733 87.5861 106.946 87.5861C105.158 87.5861 103.669 88.474 103.669 90.5474V96.1769H101.881V86.3998ZM114.098 86.3998H115.885V87.8808C116.779 86.3998 118.269 86.1035 119.759 86.1035C122.142 86.1035 123.632 86.9929 123.632 89.3626V96.1762H121.844V89.9543C121.844 88.4732 120.95 87.5861 119.162 87.5861C117.374 87.5861 115.885 88.474 115.885 90.5474V96.1769H114.098V86.3998ZM127.803 90.2505C128.101 88.7694 129.591 87.5853 131.379 87.5853C133.168 87.5853 134.359 88.4732 134.657 90.2505H127.803ZM136.742 91.733V91.4368C136.742 87.5861 134.06 86.1043 131.379 86.1043C127.505 86.1043 125.718 88.474 125.718 91.1406C125.718 94.102 127.505 96.4716 131.379 96.4716C133.168 96.4716 135.55 95.5837 136.444 93.2141H134.359C133.762 94.3982 132.273 94.9913 131.379 94.9913C129.591 94.9913 127.803 93.8072 127.803 91.7337H136.742V91.733ZM138.828 83.4384H140.616V96.1762H138.828V83.4384Z" />
</symbol>
<symbol id="logo3" viewBox="0 0 152 152">
          <path d="M58.3651 78.0754C62.1652 77.4777 64.6634 74.0648 64.6634 70.1946C64.6634 67.0277 62.9396 64.9168 60.5818 64.1077C59.1742 63.6148 57.6617 63.5802 54.9167 63.5802H47.4924L41.7572 88.4213H46.4019L48.654 78.6393H53.8262L56.7825 88.4206H61.6384L58.3651 78.0754ZM51.257 67.4496H54.7401C56.288 67.4496 57.2036 67.4496 57.907 67.6956C58.9621 68.0828 59.8421 69.1032 59.8421 70.6165C59.8421 71.5312 59.4904 73.8535 57.0979 74.6626C56.2533 74.9441 55.2684 74.9788 53.7552 74.9788H49.4977L51.257 67.4496ZM83.8309 84.4099H69.6865L71.2691 77.4777H82.9864L83.9011 73.5018H72.1847L73.5568 67.6255H85.8709L86.7865 63.5794H69.897L64.1618 88.4206H82.9154L83.8309 84.4099ZM108.815 75.3313H97.906L96.9912 79.3072H103.571C103.149 81.4899 102.165 82.7555 101.496 83.3888C100.722 84.1284 99.2434 85.0077 96.8509 85.0077C93.1912 85.0077 90.7979 82.4385 90.7979 78.4634C90.7979 73.8535 93.9647 66.9922 99.9815 66.9922C104.345 66.9922 104.907 70.2293 105.12 71.461L109.728 70.4051C109.237 68.2595 108.216 66.2179 106.422 64.9168C104.732 63.685 102.199 63.0518 99.9468 63.0518C90.8334 63.0518 85.8725 71.7078 85.8725 78.7796C85.8725 84.9391 89.7073 88.9489 95.7603 88.9489C99.1377 88.9489 101.003 87.7519 102.269 86.7315L101.707 88.4213H105.788L108.815 75.3313ZM120.252 63.5794H115.572L109.838 88.4206H114.517L120.252 63.5794ZM145.294 63.5794H140.826L136.92 81.9118L129.319 63.5794H125.133L119.397 88.4206H123.936L127.807 70.1946L135.406 88.4206H139.559L145.294 63.5794ZM16.7054 65.6012C19.8068 65.4893 22.0235 67.5632 24.1676 69.5693C26.0877 71.3648 27.9014 73.0626 30.2135 73.0626C33.8132 73.0626 39.0619 68.0947 39.2835 67.8825L38.9129 67.4559C38.8671 67.4922 34.2761 71.0778 30.9429 71.0778C28.5701 71.0778 26.6074 69.354 24.5311 67.53C21.9541 65.2669 19.2903 62.9272 15.6432 63.864C13.2925 64.4689 10.2376 66.6981 10.1083 66.7927L10.3851 67.2816C10.4229 67.2667 14.1994 65.6919 16.7054 65.6012ZM29.3279 78.7788C26.9196 78.7788 24.8686 77.0259 22.6977 75.172C20.1041 72.9561 17.4222 70.6661 14.0259 71.5659C11.8613 72.14 8.63526 74.3945 8.49805 74.4907L8.77247 74.9819C8.81111 74.9654 12.6577 73.3165 15.0818 73.3031C17.7313 73.2873 19.9456 75.2414 22.0865 77.1315C24.2038 78.9996 26.2028 80.7629 28.5985 80.7629C32.1999 80.7629 37.3965 75.7043 37.6165 75.489L37.2396 75.0679C37.1938 75.1057 32.6588 78.7788 29.3279 78.7788ZM27.5395 86.3056C25.1675 86.3056 23.2047 84.5834 21.1277 82.7587C18.5506 80.4963 15.8869 78.1567 12.2398 79.0935C9.88908 79.6991 6.83419 81.9276 6.70486 82.023L6.98165 82.5111C7.0195 82.4953 10.7959 80.9214 13.302 80.8307C16.4034 80.7179 18.62 82.7926 20.7641 84.7979C22.6851 86.595 24.4988 88.2912 26.81 88.2912C30.4145 88.2912 35.5583 83.1427 35.776 82.9219L35.3927 82.5079C35.3478 82.5466 30.868 86.3056 27.5395 86.3056Z" />
</symbol>
<symbol id="logo4" viewBox="0 0 152 152">
<path d="M107.822 77.1206C107.822 75.1176 107.278 73.6919 106.192 72.8095C105.174 71.8924 103.477 71.4177 101.169 71.3838C99.4376 71.3838 97.7738 71.5194 96.1462 71.7907C95.863 71.8298 95.6005 71.9612 95.3994 72.1644C95.2284 72.4275 95.1345 72.7332 95.1282 73.0468V74.3708C95.1282 74.6082 95.2299 74.7107 95.3994 74.7107C97.2498 74.4036 99.1244 74.2671 101 74.303C101.882 74.303 102.798 74.5065 103.681 74.9134C104.258 75.1515 104.529 75.6601 104.529 76.4408L104.462 76.8816C104.428 77.0188 104.326 77.1206 104.122 77.1545L99.1664 78.1386C97.5372 78.4438 96.214 78.9193 95.2638 79.5296C94.3814 80.2425 93.9051 81.2266 93.9051 82.5514C93.8712 83.06 93.9051 83.6033 94.1085 84.1806C94.3475 84.8256 94.6519 85.3682 95.0248 85.7743C95.4333 86.3515 96.214 86.7261 97.2659 86.9973C98.0466 87.133 99.2681 87.2008 100.931 87.2347C102.899 87.3025 104.428 87.2347 105.412 87.0652C106.532 86.8956 107.143 86.6922 107.38 86.4201C107.619 86.1149 107.789 85.8445 107.822 85.5377V77.1206H107.822ZM97.2659 82.5514C97.232 82.2107 97.3677 81.8385 97.7067 81.3977C98.0813 80.9893 98.4874 80.7527 98.9298 80.6849L104.496 79.7686V84.1814L103.919 84.317C103.003 84.5205 102.053 84.5883 101.034 84.5544C100.084 84.5544 99.2019 84.4187 98.3873 84.1136C97.6381 83.8399 97.2659 83.3321 97.2659 82.5514ZM80.2606 84.2145L79.9893 83.9756L77.477 84.0095L76.1869 83.8738L75.474 83.5347L75.1342 82.8558L75.0664 81.9056V74.5065L75.3723 74.0649H79.3782C79.5817 74.0649 79.7173 73.9631 79.7173 73.7597V71.7228L79.3782 71.3838H75.0671V67.3439C75.0671 67.0388 74.9315 66.9023 74.6256 66.9023H73.1659C72.1818 66.9023 71.6724 67.4118 71.6724 68.4637V81.8362C71.6724 83.5671 72.0801 84.824 72.8939 85.6371C73.8102 86.4516 75.202 86.894 77.0685 86.894H78.3255L79.3774 86.7245L80.1242 86.3838L80.3276 85.7049L80.2606 84.2145ZM132.6 71.5194C131.514 71.5194 130.46 71.655 129.409 71.961C128.424 72.1983 127.61 72.606 127.067 73.2164C126.354 73.9631 125.844 74.7777 125.539 75.5592C125.198 76.6782 125.03 77.9691 124.996 79.4279C124.996 80.4136 125.131 81.4995 125.438 82.6531C125.608 83.5694 126.014 84.4179 126.558 85.2325C127.237 86.1488 128.018 86.6929 128.935 86.9295C130.054 87.1669 131.344 87.3364 132.769 87.3703C134.298 87.3703 135.586 87.3364 136.638 87.2686C137.793 87.133 138.403 86.9973 138.471 86.8278C138.572 86.76 138.642 86.4532 138.642 85.9115L138.608 84.5528C138.572 84.2815 138.471 84.1459 138.267 84.1459C136.57 84.3832 134.906 84.485 133.279 84.485C132.566 84.5528 131.954 84.485 131.377 84.3832C130.632 84.2476 130.155 84.112 129.952 83.9409C129.611 83.6696 129.341 83.4322 129.171 83.1618C128.832 82.5845 128.662 82.1421 128.662 81.8031L136.638 80.0043C137.419 79.8348 137.997 79.5974 138.369 79.2576C138.845 78.9185 139.184 78.4769 139.319 77.9683C139.524 77.492 139.626 76.8808 139.626 76.1349C139.592 75.5923 139.49 75.0151 139.285 74.5057C139.048 73.9631 138.71 73.4537 138.199 73.046C137.69 72.6045 136.978 72.2654 136.062 72.0272C134.873 71.7236 133.72 71.5194 132.6 71.5194ZM129.341 75.2871C129.646 74.9473 130.054 74.6768 130.632 74.5404C131.548 74.303 132.293 74.2013 132.871 74.2352C133.991 74.1674 134.839 74.3369 135.417 74.7777C135.927 75.1176 136.198 75.6262 136.232 76.1696C136.266 76.4069 136.232 76.7121 136.13 77.018C136.062 77.3232 135.891 77.5606 135.621 77.6954C135.35 77.8665 135.045 77.9683 134.806 77.9683L128.493 79.1558V78.7829C128.459 78.07 128.493 77.3563 128.629 76.6774C128.696 76.306 128.935 75.8297 129.341 75.2871ZM111.928 71.4516L109.62 71.5194L109.349 71.5872L109.212 71.7907C109.212 71.8246 109.246 71.8924 109.246 71.9602L114.575 86.3515L114.746 86.7939L115.153 86.8956H118.412L118.819 86.7939L119.09 86.4532L124.624 71.7907C124.556 71.7228 124.419 71.655 124.216 71.5872C123.572 71.5872 122.654 71.5872 121.365 71.6211L121.026 72.1305L117.054 83.7043H116.885L113.05 72.1305L112.641 71.6211L111.928 71.4516ZM88.5421 74.7107C89.3212 74.5017 90.0009 74.3669 90.5103 74.3708C91.4132 74.3779 92.052 74.3882 92.921 74.5065C93.126 74.5349 93.2616 74.3693 93.2261 73.9639C93.1922 73.5914 93.1922 73.2167 93.2261 72.8442C93.2585 72.5059 93.1094 72.2512 92.921 72.0635C92.7192 71.8569 92.4764 71.6949 92.2081 71.588C92.1387 71.5596 92.1064 71.5596 92.0725 71.5541L91.869 71.5202L90.1042 71.4863C89.3575 71.4721 88.4104 71.7055 87.1858 71.9618C85.4225 72.33 83.7421 73.8244 83.146 75.4922C82.7304 76.6553 82.6712 77.8673 82.6712 79.0565V86.5234C82.6712 86.7962 82.773 86.9319 83.0103 86.9319H85.5566C85.8279 86.9319 85.9635 86.7962 85.9635 86.5234V79.0565C85.9635 78.3436 86.0234 77.6623 86.1669 77.0204C86.4524 75.7374 87.3206 75.038 88.5421 74.7107ZM143.428 64.6289C142.477 64.6289 142.001 65.1383 142.001 66.1564V86.4871C142.001 86.76 142.103 86.8956 142.342 86.8956H144.888C145.159 86.8956 145.295 86.76 145.295 86.4871V64.9688L144.888 64.6289H143.428ZM13.7336 66.3945C11.4933 66.3945 9.72851 67.0048 8.43842 68.1932C7.25085 69.3477 6.67362 70.8065 6.70753 72.4696C6.70753 73.9631 7.18303 75.1515 8.06543 76.067C8.91392 76.9502 10.3057 77.6276 12.3418 78.1378L18.4516 79.5288C19.1644 79.6321 19.6731 79.8356 19.8773 80.14C20.1494 80.3095 20.3189 80.6494 20.3528 81.1919C20.4206 81.9726 19.7764 82.415 18.4524 82.4489H8.94783C8.26888 82.4489 7.79417 82.6184 7.4882 82.9236C7.18303 83.2304 7.04661 83.7043 7.04661 84.3501V86.5557L7.08052 86.7608L7.4196 86.8625H18.1117C20.725 86.8625 22.694 86.2514 23.9841 85.0977C25.1717 84.0796 25.7828 82.7549 25.8507 81.024C25.7828 79.3609 25.3412 78.0716 24.4927 77.2231C23.5425 76.1711 22.1168 75.4575 20.3181 75.1192L13.971 73.6935C13.5294 73.6596 13.0886 73.4561 12.5792 73.0145L12.3418 72.7764C12.1044 72.6746 12.0366 72.4373 12.0705 72.0296C12.0705 71.588 12.2401 71.2828 12.5799 71.1133C12.7834 70.909 13.1911 70.7734 13.7336 70.7734H23.2374C24.4588 70.7734 25.1039 70.1284 25.1725 68.8722V66.6658C25.1047 66.4623 24.9004 66.3945 24.4935 66.3945H13.7336ZM47.8823 66.3945H41.2694C40.6393 66.3945 39.9911 66.7557 39.5984 67.2391L32.6733 75.7619V66.7162C32.6733 66.4749 32.5337 66.3945 32.3003 66.3945H29.5498C28.3622 66.3945 27.6833 66.8014 27.6833 67.616V86.4217C27.6833 86.6851 27.9932 86.8625 28.2534 86.8625H31.1111C31.9257 86.8625 32.6725 86.4359 32.6725 85.5377V76L39.6702 86.0921C39.9328 86.4706 40.5912 86.8625 41.1416 86.8625H45.2942C45.6853 86.8625 45.9795 86.812 46.1088 86.6236C46.2247 86.4556 46.1829 86.1843 45.9787 85.8815L39.257 75.8983L45.1625 68.2279L52.258 78.1386C52.6318 78.6819 52.8691 79.3262 52.903 80.1408V86.3688C52.903 86.7166 53.1089 86.8617 53.4834 86.8617H56.297C57.1715 86.8798 57.8134 86.4091 57.8923 85.5369V80.14C57.9262 79.6992 58.1635 79.1558 58.5712 78.5447L66.8267 66.9544C67.008 66.6997 67.0696 66.3937 66.6153 66.3937H63.0179C62.2554 66.3937 61.7617 66.5041 61.3209 67.1744L55.5171 75.9992L50.0595 67.4346C49.58 66.6902 48.9815 66.3945 47.8823 66.3945Z"/>
<path d="M107.822 77.1206C107.822 75.1176 107.278 73.6919 106.192 72.8095C105.174 71.8924 103.477 71.4177 101.169 71.3838C99.4376 71.3838 97.7738 71.5194 96.1462 71.7907C95.863 71.8298 95.6005 71.9612 95.3994 72.1644C95.2284 72.4275 95.1345 72.7332 95.1282 73.0468V74.3708C95.1282 74.6082 95.2299 74.7107 95.3994 74.7107C97.2498 74.4036 99.1244 74.2671 101 74.303C101.882 74.303 102.798 74.5065 103.681 74.9134C104.258 75.1515 104.529 75.6601 104.529 76.4408L104.462 76.8816C104.428 77.0188 104.326 77.1206 104.122 77.1545L99.1664 78.1386C97.5372 78.4438 96.214 78.9193 95.2638 79.5296C94.3814 80.2425 93.9051 81.2266 93.9051 82.5514C93.8712 83.06 93.9051 83.6033 94.1085 84.1806C94.3475 84.8256 94.6519 85.3682 95.0248 85.7743C95.4333 86.3515 96.214 86.7261 97.2659 86.9973C98.0466 87.133 99.2681 87.2008 100.931 87.2347C102.899 87.3025 104.428 87.2347 105.412 87.0652C106.532 86.8956 107.143 86.6922 107.38 86.4201C107.619 86.1149 107.789 85.8445 107.822 85.5377V77.1206H107.822ZM97.2659 82.5514C97.232 82.2107 97.3677 81.8385 97.7067 81.3977C98.0813 80.9893 98.4874 80.7527 98.9298 80.6849L104.496 79.7686V84.1814L103.919 84.317C103.003 84.5205 102.053 84.5883 101.034 84.5544C100.084 84.5544 99.2019 84.4187 98.3873 84.1136C97.6381 83.8399 97.2659 83.3321 97.2659 82.5514ZM80.2606 84.2145L79.9893 83.9756L77.477 84.0095L76.1869 83.8738L75.474 83.5347L75.1342 82.8558L75.0664 81.9056V74.5065L75.3723 74.0649H79.3782C79.5817 74.0649 79.7173 73.9631 79.7173 73.7597V71.7228L79.3782 71.3838H75.0671V67.3439C75.0671 67.0388 74.9315 66.9023 74.6256 66.9023H73.1659C72.1818 66.9023 71.6724 67.4118 71.6724 68.4637V81.8362C71.6724 83.5671 72.0801 84.824 72.8939 85.6371C73.8102 86.4516 75.202 86.894 77.0685 86.894H78.3255L79.3774 86.7245L80.1242 86.3838L80.3276 85.7049L80.2606 84.2145ZM132.6 71.5194C131.514 71.5194 130.46 71.655 129.409 71.961C128.424 72.1983 127.61 72.606 127.067 73.2164C126.354 73.9631 125.844 74.7777 125.539 75.5592C125.198 76.6782 125.03 77.9691 124.996 79.4279C124.996 80.4136 125.131 81.4995 125.438 82.6531C125.608 83.5694 126.014 84.4179 126.558 85.2325C127.237 86.1488 128.018 86.6929 128.935 86.9295C130.054 87.1669 131.344 87.3364 132.769 87.3703C134.298 87.3703 135.586 87.3364 136.638 87.2686C137.793 87.133 138.403 86.9973 138.471 86.8278C138.572 86.76 138.642 86.4532 138.642 85.9115L138.608 84.5528C138.572 84.2815 138.471 84.1459 138.267 84.1459C136.57 84.3832 134.906 84.485 133.279 84.485C132.566 84.5528 131.954 84.485 131.377 84.3832C130.632 84.2476 130.155 84.112 129.952 83.9409C129.611 83.6696 129.341 83.4322 129.171 83.1618C128.832 82.5845 128.662 82.1421 128.662 81.8031L136.638 80.0043C137.419 79.8348 137.997 79.5974 138.369 79.2576C138.845 78.9185 139.184 78.4769 139.319 77.9683C139.524 77.492 139.626 76.8808 139.626 76.1349C139.592 75.5923 139.49 75.0151 139.285 74.5057C139.048 73.9631 138.71 73.4537 138.199 73.046C137.69 72.6045 136.978 72.2654 136.062 72.0272C134.873 71.7236 133.72 71.5194 132.6 71.5194ZM129.341 75.2871C129.646 74.9473 130.054 74.6768 130.632 74.5404C131.548 74.303 132.293 74.2013 132.871 74.2352C133.991 74.1674 134.839 74.3369 135.417 74.7777C135.927 75.1176 136.198 75.6262 136.232 76.1696C136.266 76.4069 136.232 76.7121 136.13 77.018C136.062 77.3232 135.891 77.5606 135.621 77.6954C135.35 77.8665 135.045 77.9683 134.806 77.9683L128.493 79.1558V78.7829C128.459 78.07 128.493 77.3563 128.629 76.6774C128.696 76.306 128.935 75.8297 129.341 75.2871ZM111.928 71.4516L109.62 71.5194L109.349 71.5872L109.212 71.7907C109.212 71.8246 109.246 71.8924 109.246 71.9602L114.575 86.3515L114.746 86.7939L115.153 86.8956H118.412L118.819 86.7939L119.09 86.4532L124.624 71.7907C124.556 71.7228 124.419 71.655 124.216 71.5872C123.572 71.5872 122.654 71.5872 121.365 71.6211L121.026 72.1305L117.054 83.7043H116.885L113.05 72.1305L112.641 71.6211L111.928 71.4516ZM88.5421 74.7107C89.3212 74.5017 90.0009 74.3669 90.5103 74.3708C91.4132 74.3779 92.052 74.3882 92.921 74.5065C93.126 74.5349 93.2616 74.3693 93.2261 73.9639C93.1922 73.5914 93.1922 73.2167 93.2261 72.8442C93.2585 72.5059 93.1094 72.2512 92.921 72.0635C92.7192 71.8569 92.4764 71.6949 92.2081 71.588C92.1387 71.5596 92.1064 71.5596 92.0725 71.5541L91.869 71.5202L90.1042 71.4863C89.3575 71.4721 88.4104 71.7055 87.1858 71.9618C85.4225 72.33 83.7421 73.8244 83.146 75.4922C82.7304 76.6553 82.6712 77.8673 82.6712 79.0565V86.5234C82.6712 86.7962 82.773 86.9319 83.0103 86.9319H85.5566C85.8279 86.9319 85.9635 86.7962 85.9635 86.5234V79.0565C85.9635 78.3436 86.0234 77.6623 86.1669 77.0204C86.4524 75.7374 87.3206 75.038 88.5421 74.7107ZM143.428 64.6289C142.477 64.6289 142.001 65.1383 142.001 66.1564V86.4871C142.001 86.76 142.103 86.8956 142.342 86.8956H144.888C145.159 86.8956 145.295 86.76 145.295 86.4871V64.9688L144.888 64.6289H143.428ZM13.7336 66.3945C11.4933 66.3945 9.72851 67.0048 8.43842 68.1932C7.25085 69.3477 6.67362 70.8065 6.70753 72.4696C6.70753 73.9631 7.18303 75.1515 8.06543 76.067C8.91392 76.9502 10.3057 77.6276 12.3418 78.1378L18.4516 79.5288C19.1644 79.6321 19.6731 79.8356 19.8773 80.14C20.1494 80.3095 20.3189 80.6494 20.3528 81.1919C20.4206 81.9726 19.7764 82.415 18.4524 82.4489H8.94783C8.26888 82.4489 7.79417 82.6184 7.4882 82.9236C7.18303 83.2304 7.04661 83.7043 7.04661 84.3501V86.5557L7.08052 86.7608L7.4196 86.8625H18.1117C20.725 86.8625 22.694 86.2514 23.9841 85.0977C25.1717 84.0796 25.7828 82.7549 25.8507 81.024C25.7828 79.3609 25.3412 78.0716 24.4927 77.2231C23.5425 76.1711 22.1168 75.4575 20.3181 75.1192L13.971 73.6935C13.5294 73.6596 13.0886 73.4561 12.5792 73.0145L12.3418 72.7764C12.1044 72.6746 12.0366 72.4373 12.0705 72.0296C12.0705 71.588 12.2401 71.2828 12.5799 71.1133C12.7834 70.909 13.1911 70.7734 13.7336 70.7734H23.2374C24.4588 70.7734 25.1039 70.1284 25.1725 68.8722V66.6658C25.1047 66.4623 24.9004 66.3945 24.4935 66.3945H13.7336ZM47.8823 66.3945H41.2694C40.6393 66.3945 39.9911 66.7557 39.5984 67.2391L32.6733 75.7619V66.7162C32.6733 66.4749 32.5337 66.3945 32.3003 66.3945H29.5498C28.3622 66.3945 27.6833 66.8014 27.6833 67.616V86.4217C27.6833 86.6851 27.9932 86.8625 28.2534 86.8625H31.1111C31.9257 86.8625 32.6725 86.4359 32.6725 85.5377V76L39.6702 86.0921C39.9328 86.4706 40.5912 86.8625 41.1416 86.8625H45.2942C45.6853 86.8625 45.9795 86.812 46.1088 86.6236C46.2247 86.4556 46.1829 86.1843 45.9787 85.8815L39.257 75.8983L45.1625 68.2279L52.258 78.1386C52.6318 78.6819 52.8691 79.3262 52.903 80.1408V86.3688C52.903 86.7166 53.1089 86.8617 53.4834 86.8617H56.297C57.1715 86.8798 57.8134 86.4091 57.8923 85.5369V80.14C57.9262 79.6992 58.1635 79.1558 58.5712 78.5447L66.8267 66.9544C67.008 66.6997 67.0696 66.3937 66.6153 66.3937H63.0179C62.2554 66.3937 61.7617 66.5041 61.3209 67.1744L55.5171 75.9992L50.0595 67.4346C49.58 66.6902 48.9815 66.3945 47.8823 66.3945Z"/>
</symbol>
<symbol id="logo5" viewBox="0 0 152 152">
<path d="M89.6219 101.338H101.073C102.562 94.8401 99.4127 90.1166 103.363 85.9932C96.5502 85.6786 89.6219 89.802 89.6219 101.338ZM87.8879 101.338H76.438C74.9484 94.8401 78.0987 90.1166 74.1472 85.9932C80.962 85.6786 87.8879 89.802 87.8879 101.338ZM31.4167 41.1383V48.7613H21.4548V101.567H12.6387V48.7613H2.2352V41.1383H31.4167Z"/>
<path d="M12.6387 48.2613H2.7352V41.6383H30.9167V48.2613H21.4548H20.9548V48.7613V101.067H13.1387V48.7613V48.2613H12.6387ZM100.884 94.3386C101.014 96.3412 101.152 98.4598 100.669 100.838H90.1264C90.2235 95.4491 91.8937 91.8337 94.2804 89.5856C96.4855 87.5086 99.3533 86.5504 102.297 86.4807C100.839 88.455 100.7 90.5623 100.795 92.7965C100.817 93.3044 100.851 93.8176 100.884 94.3386ZM76.7153 92.7965C76.8111 90.5622 76.6718 88.455 75.213 86.4807C78.1577 86.5504 81.0255 87.5086 83.2302 89.5855C85.6167 91.8336 87.2863 95.4491 87.3834 100.838H76.8414C76.3588 98.46 76.4963 96.3417 76.6264 94.3392C76.6602 93.818 76.6936 93.3046 76.7153 92.7965Z"/>
<path d="M36.5765 60.9029V83.0496C36.5765 87.7116 35.8447 95.4584 42.2683 95.4584C48.4396 95.4584 47.9618 87.7116 47.9618 83.0496V60.9029H57.9237V84.9643C57.9237 96.87 52.6576 103.115 42.2683 103.115C31.8791 103.115 26.6138 96.87 26.6138 84.9643V60.9029H36.5765ZM115.96 63.6147C118.055 60.358 121.46 58.3874 124.865 58.3874C133.968 58.3874 139.536 69.529 139.536 80.5854C139.536 92.07 134.166 103.212 124.67 103.212C121.396 103.212 117.924 101.328 116.091 97.8983H115.96V116.425H106.792V59.7579H115.96V63.6147ZM130.235 80.7565C130.235 75.1001 127.356 69.0148 122.639 69.0148C117.923 69.0148 115.041 75.1001 115.041 80.7565C115.041 86.4136 117.923 92.5849 122.639 92.5849C127.356 92.5849 130.235 86.4136 130.235 80.7565ZM70.8064 101.567V36.299H62.1046V101.567H70.8064ZM145.9 39.3988C147.545 41.054 148.369 43.053 148.369 45.3966C148.369 47.7591 147.545 49.7715 145.9 51.4354C144.252 53.0993 142.253 53.9312 139.902 53.9312C137.55 53.9312 135.55 53.0993 133.905 51.4354C132.268 49.7715 131.448 47.7591 131.448 45.3966C131.448 43.053 132.271 41.054 133.919 39.3988C135.573 37.7349 137.569 36.9022 139.902 36.9022C142.246 36.9022 144.245 37.7349 145.9 39.3988ZM146.88 38.4462C144.957 36.5316 142.631 35.5735 139.902 35.5735C137.191 35.5735 134.879 36.5316 132.965 38.4462C131.041 40.3695 130.08 42.6855 130.08 45.3958C130.08 48.1337 131.032 50.4647 132.939 52.3864C134.852 54.3192 137.172 55.286 139.902 55.286C142.631 55.286 144.956 54.3192 146.88 52.3864C148.803 50.4552 149.765 48.125 149.765 45.3958C149.765 42.6776 148.802 40.3608 146.88 38.4462ZM141.364 44.9408C140.963 45.1017 140.358 45.1821 139.552 45.1821H137.835V41.263H139.46C140.515 41.263 141.282 41.397 141.761 41.6659C142.24 41.934 142.479 42.4616 142.479 43.2486C142.479 44.0821 142.107 44.6459 141.364 44.9408ZM135.931 50.7785H137.835V46.5108H139.338C140.35 46.5108 141.057 46.6268 141.458 46.8594C142.137 47.2623 142.478 48.0895 142.478 49.3418V50.2005L142.518 50.5491C142.528 50.5948 142.536 50.635 142.546 50.6705C142.554 50.7068 142.562 50.7415 142.572 50.7785H144.355L144.289 50.6437C144.244 50.5538 144.214 50.3661 144.195 50.0807C144.179 49.8126 144.17 49.5441 144.169 49.2755V48.4838C144.169 47.9389 143.972 47.3798 143.578 46.8065C143.185 46.2341 142.563 45.8808 141.715 45.7459C142.385 45.6387 142.908 45.4652 143.284 45.2231C143.99 44.7673 144.344 44.0553 144.344 43.0901C144.344 41.7298 143.785 40.8174 142.666 40.3522C142.039 40.0927 141.057 39.9634 139.714 39.9634H135.931V50.7785Z"/>
<path d="M137.335 45.6821V45.1821V41.263V40.763H137.835H139.46C140.535 40.763 141.411 40.8956 142.006 41.2299C142.706 41.6224 142.979 42.3686 142.979 43.2486C142.979 43.7401 142.869 44.1908 142.618 44.5717C142.452 44.8228 142.237 45.0267 141.981 45.1876C142.437 45.0888 142.775 44.9564 143.013 44.8031L137.335 45.6821ZM137.335 45.6821H137.835H139.552C140.376 45.6821 141.058 45.6021 141.549 45.4052M137.335 45.6821L141.636 45.3692M141.549 45.4052C141.578 45.3936 141.607 45.3816 141.636 45.3692M141.549 45.4052C141.549 45.4053 141.548 45.4054 141.548 45.4056L141.364 44.9408L141.55 45.4048C141.55 45.4049 141.549 45.4051 141.549 45.4052ZM141.636 45.3692L141.636 46.2397C142.384 46.3586 142.869 46.6563 143.166 47.0894L143.166 47.0899C143.519 47.6028 143.669 48.0649 143.669 48.4838V49.2755V49.2773C143.67 49.5555 143.679 49.8335 143.696 50.1112L143.696 50.1124C143.7 50.17 143.704 50.2255 143.709 50.2785H142.99L142.978 50.1718V49.3418C142.978 48.0217 142.619 46.9667 141.713 46.4294L141.709 46.4268C141.183 46.1219 140.356 46.0108 139.338 46.0108H137.835H137.335V46.5108V50.2785H136.431V40.4634H139.714C141.042 40.4634 141.942 40.5939 142.474 40.8139C142.95 41.0116 143.281 41.2919 143.498 41.6467C143.718 42.0057 143.844 42.4774 143.844 43.0901C143.844 43.9148 143.553 44.4541 143.013 44.8029L141.636 45.3692ZM115.46 63.6147V65.3166L116.381 63.8852C118.396 60.7522 121.652 58.8874 124.865 58.8874C129.184 58.8874 132.713 61.5245 135.187 65.5997C137.661 69.6761 139.036 75.1324 139.036 80.5854C139.036 86.2587 137.708 91.8215 135.235 95.9482C132.766 100.069 129.191 102.712 124.67 102.712C121.579 102.712 118.277 100.928 116.532 97.6626L116.391 97.3983H116.091H115.96H115.46V97.8983V115.925H107.292V60.2579H115.46V63.6147ZM146.255 39.0463L146.255 39.0462C144.506 37.2882 142.379 36.4022 139.902 36.4022C137.435 36.4022 135.312 37.2885 133.565 39.046C131.823 40.7954 130.948 42.9215 130.948 45.3966C130.948 47.8887 131.818 50.0275 133.548 51.7861L133.549 51.787C135.289 53.5464 137.417 54.4312 139.902 54.4312C142.386 54.4312 144.513 53.5463 146.255 51.7873L146.256 51.7869C147.994 50.0287 148.869 47.8896 148.869 45.3966C148.869 42.9213 147.993 40.7955 146.255 39.0463ZM133.294 52.0347L133.294 52.0342C131.481 50.2076 130.58 48.0037 130.58 45.3958C130.58 42.8187 131.488 40.6297 133.318 38.7998C135.139 36.9789 137.323 36.0735 139.902 36.0735C142.499 36.0735 144.699 36.9797 146.528 38.8006C148.355 40.6213 149.265 42.8106 149.265 45.3958C149.265 47.9929 148.355 50.1963 146.526 52.0337C144.696 53.8722 142.498 54.786 139.902 54.786C137.305 54.786 135.113 53.8722 133.294 52.0347ZM36.0765 61.4029V83.0496C36.0765 83.4513 36.0707 83.8813 36.0646 84.3316C36.0361 86.4367 36.0017 88.9828 36.5281 91.1218C36.8505 92.432 37.3945 93.6471 38.3233 94.5363C39.2642 95.4371 40.553 95.9584 42.2683 95.9584C43.9265 95.9584 45.1834 95.4334 46.1098 94.5339C47.0232 93.647 47.5749 92.4356 47.9133 91.1275C48.4985 88.8661 48.4805 86.1579 48.466 83.9823C48.4638 83.6585 48.4618 83.3466 48.4618 83.0496V61.4029H57.4237V84.9643C57.4237 90.8537 56.1199 95.255 53.6124 98.179C51.117 101.089 47.3598 102.615 42.2683 102.615C37.1769 102.615 33.4199 101.089 30.9247 98.179C28.4174 95.2551 27.1138 90.8538 27.1138 84.9643V61.4029H36.0765ZM130.735 80.7565C130.735 77.8529 129.998 74.8274 128.637 72.5112C127.278 70.198 125.242 68.5148 122.639 68.5148C120.037 68.5148 118 70.198 116.641 72.5111C115.279 74.8273 114.541 77.8529 114.541 80.7565C114.541 83.6603 115.279 86.7067 116.64 89.0437C117.998 91.3764 120.034 93.0849 122.639 93.0849C125.245 93.0849 127.28 91.3764 128.638 89.0437C129.998 86.7067 130.735 83.6603 130.735 80.7565ZM70.3064 36.799V101.067H62.6046V36.799H70.3064Z"/>
<path d="M86.1757 65.3439C88.8805 70.9774 83.4725 81.7933 92.7122 82.9194C91.3598 84.9476 86.8531 84.9476 84.1491 84.047C80.5438 83.1457 77.3896 79.9899 76.0364 76.6109C73.5579 70.5263 77.2192 61.0352 73.3324 56.5569C78.9667 56.5562 84.3739 60.1615 86.1757 65.3439Z"/>
<path d="M85.7035 65.5081L85.7128 65.5348L85.725 65.5603C86.3509 66.864 86.5212 68.5022 86.5388 70.3132C86.5463 71.0812 86.5266 71.8654 86.5067 72.6585C86.5032 72.796 86.4998 72.9337 86.4964 73.0716C86.4741 74.0005 86.4578 74.9371 86.4938 75.8418C86.5652 77.6395 86.8437 79.3881 87.7564 80.7664C88.5568 81.9752 89.806 82.8436 91.6757 83.2519C91.0179 83.7035 90.0451 83.9841 88.8945 84.0833C87.3267 84.2186 85.5925 84.0008 84.3071 83.5727L84.289 83.5666L84.2704 83.562C80.8467 82.7061 77.8048 79.6817 76.5006 76.425L76.4994 76.4223C75.9116 74.9791 75.6796 73.3117 75.6145 71.5221C75.5626 70.0931 75.6172 68.6156 75.6721 67.1315C75.686 66.7538 75.7 66.3756 75.7123 65.9977C75.7721 64.1506 75.7901 62.3138 75.5406 60.6499C75.3469 59.3578 74.9886 58.1443 74.3451 57.0969C79.4066 57.4962 84.0847 60.8523 85.7035 65.5081Z"/>
<path d="M102.852 56.5564C98.3451 62.4422 103.133 70.8924 100.316 77.6512C99.3308 79.9057 97.894 81.1153 96.0922 81.568C93.6122 82.2438 91.4436 81.4536 90.0084 79.5398C88.0646 76.667 88.347 66.3866 91.5856 61.7388C94.2603 57.9363 98.3451 56.3308 102.852 56.5564ZM88.0647 65.2976C88.7255 61.1655 89.2317 58.9962 92.2062 57.1785C92.2062 57.1785 91.5343 53.7089 88.0647 51.8904C84.4302 53.8737 83.5919 57.1785 83.5919 57.1785C86.5656 58.9962 87.4038 61.1655 88.0647 65.2976Z"/>
<path d="M95.9704 81.083L95.9703 81.0829L95.9607 81.0855C93.6816 81.7066 91.7273 80.9913 90.4159 79.2498C89.9989 78.6273 89.6671 77.5436 89.4748 76.1325C89.2838 74.7309 89.2381 73.0655 89.3525 71.338C89.5826 67.8628 90.4531 64.2393 91.9952 62.0255C94.3755 58.6423 97.9201 57.0653 101.914 57.036C100.09 59.9851 100.194 63.4367 100.452 66.8144C100.479 67.175 100.508 67.5348 100.538 67.8934C100.811 71.2606 101.076 74.5261 99.8566 77.4549C98.9227 79.5885 97.5978 80.6742 95.9704 81.083ZM88.8121 60.1643C88.4827 60.8935 88.2438 61.705 88.0423 62.6189C87.8065 61.6946 87.5197 60.8766 87.1399 60.1408C86.4804 58.8632 85.5545 57.8591 84.1876 56.9638C84.2044 56.9183 84.2233 56.8689 84.2444 56.8157C84.3707 56.4979 84.5764 56.0496 84.8907 55.5411C85.4898 54.5717 86.4809 53.3868 88.0685 52.4622C89.5541 53.3076 90.459 54.476 90.9983 55.4572C91.282 55.9734 91.4629 56.4351 91.5723 56.7653C91.5948 56.8331 91.6143 56.8953 91.6309 56.9511C90.253 57.8566 89.3954 58.8732 88.8121 60.1643ZM84.0763 57.3026C84.0763 57.3027 84.0763 57.3027 84.0763 57.3025L84.0763 57.3026Z"/>
</symbol></svg>
